<svg width="124" height="124" viewBox="0 0 124 124" fill="none" xmlns="http://www.w3.org/2000/svg">
<circle cx="62" cy="62" r="61.5" stroke="black"/>
<mask id="path-2-inside-1" fill="white">
<path fill-rule="evenodd" clip-rule="evenodd" d="M15.4912 21C26.8521 8.12252 43.4776 0 62.0003 0C80.5229 0 97.1485 8.12252 108.509 21C97.1485 33.8775 80.5229 42 62.0003 42C43.4776 42 26.8521 33.8775 15.4912 21Z"/>
</mask>
<path d="M15.4912 21L14.7413 20.3384L14.1577 21L14.7413 21.6616L15.4912 21ZM108.509 21L109.259 21.6616L109.843 21L109.259 20.3384L108.509 21ZM16.2411 21.6616C27.4202 8.99013 43.7765 1 62.0003 1V-1C43.1787 -1 26.284 7.25491 14.7413 20.3384L16.2411 21.6616ZM62.0003 1C80.224 1 96.5804 8.99013 107.759 21.6616L109.259 20.3384C97.7166 7.25491 80.8218 -1 62.0003 -1V1ZM107.759 20.3384C96.5804 33.0099 80.224 41 62.0003 41V43C80.8218 43 97.7166 34.7451 109.259 21.6616L107.759 20.3384ZM62.0003 41C43.7765 41 27.4202 33.0099 16.2411 20.3384L14.7413 21.6616C26.284 34.7451 43.1787 43 62.0003 43V41Z" fill="black" mask="url(#path-2-inside-1)"/>
<mask id="path-4-inside-2" fill="white">
<path fill-rule="evenodd" clip-rule="evenodd" d="M15.4912 103C26.8521 90.1225 43.4776 82 62.0003 82C80.5229 82 97.1485 90.1225 108.509 103C97.1485 115.877 80.5229 124 62.0003 124C43.4776 124 26.8521 115.877 15.4912 103Z"/>
</mask>
<path d="M15.4912 103L14.7413 102.338L14.1577 103L14.7413 103.662L15.4912 103ZM108.509 103L109.259 103.662L109.843 103L109.259 102.338L108.509 103ZM16.2411 103.662C27.4202 90.9901 43.7765 83 62.0003 83V81C43.1787 81 26.284 89.2549 14.7413 102.338L16.2411 103.662ZM62.0003 83C80.224 83 96.5804 90.9901 107.759 103.662L109.259 102.338C97.7166 89.2549 80.8218 81 62.0003 81V83ZM107.759 102.338C96.5804 115.01 80.224 123 62.0003 123V125C80.8218 125 97.7166 116.745 109.259 103.662L107.759 102.338ZM62.0003 123C43.7765 123 27.4202 115.01 16.2411 102.338L14.7413 103.662C26.284 116.745 43.1787 125 62.0003 125V123Z" fill="black" mask="url(#path-4-inside-2)"/>
<path d="M91.5 62C91.5 79.0623 88.1526 94.4846 82.7631 105.623C77.3568 116.796 69.9842 123.5 62 123.5C54.0158 123.5 46.6431 116.796 41.2369 105.623C35.8474 94.4846 32.5 79.0623 32.5 62C32.5 44.9377 35.8474 29.5154 41.2369 18.3772C46.6431 7.2042 54.0158 0.5 62 0.5C69.9842 0.5 77.3568 7.2042 82.7631 18.3772C88.1526 29.5154 91.5 44.9377 91.5 62Z" stroke="black"/>
<path d="M1 62H124" stroke="black"/>
<path d="M38.656 60.6592C38.656 55.0538 33.9483 50.5207 28.3184 50.8132C23.2224 51.0569 19 55.395 19 60.5618C19 62.5602 19.3397 64.0712 21.6693 67.4345C22.1547 68.1656 28.8037 75.867 28.8037 75.867C28.8037 75.867 35.4043 68.1169 35.9381 67.3857C38.4133 64.1687 38.656 62.7064 38.656 60.6592Z" fill="white" stroke="#231F20" stroke-miterlimit="10" stroke-linecap="round" stroke-linejoin="round"/>
<path d="M78.647 37.5551C78.647 32.7783 74.6672 28.9764 69.8624 29.2201C65.5429 29.4638 62 33.1195 62 37.4576C62 39.1149 62.2912 40.4309 64.2811 43.3067C64.7179 43.9404 70.3477 50.4719 70.3477 50.4719C70.3477 50.4719 75.9776 43.8916 76.4144 43.3067C78.4528 40.5284 78.647 39.3098 78.647 37.5551Z" fill="white" stroke="#231F20" stroke-miterlimit="10" stroke-linecap="round" stroke-linejoin="round"/>
<path d="M100.975 81.229C100.975 74.3562 95.2486 68.8483 88.3568 69.2383C82.096 69.5795 77 74.8437 77 81.1315C77 83.5686 77.3883 85.4208 80.3003 89.5152C80.9312 90.3926 88.9877 99.7999 88.9877 99.7999C88.9877 99.7999 97.0443 90.3438 97.7238 89.5152C100.636 85.4696 100.975 83.7148 100.975 81.229Z" fill="white" stroke="#231F20" stroke-miterlimit="10" stroke-linecap="round" stroke-linejoin="round"/>
</svg>
