<svg width="1920" height="657" viewBox="0 0 1920 657" fill="none" xmlns="http://www.w3.org/2000/svg">
<path d="M912.341 431.311H896.18V422.45C896.18 421.799 895.659 421.147 894.877 421.147C894.095 421.147 893.573 421.668 893.573 422.45V431.311H890.966V422.45C890.966 421.799 890.445 421.147 889.663 421.147C888.881 421.147 888.36 421.668 888.36 422.45V431.311H884.319C883.798 428.705 881.452 426.75 878.715 426.75H878.454C875.717 426.75 873.371 428.705 872.85 431.311H867.376V422.45C867.376 421.799 866.855 421.147 866.073 421.147C865.291 421.147 864.769 421.668 864.769 422.45V431.311H862.163V422.45C862.163 421.799 861.641 421.147 860.859 421.147C860.077 421.147 859.556 421.668 859.556 422.45V431.311H859.165C857.992 431.311 856.949 432.353 856.949 433.526V497.506C856.949 498.679 857.992 499.721 859.165 499.721H912.341C913.514 499.721 914.557 498.679 914.557 497.506V433.526C914.557 432.353 913.514 431.311 912.341 431.311Z" fill="#F6F6F6"/>
<path d="M832.968 346.222H832.446C832.446 346.091 832.577 345.961 832.577 345.831V342.834C832.577 341.922 831.795 341.14 830.882 341.14H830.622V326.285H830.882C831.664 326.285 832.316 325.633 832.316 324.852C832.316 324.07 831.664 323.418 830.882 323.418H830.622C830.361 322.767 829.84 322.245 829.058 322.245C828.276 322.245 827.754 322.767 827.494 323.418H827.233C826.451 323.418 825.799 324.07 825.799 324.852C825.799 325.633 826.451 326.285 827.233 326.285H827.494V341.14H827.233C826.321 341.14 825.539 341.922 825.539 342.834V345.831C825.539 345.961 825.539 346.091 825.669 346.222H819.674V344.788C819.674 340.749 816.415 337.491 812.375 337.491H811.984C807.944 337.491 804.685 340.749 804.685 344.788V346.222H798.69C798.69 346.091 798.82 345.961 798.82 345.831V342.834C798.82 341.922 798.038 341.14 797.126 341.14H796.865V326.285H797.126C797.908 326.285 798.559 325.633 798.559 324.852C798.559 324.07 797.908 323.418 797.126 323.418H796.865C796.604 322.767 796.083 322.245 795.301 322.245C794.519 322.245 793.998 322.767 793.737 323.418H793.476C792.694 323.418 792.043 324.07 792.043 324.852C792.043 325.633 792.694 326.285 793.476 326.285H793.737V341.14H793.476C792.564 341.14 791.782 341.922 791.782 342.834V345.831C791.782 345.961 791.782 346.091 791.912 346.222H791.391C790.348 346.222 789.436 347.134 789.436 348.176C789.436 349.219 790.348 350.131 791.391 350.131H791.521V377.365H778.879V304.915C779.009 304.654 779.009 304.394 779.009 304.133V298.79C779.009 297.227 777.836 296.054 776.272 295.924V277.42C776.272 276.769 775.881 276.117 775.36 275.857V270.254C775.36 269.602 774.839 269.211 774.317 269.211C773.666 269.211 773.275 269.732 773.275 270.254V275.857C772.753 276.248 772.362 276.769 772.362 277.42V295.793C770.928 295.924 769.625 297.096 769.625 298.66V301.918H761.544C761.544 301.787 761.544 301.787 761.544 301.657V300.484C761.544 297.618 759.198 295.272 756.331 295.272H755.158V243.932V243.28V232.726C755.158 231.813 754.506 231.162 753.594 231.162C752.682 231.162 752.03 231.813 752.03 232.726V243.28H750.987C750.466 240.023 747.859 237.417 744.601 236.895V233.768C744.601 231.032 742.907 228.816 740.561 227.774V226.601C740.561 225.038 739.518 223.604 738.084 223.083L736.911 172.264C736.911 172.134 736.911 171.873 736.781 171.743C738.084 171.091 738.997 169.658 738.997 168.094C738.997 165.749 737.172 163.924 734.826 163.924C732.48 163.924 730.655 165.749 730.655 168.094C730.655 169.658 731.567 170.961 732.871 171.743C732.871 171.873 732.741 172.134 732.741 172.264L731.567 223.083C730.134 223.604 729.091 225.038 729.091 226.601V227.774C726.745 228.686 725.051 231.032 725.051 233.768V236.895C721.792 237.417 719.186 240.023 718.664 243.28H717.622V232.726C717.622 231.813 716.97 231.162 716.058 231.162C715.145 231.162 714.494 231.813 714.494 232.726V243.28V243.932V295.272H713.321C710.453 295.272 708.107 297.618 708.107 300.484V301.657C708.107 301.787 708.107 301.787 708.107 301.918H700.027V298.66C700.027 297.096 698.854 295.924 697.29 295.793V277.29C697.29 276.639 696.899 275.987 696.377 275.726V270.123C696.377 269.472 695.856 269.081 695.335 269.081C694.683 269.081 694.292 269.602 694.292 270.123V275.726C693.771 276.117 693.379 276.639 693.379 277.29V295.793C691.946 295.924 690.642 297.096 690.642 298.66V304.003C690.642 304.263 690.642 304.524 690.773 304.784V377.234H678.13V350H678.261C679.303 350 680.216 349.088 680.216 348.046C680.216 347.003 679.303 346.091 678.261 346.091H677.739C677.739 345.961 677.87 345.831 677.87 345.7V342.703C677.87 341.791 677.088 341.009 676.175 341.009H675.915V326.155H676.175C676.957 326.155 677.609 325.503 677.609 324.721C677.609 323.939 676.957 323.288 676.175 323.288H675.915C675.654 322.636 675.133 322.115 674.351 322.115C673.569 322.115 673.047 322.636 672.787 323.288H672.526C671.744 323.288 671.092 323.939 671.092 324.721C671.092 325.503 671.744 326.155 672.526 326.155H672.787V341.009H672.526C671.614 341.009 670.832 341.791 670.832 342.703V345.7C670.832 345.831 670.832 345.961 670.962 346.091H664.967V344.658C664.967 340.618 661.708 337.361 657.668 337.361H657.277C653.236 337.361 649.978 340.618 649.978 344.658V346.091H643.983C643.983 345.961 644.113 345.831 644.113 345.7V342.703C644.113 341.791 643.331 341.009 642.419 341.009H642.158V326.155H642.419C643.201 326.155 643.852 325.503 643.852 324.721C643.852 323.939 643.201 323.288 642.419 323.288H642.549C642.288 322.636 641.767 322.115 640.985 322.115C640.203 322.115 639.682 322.636 639.421 323.288H639.16C638.378 323.288 637.727 323.939 637.727 324.721C637.727 325.503 638.378 326.155 639.16 326.155H639.421V341.009H639.16C638.248 341.009 637.466 341.791 637.466 342.703V345.7C637.466 345.831 637.466 345.961 637.596 346.091H637.075C636.032 346.091 635.12 347.003 635.12 348.046C635.12 349.088 636.032 350 637.075 350H637.205V461.672C636.814 461.542 636.293 461.542 635.902 461.542H621.826C617.525 461.542 614.136 464.93 614.136 469.23V541.81C614.136 546.11 617.525 549.498 621.826 549.498H635.902C640.203 549.498 643.592 546.11 643.592 541.81V505.976H678.391V485.779H791.521V505.976H832.707V350H832.837C833.88 350 834.792 349.088 834.792 348.046C834.792 347.003 834.01 346.222 832.968 346.222Z" fill="#F6F6F6"/>
<path d="M587.808 373.325H532.677C529.81 373.325 527.464 375.67 527.464 378.537V562.138C527.464 565.004 529.81 567.35 532.677 567.35H587.808C590.676 567.35 593.022 565.004 593.022 562.138V378.667C593.152 375.67 590.806 373.325 587.808 373.325Z" fill="#F6F6F6"/>
<path d="M420.98 94.732V90.3016C420.98 87.4349 418.634 85.2197 415.897 85.2197H393.61C390.743 85.2197 388.527 87.5652 388.527 90.3016V94.732C382.01 95.1229 376.797 100.465 376.797 107.111V425.838C376.797 432.744 382.401 438.217 389.179 438.217H420.85C427.758 438.217 433.232 432.614 433.232 425.838V107.111C433.232 100.335 427.758 94.8623 420.98 94.732Z" fill="#F6F6F6"/>
<path d="M322.969 289.93C295.468 289.93 271.878 310.909 269.792 338.273C269.792 338.925 269.662 339.706 269.662 340.358L267.055 410.202V545.98H345.256V289.93H324.403H322.969Z" fill="#F6F6F6"/>
<path d="M251.546 451.378V431.441C251.546 426.099 247.244 421.668 241.77 421.668H235.123C229.78 421.668 225.348 425.969 225.348 431.441V451.117H223.654C218.18 451.117 213.618 455.548 213.618 461.151V504.152C213.618 509.625 218.05 514.185 223.654 514.185H249.33C254.804 514.185 259.366 509.755 259.366 504.152V461.151C259.366 456.33 255.977 452.421 251.546 451.378Z" fill="#F6F6F6"/>
<path d="M1451.54 467.145L1446.06 454.896H1445.67V417.368H1446.84C1447.76 417.368 1448.41 416.717 1448.41 415.805C1448.41 414.893 1447.76 414.241 1446.84 414.241H1444.11V360.295H1445.54C1446.45 360.295 1447.23 359.513 1447.23 358.601C1447.23 357.688 1446.45 356.907 1445.54 356.907H1444.11V353.779H1445.8C1446.84 353.779 1447.63 352.997 1447.63 351.955C1447.63 350.913 1446.84 350.131 1445.8 350.131H1444.11V346.352H1448.54C1450.1 346.352 1451.27 345.049 1451.27 343.615C1451.27 342.182 1449.97 340.879 1448.54 340.879H1445.15V333.452C1446.84 333.321 1448.28 331.888 1448.28 330.064C1448.28 328.239 1446.71 326.676 1444.89 326.676H1442.54V281.981C1443.32 281.199 1443.72 280.026 1443.72 278.854C1443.72 276.508 1441.89 274.554 1439.41 274.293V271.687H1439.94C1441.63 271.687 1442.93 270.384 1442.93 268.69V267.908C1442.93 266.214 1441.63 264.911 1439.94 264.911H1439.41V228.686C1443.32 227.383 1446.06 223.734 1446.06 219.304V217.61C1446.06 213.962 1444.11 210.834 1441.11 209.14V200.279C1442.41 199.889 1443.45 198.716 1443.45 197.282V195.849C1443.45 194.155 1442.02 192.722 1440.33 192.722H1440.07V181.776C1441.5 181.646 1442.67 180.473 1442.67 178.909C1442.67 177.346 1441.5 176.173 1440.07 176.043V149.982H1440.59C1442.54 149.982 1444.24 148.418 1444.24 146.333V118.448C1444.24 117.275 1443.72 116.363 1442.93 115.711C1442.54 112.714 1440.46 110.238 1437.72 109.196V99.5534H1438.76C1439.94 99.5534 1440.85 98.6412 1440.85 97.4685C1440.85 96.2957 1439.94 95.3836 1438.76 95.3836H1438.63C1438.63 95.123 1438.76 94.8624 1438.76 94.6017V74.4044C1438.76 72.7104 1437.59 71.1468 1436.03 70.7559V50.0373C1437.59 50.0373 1438.76 48.7342 1438.76 47.1706C1438.76 45.6069 1437.46 44.3038 1435.89 44.3038H1435.63V1.82428C1435.63 0.781833 1434.85 0 1433.81 0C1432.77 0 1431.98 0.781833 1431.98 1.82428V44.3038H1431.72C1430.16 44.3038 1428.86 45.6069 1428.86 47.1706C1428.86 48.7342 1430.03 49.907 1431.59 50.0373V70.7559C1430.03 71.2771 1428.86 72.7104 1428.86 74.4044V94.732C1428.86 94.9927 1428.86 95.2533 1428.99 95.5139H1428.86C1427.68 95.5139 1426.77 96.426 1426.77 97.5988C1426.77 98.7715 1427.68 99.6837 1428.86 99.6837H1429.9V109.326C1427.16 110.369 1425.08 112.845 1424.69 115.842C1423.9 116.493 1423.38 117.535 1423.38 118.578V147.115C1423.38 149.069 1424.95 150.763 1427.03 150.763H1427.55V176.824C1426.12 176.955 1424.95 178.128 1424.95 179.691C1424.95 181.255 1426.12 182.428 1427.55 182.558V193.504H1427.29C1425.6 193.504 1424.16 194.937 1424.16 196.631V198.064C1424.16 199.498 1425.21 200.801 1426.51 201.061V209.922C1423.64 211.616 1421.56 214.743 1421.56 218.392V220.086C1421.56 224.386 1424.3 228.035 1428.21 229.468V265.693H1427.68C1425.99 265.693 1424.69 266.996 1424.69 268.69V269.472C1424.69 271.166 1425.99 272.469 1427.68 272.469H1428.21V275.075C1425.86 275.205 1423.9 277.16 1423.9 279.635C1423.9 280.808 1424.43 281.851 1425.08 282.763V327.067H1422.73C1420.91 327.067 1419.34 328.63 1419.34 330.455C1419.34 332.279 1420.65 333.712 1422.47 333.843V341.27H1419.08C1417.52 341.27 1416.34 342.573 1416.34 344.006C1416.34 345.44 1417.65 346.743 1419.08 346.743H1423.51V350.522H1421.82C1420.78 350.522 1419.99 351.303 1419.99 352.346C1419.99 353.388 1420.78 354.17 1421.82 354.17H1423.51V357.298H1422.08C1421.17 357.298 1420.39 358.079 1420.39 358.991C1420.39 359.904 1421.17 360.685 1422.08 360.685H1423.51V414.371H1420.78C1419.86 414.371 1419.21 415.023 1419.21 415.935C1419.21 416.847 1419.86 417.499 1420.78 417.499H1421.95V455.027H1421.56L1416.08 467.275H1415.04V514.185H1453.23V467.275H1451.54V467.145Z" fill="#F6F6F6"/>
<path d="M215.182 120.532H211.142V113.235C205.537 110.89 199.933 108.935 194.198 107.372V102.55C169.174 92.1258 141.022 92.1258 115.998 102.55V107.372C110.263 108.935 104.659 110.89 99.0542 113.235V366.679H93.3195V275.856H76.2457C54.4798 275.856 36.8847 293.448 36.8847 315.209V458.154H20.8535C17.7255 458.154 15.2491 460.63 15.2491 463.757V495.942C15.2491 492.815 12.7728 490.339 9.64476 490.339C6.51673 490.339 4.04037 492.815 4.04037 495.942V561.877C4.04037 565.004 6.51673 567.48 9.64476 567.48C12.7728 567.48 15.2491 565.004 15.2491 561.877V557.707C15.2491 560.834 17.7255 563.31 20.8535 563.31H36.8847H93.3195V549.107H99.0542V552.625H211.142V388.18H220.265V128.872H215.182V120.532Z" fill="#F3F3F3"/>
<path d="M303.028 503.761H298.727C297.684 503.761 296.772 504.021 295.859 504.412V495.16C295.859 492.033 293.383 489.557 290.255 489.557H231.735V606.181H295.859V556.665C296.772 557.056 297.684 557.316 298.727 557.316H303.028C306.938 557.316 310.196 554.189 310.196 550.149V510.927C310.196 507.018 307.068 503.761 303.028 503.761Z" fill="#F3F3F3"/>
<path d="M388.397 322.375C388.397 318.336 385.138 315.078 381.098 315.078H380.577V229.468C382.923 228.556 384.487 226.21 384.487 223.604V122.748C384.487 119.229 381.619 116.363 378.1 116.363H370.411V108.153C370.411 104.765 367.674 101.899 364.155 101.899H339C335.611 101.899 332.744 104.635 332.744 108.153V116.493H331.962C328.443 116.493 325.576 119.36 325.576 122.878V218.783H324.794C321.274 218.783 318.407 221.649 318.407 225.168V315.339C318.407 318.857 321.274 321.724 324.794 321.724H325.576C325.576 321.985 325.576 322.245 325.576 322.506V403.947L314.497 420.886V552.495H392.698V403.947H388.397V322.375Z" fill="#F3F3F3"/>
<path d="M540.888 240.153V237.025C540.888 233.116 537.76 229.989 533.85 229.989H527.333L523.945 207.186C523.554 204.97 521.729 203.276 519.383 203.276H450.957C448.742 203.276 446.787 204.84 446.396 207.055C441.964 230.771 419.807 363.291 445.353 500.242L452.261 535.295C452.652 537.51 454.607 539.073 456.822 539.073H558.483C561.09 539.073 563.175 536.858 563.045 534.252L550.663 250.577C550.403 244.974 546.232 240.674 540.888 240.153Z" fill="#F3F3F3"/>
<path d="M610.356 485.909H592.501C589.373 485.909 586.896 488.385 586.896 491.512V557.577C586.896 560.704 589.373 563.18 592.501 563.18H610.356C613.484 563.18 615.961 560.704 615.961 557.577V491.512C616.091 488.385 613.484 485.909 610.356 485.909Z" fill="#F3F3F3"/>
<path d="M688.687 478.221H662.099C658.971 478.221 656.495 480.696 656.495 483.824V503.761H630.428C627.3 503.761 624.824 506.236 624.824 509.364V567.089C624.824 570.216 627.3 572.692 630.428 572.692H656.886C657.277 572.692 657.668 572.692 657.928 572.562C658.971 573.735 660.405 574.386 662.099 574.386H688.687C691.815 574.386 694.292 571.91 694.292 568.783V483.824C694.422 480.827 691.815 478.221 688.687 478.221Z" fill="#F3F3F3"/>
<path d="M1709.08 377.625V375.931C1709.08 375.019 1708.29 374.237 1707.38 374.237C1706.47 374.237 1705.69 375.019 1705.69 375.931V377.625H1703.73V371.37C1703.73 370.458 1702.95 369.676 1702.04 369.676H1700.73C1699.82 369.676 1699.04 370.458 1699.04 371.37V377.495H1696.43V375.801C1696.43 374.889 1695.65 374.107 1694.74 374.107H1694.35C1693.44 374.107 1692.65 374.889 1692.65 375.801V377.495H1684.57V375.149C1684.57 374.237 1683.79 373.455 1682.88 373.455H1682.36C1681.45 373.455 1680.66 374.237 1680.66 375.149V377.495H1675.06V370.458C1675.06 369.546 1674.28 368.764 1673.36 368.764H1670.37C1669.45 368.764 1668.67 369.546 1668.67 370.458V374.107H1616.15V353.128H1615.89C1616.02 352.867 1616.15 352.606 1616.15 352.216V349.609C1616.15 348.697 1615.37 347.915 1614.45 347.915H1614.06C1613.15 347.915 1612.37 348.697 1612.37 349.609V352.216C1612.37 352.476 1612.5 352.867 1612.63 353.128H1609.11V316.642C1609.11 315.6 1608.33 314.818 1607.28 314.818C1606.24 314.818 1605.46 315.6 1605.46 316.642V353.128H1600.25V349.609C1600.25 348.697 1599.46 347.915 1598.55 347.915H1597.9C1596.99 347.915 1596.21 348.697 1596.21 349.609V353.128V355.473V374.107H1544.46V370.458C1544.46 369.546 1543.68 368.764 1542.77 368.764H1538.6C1537.69 368.764 1536.9 369.546 1536.9 370.458V377.495H1532.6V375.801C1532.6 374.889 1531.82 374.107 1530.91 374.107C1530 374.107 1529.21 374.889 1529.21 375.801V377.495H1521.52V375.149C1521.52 374.237 1520.74 373.455 1519.83 373.455H1517.48C1516.57 373.455 1515.79 374.237 1515.79 375.149V377.495H1508.75V375.801C1508.75 374.889 1507.97 374.107 1507.06 374.107H1505.1C1504.19 374.107 1503.41 374.889 1503.41 375.801V377.495H1499.37V477.83H1478.25V476.266C1478.25 471.706 1474.6 468.057 1470.04 468.057H1436.55C1431.98 468.057 1428.34 471.706 1428.34 476.266V537.119C1428.34 541.68 1431.98 545.328 1436.55 545.328H1470.04C1472.78 545.328 1475.13 544.025 1476.56 542.071H1499.37V550.41H1715.33V377.625H1709.08Z" fill="#F3F3F3"/>
<path d="M1405.01 478.091V447.208C1405.01 442.647 1401.75 438.999 1397.45 438.217L1377.77 337.752C1379.33 337.1 1380.5 335.667 1380.5 333.842C1380.5 332.8 1380.11 331.888 1379.59 331.106C1381.42 330.064 1382.72 328.109 1382.72 325.763C1382.72 322.766 1380.63 320.291 1377.77 319.639V301.005C1377.77 300.224 1377.24 299.702 1376.46 299.702C1375.68 299.702 1375.16 300.224 1375.16 301.005V319.9C1372.42 320.551 1370.34 323.027 1370.34 325.894C1370.34 328.109 1371.51 329.933 1373.2 331.106C1372.55 331.888 1372.03 332.8 1372.03 333.973C1372.03 335.797 1373.07 337.23 1374.64 337.882L1356.26 438.217C1351.18 438.217 1347.14 442.257 1347.14 447.338V478.221C1342.18 479.394 1338.4 483.824 1338.4 489.166V498.548L1321.2 504.152C1320.03 504.543 1319.25 505.585 1319.25 506.888V541.549H1338.4V557.186C1338.4 563.441 1343.49 568.522 1349.74 568.522H1402.53C1408.79 568.522 1413.87 563.441 1413.87 557.186V489.166C1413.87 483.694 1410.09 479.263 1405.01 478.091Z" fill="#F3F3F3"/>
<path d="M1305.82 477.83H1298.39C1299.83 475.615 1300.74 473.009 1300.74 470.272V413.589C1300.74 409.029 1298.52 405.119 1295.13 402.513C1296.7 400.298 1297.48 397.562 1297.48 394.565V378.276C1297.48 374.498 1296.05 371.11 1293.7 368.634C1293.83 368.113 1293.96 367.591 1293.96 366.94V361.467C1293.96 360.685 1293.83 360.034 1293.57 359.512C1295.79 359.252 1297.61 357.428 1297.61 355.082C1297.61 353.779 1297.09 352.737 1296.31 351.824C1319.9 337.882 1298 315.99 1287.31 305.305C1279.36 297.357 1275.45 283.544 1273.76 275.075C1275.71 274.553 1277.15 272.859 1277.15 270.774C1277.15 268.82 1275.84 267.256 1274.15 266.605V250.056C1274.15 249.535 1273.76 249.013 1273.11 249.013H1272.33C1271.8 249.013 1271.28 249.404 1271.28 250.056V266.605C1269.59 267.126 1268.28 268.82 1268.28 270.774C1268.28 272.729 1269.59 274.423 1271.28 274.944C1267.5 292.145 1258.25 304.524 1244.43 320.291C1243.13 321.854 1241.96 323.288 1241.05 324.721C1238.96 314.296 1228.4 303.611 1221.89 297.096C1213.94 289.148 1210.03 275.335 1208.33 266.865C1210.29 266.344 1211.72 264.65 1211.72 262.565C1211.72 260.611 1210.42 259.047 1208.72 258.395V241.847C1208.72 241.325 1208.33 240.804 1207.68 240.804H1206.9C1206.38 240.804 1205.85 241.195 1205.85 241.847V258.395C1204.16 258.917 1202.86 260.611 1202.86 262.565C1202.86 264.52 1204.16 266.214 1205.85 266.735C1204.03 274.814 1201.03 281.981 1196.86 288.757H1194.39V282.241C1194.39 281.069 1193.34 280.026 1192.17 280.026H1190.87V267.647H1194.78C1196.73 267.647 1198.43 266.083 1198.43 263.999C1198.43 262.044 1196.86 260.35 1194.78 260.35H1191.78L1167.54 181.776V180.473H1167.93C1169.88 180.473 1171.58 178.909 1171.58 176.824C1171.58 174.739 1170.01 173.176 1167.93 173.176H1167.54V156.888H1169.49C1171.32 156.888 1172.88 155.324 1172.88 153.5C1172.88 152.587 1172.49 151.806 1171.97 151.284C1179.53 145.16 1170.79 136.56 1166.49 132.129C1164.28 129.914 1162.71 126.657 1161.8 123.529C1162.84 122.878 1163.63 121.835 1163.63 120.532C1163.63 119.099 1162.71 117.796 1161.41 117.275V103.202C1161.41 102.68 1161.02 102.29 1160.5 102.29H1159.98C1159.46 102.29 1159.06 102.68 1159.06 103.202V117.926C1157.76 118.447 1156.85 119.62 1156.85 121.184C1156.85 122.357 1157.5 123.399 1158.41 124.051C1156.33 129.393 1152.81 133.823 1148.12 139.296C1142.25 146.072 1145.64 149.981 1147.86 151.675C1147.2 152.327 1146.81 153.239 1146.81 154.151C1146.81 155.975 1148.38 157.539 1150.2 157.539H1152.16V173.827H1152.03C1150.07 173.827 1148.38 175.391 1148.38 177.476C1148.38 179.561 1149.94 181.124 1152.03 181.124H1152.16V182.427L1126.74 261.002H1124.53C1122.57 261.002 1120.88 262.565 1120.88 264.65C1120.88 266.605 1122.44 268.299 1124.53 268.299H1126.74V280.938C1125.96 281.329 1125.44 282.111 1125.44 283.023V290.451C1123.74 291.493 1122.44 293.448 1122.44 295.663V296.054C1122.44 297.878 1123.22 299.442 1124.4 300.484C1122.31 301.396 1120.88 303.481 1120.88 305.827V311.69C1120.88 312.081 1120.88 312.603 1121.01 312.993C1118.79 314.296 1117.23 316.642 1117.23 319.378V323.939C1117.23 325.633 1117.75 327.197 1118.79 328.369C1115.01 328.369 1112.01 331.367 1112.01 335.145C1112.01 338.142 1113.97 340.749 1116.71 341.53C1115.4 342.573 1114.62 344.006 1114.62 345.83C1114.62 346.873 1114.88 347.785 1115.4 348.567H1115.27C1113.45 348.567 1112.01 350 1112.01 351.824C1112.01 353.388 1113.19 354.691 1114.62 354.952V363.291C1108.36 364.203 1103.54 369.676 1103.54 376.192V379.189H1094.03V375.67C1095.72 375.67 1097.16 374.237 1097.16 372.543C1097.16 370.849 1095.72 369.416 1094.03 369.416H1090.12V345.961H1090.64C1092.2 345.961 1093.64 344.658 1093.64 342.964C1093.64 341.921 1093.12 341.009 1092.33 340.488H1094.16C1095.72 340.488 1097.03 339.185 1097.03 337.621C1097.03 336.318 1096.24 335.276 1095.07 334.885C1110.32 322.766 1093.64 305.175 1085.3 296.445C1078.78 289.538 1075.52 277.55 1074.22 270.253C1075.78 269.862 1076.95 268.299 1076.95 266.605C1076.95 264.911 1075.91 263.477 1074.48 262.956V248.623C1074.48 248.101 1074.09 247.841 1073.7 247.841H1073.04C1072.52 247.841 1072.26 248.232 1072.26 248.623V262.956C1070.83 263.477 1069.79 264.911 1069.79 266.605C1069.79 268.299 1070.83 269.732 1072.26 270.253C1069.13 285.108 1061.57 295.793 1050.24 309.475C1037.98 324.2 1046.85 332.148 1050.89 334.754H1050.63C1049.06 334.754 1047.76 336.058 1047.76 337.621C1047.76 339.185 1049.06 340.488 1050.63 340.488H1053.36C1052.58 341.009 1052.06 341.921 1052.06 342.964C1052.06 344.527 1053.36 345.961 1055.06 345.961H1055.71V369.416H1047.37C1045.67 369.416 1044.24 370.849 1044.24 372.543C1044.24 373.846 1045.02 374.889 1046.06 375.41V379.319C1040.59 379.58 1036.29 384.01 1036.29 389.483V414.371V421.929V504.021H1109.15C1111.36 505.715 1114.1 506.758 1117.1 506.758H1198.95V556.143H1313.64V495.551C1315.34 493.727 1316.38 491.251 1316.38 488.645C1315.86 482.391 1311.43 477.83 1305.82 477.83ZM1237.14 339.055C1238.57 347.394 1247.56 351.043 1247.56 351.043C1245.74 351.564 1244.43 353.258 1244.43 355.212C1244.43 357.297 1246 359.122 1247.95 359.512C1247.69 360.164 1247.43 360.816 1247.43 361.597V364.594C1241.57 366.028 1237 371.11 1236.61 377.364H1232.96V354.04C1233.88 353.518 1234.4 352.476 1234.4 351.303C1234.4 350.261 1233.88 349.349 1233.09 348.697C1233.88 347.785 1234.4 346.612 1234.4 345.309C1234.4 344.136 1234.01 343.094 1233.36 342.182C1234.92 341.139 1236.09 340.097 1237.14 339.055Z" fill="#F3F3F3"/>
<path d="M1918.13 388.831V391.568C1919.7 391.568 1921 392.871 1921.13 394.435V407.204V416.196V449.033V454.636V657H1571.44H1222.15H690.773H0V543.634H10.4268V539.204C10.4268 537.249 11.9908 535.555 14.0761 535.555H21.1142H21.6355V531.386C21.6355 529.431 23.1995 527.737 25.2849 527.737H51.7428C53.6978 527.737 55.3922 529.301 55.3922 531.386V535.555H77.6794V518.876C77.6794 516.922 79.2434 515.228 81.3287 515.228H105.441C107.396 515.228 109.09 516.791 109.09 518.876V535.555H113.782V531.386C113.782 529.431 115.346 527.737 117.431 527.737H144.02V401.341V378.146C144.02 376.583 145.193 375.41 146.757 375.28L160.702 374.628C161.875 374.628 162.918 373.716 163.309 372.543C164.743 367.201 170.347 366.549 170.347 366.549C204.234 366.158 231.995 384.271 235.905 388.441C241.119 394.044 244.117 401.471 244.117 401.471V532.949C244.117 531.907 245.029 531.125 246.072 531.125H264.318C265.361 531.125 266.273 531.907 266.273 532.949V533.992C266.273 535.034 267.186 535.816 268.228 535.816H281.783C282.826 535.816 283.738 535.034 283.738 533.992V526.304C283.738 525.261 284.651 524.479 285.693 524.479H302.115C303.158 524.479 304.07 525.261 304.07 526.304V533.992C304.07 535.034 304.983 535.816 306.025 535.816H320.232C321.274 535.816 322.187 535.034 322.187 533.992C322.187 532.949 323.099 532.167 324.142 532.167H345.908C346.69 532.167 347.472 531.646 347.732 530.864L352.424 516.27C352.685 515.488 353.467 514.967 354.249 514.967H368.325V413.85C368.325 410.592 369.629 407.595 371.844 405.38L379.664 397.562C380.446 396.78 381.359 396.389 382.401 396.389H414.073C416.158 396.389 417.852 398.213 417.852 400.298C417.722 402.383 419.547 404.077 421.632 404.077H446.396C446.917 404.077 447.438 403.947 447.829 403.817L460.472 398.865C460.993 398.735 461.384 398.604 461.905 398.604H470.377C471.159 398.604 471.941 398.865 472.593 399.256L482.238 405.901C484.975 407.856 486.799 410.853 487.321 414.111L503.091 527.476H523.293V514.185H550.272V529.952H577.382V535.034H591.197V543.765H594.977V505.846H620.913V535.034H628.212V510.667H649.717V535.034H655.973V543.765H662.099V530.734H674.22V518.355H690.251V478.091V470.142C690.251 468.057 691.815 466.233 693.901 465.972V460.499C692.728 460.499 691.815 459.587 691.815 458.415C691.815 457.242 692.597 456.33 693.77 456.33L698.202 436.914C697.55 436.654 697.159 436.002 697.159 435.22C697.159 434.178 698.072 433.266 699.114 433.266H698.984V421.799C698.332 421.408 697.811 420.756 697.811 419.974C697.811 418.932 698.723 418.02 699.766 418.02H703.676V413.068C703.676 411.374 704.719 409.811 706.022 409.029V406.423C706.022 404.989 707.195 403.947 708.498 403.947C709.932 403.947 710.975 405.12 710.975 406.423V409.029C712.408 409.811 713.321 411.374 713.321 413.068V417.629H717.231C718.273 417.629 719.186 418.541 719.186 419.583C719.186 420.496 718.664 421.147 718.013 421.408V432.875C719.055 432.875 719.968 433.787 719.968 434.829C719.968 435.481 719.707 436.002 719.186 436.393L723.747 456.069C724.79 456.33 725.442 457.111 725.442 458.154C725.442 459.196 724.529 460.109 723.487 460.239V465.712C725.572 465.972 727.266 467.666 727.266 469.881V477.83H732.74V468.448C732.74 467.666 733.522 467.275 734.174 467.666L736.26 468.969C736.651 469.23 737.042 469.23 737.302 468.969L739.388 467.666C740.039 467.275 740.821 467.797 740.821 468.448V477.83H742.776V468.448C742.776 467.666 743.558 467.275 744.21 467.666L746.295 468.969C746.686 469.23 747.077 469.23 747.338 468.969L749.423 467.666C750.075 467.275 750.857 467.797 750.857 468.448V477.83H752.812V468.448C752.812 467.666 753.594 467.275 754.246 467.666L756.331 468.969C756.722 469.23 757.113 469.23 757.374 468.969L759.459 467.666C760.111 467.275 760.893 467.797 760.893 468.448V477.83H762.848V468.448C762.848 467.666 763.63 467.275 764.281 467.666L766.367 468.969C766.758 469.23 767.149 469.23 767.409 468.969L769.495 467.666C770.146 467.275 770.928 467.797 770.928 468.448V477.83H772.883V468.448C772.883 467.666 773.665 467.275 774.317 467.666L776.403 468.969C776.794 469.23 777.185 469.23 777.445 468.969L779.531 467.666C780.182 467.275 780.964 467.797 780.964 468.448V477.83H782.919V468.448C782.919 467.666 783.701 467.275 784.353 467.666L786.438 468.969C786.829 469.23 787.22 469.23 787.481 468.969L789.566 467.666C790.218 467.275 791 467.797 791 468.448V477.83H792.955V468.448C792.955 467.666 793.737 467.275 794.389 467.666L796.474 468.969C796.865 469.23 797.256 469.23 797.517 468.969L799.602 467.666C800.254 467.275 801.036 467.797 801.036 468.448V477.83H802.991V468.448C802.991 467.666 803.773 467.275 804.424 467.666L806.51 468.969C806.901 469.23 807.292 469.23 807.552 468.969L809.638 467.666C810.289 467.275 811.071 467.797 811.071 468.448V477.83H813.026V468.448C813.026 467.666 813.809 467.275 814.46 467.666L816.546 468.969C816.937 469.23 817.328 469.23 817.588 468.969L819.674 467.666C820.325 467.275 821.107 467.797 821.107 468.448V477.83H822.802V452.29H823.062C822.28 452.29 821.629 451.639 821.629 450.857C821.629 450.075 822.28 449.423 823.062 449.423L823.584 442.908H824.887L825.669 449.423H828.145V440.432C828.145 439.781 828.667 439.26 829.318 439.26H829.84L830.231 433.917C830.231 432.875 831.143 432.093 832.186 432.093C833.228 432.093 834.01 432.875 834.141 433.917L833.098 439.911H833.619C834.271 439.911 834.792 440.432 834.792 441.084V450.075H837.529L838.051 443.56H839.354L840.136 450.075C840.918 450.075 841.57 450.727 841.57 451.508C841.57 452.29 840.918 452.942 840.136 452.942H840.006V478.482H841.961V469.1C841.961 468.318 842.743 467.927 843.394 468.318L845.48 469.621C845.871 469.881 846.262 469.881 846.522 469.621L848.608 468.318C849.259 467.927 850.042 468.448 850.042 469.1V478.482H851.997V469.1C851.997 468.318 852.779 467.927 853.43 468.318L855.516 469.621C855.907 469.881 856.298 469.881 856.558 469.621L858.644 468.318C859.295 467.927 860.077 468.448 860.077 469.1V478.482H862.032V469.1C862.032 468.318 862.814 467.927 863.466 468.318L865.551 469.621C865.942 469.881 866.333 469.881 866.594 469.621L868.679 468.318C869.331 467.927 870.113 468.448 870.113 469.1V478.482H872.068V469.1C872.068 468.318 872.85 467.927 873.502 468.318L875.587 469.621C875.978 469.881 876.369 469.881 876.63 469.621L878.715 468.318C879.367 467.927 880.149 468.448 880.149 469.1V478.482H882.104V469.1C882.104 468.318 882.886 467.927 883.537 468.318L885.623 469.621C886.014 469.881 886.405 469.881 886.665 469.621L888.751 468.318C889.403 467.927 890.185 468.448 890.185 469.1V478.482H892.14V469.1C892.14 468.318 892.922 467.927 893.573 468.318L895.659 469.621C896.05 469.881 896.441 469.881 896.701 469.621L898.787 468.318C899.438 467.927 900.22 468.448 900.22 469.1V478.482H908.171V446.817H906.607C905.434 446.817 904.521 445.905 904.521 444.732C904.521 443.56 905.434 442.648 906.607 442.648H908.171V436.914H906.346C905.564 436.914 904.912 436.263 904.912 435.481C904.912 434.699 905.564 434.047 906.346 434.047H908.171V403.035H905.825C905.043 403.035 904.391 402.383 904.391 401.601C904.391 400.82 905.043 400.168 905.825 400.168H907.78V363.813H906.607C905.173 363.813 904.13 362.64 904.13 361.337C904.13 360.034 905.043 358.991 906.346 358.861C905.825 358.601 905.564 358.079 905.564 357.428V356.646C905.564 355.604 906.346 354.822 907.389 354.822H909.604V353.128H907.519C906.476 353.128 905.694 352.346 905.694 351.303C905.694 350.261 906.476 349.479 907.519 349.479H908.953V346.612H907.649C906.607 346.612 905.694 345.7 905.694 344.658C905.694 344.267 905.825 344.006 905.955 343.746C904.391 343.615 903.088 342.312 903.088 340.618V335.406C903.088 333.843 904.261 332.539 905.694 332.279V329.673V329.282V323.027C905.694 322.376 906.085 321.854 906.607 321.464L909.083 303.09C909.213 302.309 909.735 301.787 910.517 301.787C911.168 301.787 911.82 302.309 911.95 303.09L914.427 321.464C914.948 321.724 915.339 322.376 915.339 323.027V329.282V329.673V332.149H916.773C917.294 332.149 917.815 332.279 918.337 332.539C918.988 331.497 920.161 330.715 921.465 330.715H924.071V312.733H927.982V280.548H929.415V280.157V274.814V274.554V265.172C929.415 264.65 929.937 264.129 930.458 264.129C930.979 264.129 931.501 264.65 931.501 265.172V272.078H931.892H933.716V256.962H933.456C932.674 256.962 932.152 256.311 932.152 255.659V252.532C932.152 251.75 932.804 251.229 933.456 251.229H933.716V249.144H931.631C930.458 249.144 929.546 248.232 929.546 247.059V242.107C929.546 240.935 930.458 240.023 931.631 240.023H932.674V219.174H932.152C930.979 219.174 930.067 218.262 930.067 217.089V216.698C930.067 215.525 930.979 214.613 932.152 214.613H933.065V213.701V209.271V202.495C933.065 201.973 933.456 201.582 933.977 201.582C934.498 201.582 934.889 201.973 934.889 202.495V206.534C935.28 206.404 935.671 206.273 936.193 206.273H936.714V202.234C936.714 201.061 937.235 200.149 938.017 199.628L938.93 190.507H940.624L941.536 199.107H947.141L960.435 109.457H962.52L975.814 199.107H981.419L982.331 190.507H984.025L984.938 199.628C985.72 200.279 986.241 201.192 986.241 202.234V206.273H986.762C987.284 206.273 987.675 206.404 988.066 206.534V202.495C988.066 201.973 988.457 201.582 988.978 201.582C989.499 201.582 989.89 201.973 989.89 202.495V209.271V213.701V214.483H990.803C991.976 214.483 992.888 215.395 992.888 216.568V216.959C992.888 218.131 991.976 219.043 990.803 219.043H990.281V239.892H991.324C992.497 239.892 993.409 240.804 993.409 241.977V246.929C993.409 248.102 992.497 249.014 991.324 249.014H989.239V251.099H989.499C990.281 251.099 990.803 251.75 990.803 252.402V255.529C990.803 256.311 990.151 256.832 989.499 256.832H989.239V271.947H990.672H991.063V265.041C991.063 264.52 991.585 263.999 992.106 263.999C992.628 263.999 993.149 264.52 993.149 265.041V274.423V274.684V280.026V280.417H994.582V312.733H998.492V330.455H1001.62C1003.05 330.455 1004.36 331.367 1004.88 332.67C1005.53 332.149 1006.18 331.888 1006.96 331.888H1007.75V329.412V329.021V322.767C1007.75 322.115 1008.14 321.594 1008.66 321.203L1011.13 302.83C1011.27 302.048 1011.92 301.527 1012.57 301.527C1013.22 301.527 1013.87 302.048 1014 302.83L1016.48 321.203C1017 321.464 1017.39 322.115 1017.39 322.767V329.021V329.412V332.018C1018.95 332.279 1020 333.452 1020 335.015V340.358C1020 342.052 1018.69 343.355 1017.13 343.485C1017.26 343.746 1017.39 344.137 1017.39 344.397C1017.39 345.44 1016.48 346.352 1015.44 346.352H1014.13V349.219H1015.57C1016.61 349.219 1017.39 350 1017.39 351.043C1017.39 352.085 1016.61 352.867 1015.57 352.867H1013.48V354.561H1015.7C1016.74 354.561 1017.52 355.343 1017.52 356.385V357.167C1017.52 357.688 1017.26 358.34 1016.74 358.601C1017.91 358.731 1018.95 359.773 1018.95 361.076C1018.95 362.51 1017.78 363.552 1016.48 363.552H1015.31V399.777H1017.65C1018.43 399.777 1019.09 400.429 1019.09 401.21C1019.09 401.992 1018.43 402.644 1017.65 402.644H1015.31V433.656H1017.13C1017.91 433.656 1018.56 434.308 1018.56 435.09C1018.56 435.872 1017.91 436.523 1017.13 436.523H1015.31V442.257H1016.87C1018.04 442.257 1018.95 443.169 1018.95 444.342C1018.95 445.514 1018.04 446.426 1016.87 446.426H1015.31V478.091H1016.48V468.709C1016.48 467.927 1017.26 467.536 1017.91 467.927L1020 469.23C1020.39 469.491 1020.78 469.491 1021.04 469.23L1023.13 467.927C1023.78 467.536 1024.56 468.057 1024.56 468.709V478.091H1026.51V468.709C1026.51 467.927 1027.3 467.536 1027.95 467.927L1030.03 469.23C1030.42 469.491 1030.82 469.491 1031.08 469.23L1033.16 467.927C1033.81 467.536 1034.6 468.057 1034.6 468.709V478.091H1036.55V468.709C1036.55 467.927 1037.33 467.536 1037.98 467.927L1040.07 469.23C1040.46 469.491 1040.85 469.491 1041.11 469.23L1043.2 467.927C1043.85 467.536 1044.63 468.057 1044.63 468.709V478.091H1046.59V468.709C1046.59 467.927 1047.37 467.536 1048.02 467.927L1050.1 469.23C1050.5 469.491 1050.89 469.491 1051.15 469.23L1053.23 467.927C1053.88 467.536 1054.67 468.057 1054.67 468.709V478.091H1056.62V468.709C1056.62 467.927 1057.4 467.536 1058.06 467.927L1060.14 469.23C1060.53 469.491 1060.92 469.491 1061.18 469.23L1063.27 467.927C1063.92 467.536 1064.7 468.057 1064.7 468.709V478.091H1066.66V468.709C1066.66 467.927 1067.44 467.536 1068.09 467.927L1070.18 469.23C1070.57 469.491 1070.96 469.491 1071.22 469.23L1073.3 467.927C1073.96 467.536 1074.74 468.057 1074.74 468.709V478.091H1076.56V452.551H1076.82C1076.04 452.551 1075.39 451.899 1075.39 451.117C1075.39 450.336 1076.04 449.684 1076.82 449.684L1077.34 443.169H1078.65L1079.43 449.684H1081.91V440.693C1081.91 440.041 1082.43 439.52 1083.08 439.52H1083.6L1083.99 434.178C1083.99 433.135 1084.9 432.353 1085.95 432.353C1086.99 432.353 1087.77 433.135 1087.9 434.178L1088.29 439.52H1086.47C1087.12 439.52 1087.64 440.041 1087.64 440.693V449.684H1090.38L1090.9 443.169H1092.2L1092.98 449.684C1093.77 449.684 1094.42 450.336 1094.42 451.117C1094.42 451.899 1093.77 452.551 1092.98 452.551H1092.85V478.091H1094.81V468.709C1094.81 467.927 1095.59 467.536 1096.24 467.927L1098.33 469.23C1098.72 469.491 1099.11 469.491 1099.37 469.23L1101.46 467.927C1102.11 467.536 1102.89 468.057 1102.89 468.709V478.091H1104.85V468.709C1104.85 467.927 1105.63 467.536 1106.28 467.927L1108.36 469.23C1108.76 469.491 1109.15 469.491 1109.41 469.23L1111.49 467.927C1112.14 467.536 1112.93 468.057 1112.93 468.709V478.091H1114.88V468.709C1114.88 467.927 1115.66 467.536 1116.31 467.927L1118.4 469.23C1118.79 469.491 1119.18 469.491 1119.44 469.23L1121.53 467.927C1122.18 467.536 1122.96 468.057 1122.96 468.709V478.091H1124.92V468.709C1124.92 467.927 1125.7 467.536 1126.35 467.927L1128.44 469.23C1128.83 469.491 1129.22 469.491 1129.48 469.23L1131.56 467.927C1132.22 467.536 1133 468.057 1133 468.709V478.091H1134.95V468.709C1134.95 467.927 1135.73 467.536 1136.39 467.927L1138.47 469.23C1138.86 469.491 1139.25 469.491 1139.51 469.23L1141.6 467.927C1142.25 467.536 1143.03 468.057 1143.03 468.709V478.091H1144.99V468.709C1144.99 467.927 1145.77 467.536 1146.42 467.927L1148.51 469.23C1148.9 469.491 1149.29 469.491 1149.55 469.23L1151.64 467.927C1152.29 467.536 1153.07 468.057 1153.07 468.709V478.091H1155.02V468.709C1155.02 467.927 1155.81 467.536 1156.46 467.927L1158.54 469.23C1158.93 469.491 1159.33 469.491 1159.59 469.23L1161.67 467.927C1162.32 467.536 1163.1 468.057 1163.1 468.709V478.091H1165.06V468.709C1165.06 467.927 1165.84 467.536 1166.49 467.927L1168.58 469.23C1168.97 469.491 1169.36 469.491 1169.62 469.23L1171.71 467.927C1172.36 467.536 1173.14 468.057 1173.14 468.709V478.091H1175.1V468.709C1175.1 467.927 1175.88 467.536 1176.53 467.927L1178.61 469.23C1179.01 469.491 1179.4 469.491 1179.66 469.23L1181.74 467.927C1182.39 467.536 1183.18 468.057 1183.18 468.709V478.091H1191.13V470.142C1191.13 468.057 1192.69 466.233 1194.78 465.972V460.499C1193.6 460.499 1192.69 459.587 1192.69 458.415C1192.69 457.242 1193.47 456.33 1194.65 456.33L1199.08 436.914C1198.43 436.654 1198.03 436.002 1198.03 435.22C1198.03 434.178 1198.95 433.266 1199.99 433.266H1199.86V421.799C1199.21 421.408 1198.69 420.756 1198.69 419.974C1198.69 418.932 1199.6 418.02 1200.64 418.02H1204.55V413.068C1204.55 411.374 1205.59 409.811 1206.9 409.029V406.423C1206.9 404.989 1208.07 403.947 1209.37 403.947C1210.81 403.947 1211.85 405.12 1211.85 406.423V409.029C1213.28 409.811 1214.2 411.374 1214.2 413.068V417.629H1218.11C1219.15 417.629 1220.06 418.541 1220.06 419.583C1220.06 420.496 1219.54 421.147 1218.89 421.408V432.875C1219.93 432.875 1220.84 433.787 1220.84 434.829C1220.84 435.481 1220.58 436.002 1220.06 436.393L1224.62 456.069C1225.67 456.33 1226.32 457.111 1226.32 458.154C1226.32 459.196 1225.4 460.109 1224.36 460.239V465.712C1226.45 465.972 1228.14 467.666 1228.14 469.881V545.328H1235.05V530.082C1235.05 528.389 1236.35 527.085 1238.05 527.085H1252.38V518.876C1252.38 517.182 1253.69 515.879 1255.38 515.879H1268.94V515.488C1268.94 509.364 1273.89 504.412 1280.01 504.412H1281.19V502.067C1281.19 498.549 1284.06 495.682 1287.57 495.682H1299.57C1303.08 495.682 1305.95 498.549 1305.95 502.067V504.412C1311.82 504.803 1316.38 509.625 1316.38 515.488V515.879H1333.32C1335.02 515.879 1336.32 517.182 1336.32 518.876V527.085H1350.66C1352.35 527.085 1353.65 528.389 1353.65 530.082V542.071H1376.2V535.946C1376.2 534.252 1377.51 532.949 1379.2 532.949H1385.72V506.106C1385.72 504.412 1387.02 503.109 1388.71 503.109H1439.54C1441.24 503.109 1442.54 504.412 1442.54 506.106V529.561H1452.58V525.261C1452.58 523.567 1453.88 522.264 1455.58 522.264H1514.62V510.928C1514.62 509.234 1515.92 507.931 1517.61 507.931H1538.08C1539.77 507.931 1541.07 509.234 1541.07 510.928V539.204H1550.59V517.052C1550.59 515.358 1551.89 514.055 1553.59 514.055H1568.31C1568.97 514.055 1569.49 514.185 1569.88 514.446V454.766V449.033V434.438C1569.88 433.526 1570.66 432.875 1571.44 432.875C1572.36 432.875 1573.01 433.656 1573.01 434.438V449.033L1575.35 440.302V411.635H1575.61C1574.44 411.635 1573.53 410.723 1573.53 409.55C1573.53 408.377 1574.44 407.465 1575.61 407.465L1576.4 395.086H1578.35L1579.52 407.465H1583.04V394.174C1583.04 393.262 1583.82 392.48 1584.74 392.48H1585V387.528H1584.35C1583.69 387.528 1583.17 387.007 1583.17 386.356C1583.17 385.704 1583.69 385.183 1584.35 385.183H1593.73C1594.38 385.183 1594.9 385.704 1594.9 386.356C1594.9 387.007 1594.38 387.528 1593.73 387.528H1593.08V392.48H1593.34C1594.25 392.48 1595.03 393.262 1595.03 394.174V407.465H1599.07L1599.86 395.086H1601.81L1602.98 407.465C1604.16 407.465 1605.07 408.377 1605.07 409.55C1605.07 410.723 1604.16 411.635 1602.98 411.635H1602.85V440.302L1605.2 449.033H1605.72V434.438C1605.72 433.526 1606.5 432.875 1607.28 432.875C1608.2 432.875 1608.85 433.656 1608.85 434.438V449.033H1677.67V439.39H1676.75C1675.97 439.39 1675.45 438.869 1675.45 438.087C1675.45 437.305 1675.97 436.784 1676.75 436.784H1677.67H1679.1C1679.23 435.741 1680.01 435.09 1680.92 434.96V431.832C1680.92 430.92 1681.71 430.138 1682.62 430.138C1683.53 430.138 1684.31 430.92 1684.31 431.832V434.96C1685.36 434.96 1686.14 435.741 1686.27 436.784H1687.57H1688.48C1689.27 436.784 1689.79 437.305 1689.79 438.087C1689.79 438.869 1689.27 439.39 1688.48 439.39H1687.57V449.033H1700.47C1700.08 448.381 1699.82 447.729 1699.82 446.948V386.747C1699.82 384.662 1701.52 383.098 1703.47 383.098H1710.77V381.534C1710.77 379.84 1711.81 378.407 1713.38 377.886V372.413C1713.38 371.761 1713.9 371.11 1714.68 371.11H1715.2V367.983H1713.38V364.464C1713.38 362.77 1714.81 361.337 1716.51 361.337C1718.2 361.337 1719.63 362.77 1719.63 364.464V366.158V367.983V372.413V373.586V377.886C1721.07 378.407 1722.24 379.84 1722.24 381.534V383.098H1724.06V322.376H1721.46C1720.68 322.376 1720.02 321.724 1720.02 320.942C1720.02 320.16 1720.68 319.509 1721.46 319.509H1723.93V319.248V310.388C1723.93 309.475 1724.59 308.824 1725.5 308.824C1726.41 308.824 1727.06 309.475 1727.06 310.388V319.248V319.509H1731.1V308.954L1736.32 304.915H1736.19V283.805C1735.27 283.414 1734.49 282.502 1734.49 281.46C1734.49 280.026 1735.66 278.984 1736.97 278.984H1739.57L1742.57 275.205V267.778H1741.79C1740.75 267.778 1739.84 266.866 1739.84 265.823V265.302C1739.84 264.259 1740.75 263.347 1741.79 263.347H1742.57L1744.79 259.568H1747.52V255.529H1745.18V250.968H1744.79C1743.61 250.968 1742.7 250.056 1742.7 248.883C1742.7 247.711 1743.61 246.798 1744.79 246.798H1747.66V243.932H1747.92C1747 243.932 1746.22 243.15 1746.22 242.238C1746.22 241.456 1746.74 240.804 1747.39 240.544C1746.61 239.892 1746.22 239.11 1746.22 238.068V237.547C1746.22 235.723 1747.66 234.289 1749.48 234.289H1748.57L1749.87 200.149H1753L1754.3 234.289H1753.39C1755.21 234.289 1756.65 235.723 1756.65 237.547V238.068C1756.65 239.11 1756.13 239.892 1755.48 240.544C1756.13 240.804 1756.65 241.456 1756.65 242.238C1756.65 243.15 1755.87 243.932 1754.95 243.932H1755.21V246.798H1758.08C1759.25 246.798 1760.17 247.711 1760.17 248.883C1760.17 250.056 1759.25 250.968 1758.08 250.968H1757.69V255.529H1755.34V259.568H1759.65L1761.86 263.347H1762.64C1763.69 263.347 1764.6 264.259 1764.6 265.302V265.823C1764.6 266.866 1763.69 267.778 1762.64 267.778H1761.86V275.205L1764.86 278.984H1767.47C1768.9 278.984 1769.94 280.157 1769.94 281.46C1769.94 282.632 1769.29 283.545 1768.25 283.805V305.045H1768.38L1773.59 309.084V319.639H1775.55V319.379V310.518C1775.55 309.606 1776.2 308.954 1777.11 308.954C1778.02 308.954 1778.67 309.606 1778.67 310.518V319.379V319.639H1781.15C1781.93 319.639 1782.58 320.291 1782.58 321.073C1782.58 321.854 1781.93 322.506 1781.15 322.506H1778.67V383.228H1781.02V381.534C1781.02 379.189 1782.72 377.104 1784.93 376.713V364.204C1784.93 363.943 1785.06 363.552 1785.19 363.292L1787.8 358.731C1788.58 357.428 1790.27 358.079 1790.27 359.643V376.583C1792.49 377.104 1794.18 379.059 1794.18 381.404V381.925H1799.4V376.061C1799.4 375.149 1800.05 374.368 1800.96 374.107V372.152C1800.96 371.37 1801.48 370.849 1802.27 370.849C1803.05 370.849 1803.57 371.501 1803.57 372.152V374.107C1804.22 374.368 1804.74 375.149 1804.74 375.931V381.795H1805.39C1806.44 381.795 1807.35 382.707 1807.35 383.75C1807.35 384.662 1806.83 385.313 1806.18 385.574C1806.31 385.965 1806.31 386.225 1806.31 386.616V446.948C1806.31 447.729 1806.04 448.511 1805.65 449.033H1817.25V439.39H1816.34C1815.56 439.39 1815.04 438.869 1815.04 438.087C1815.04 437.305 1815.56 436.784 1816.34 436.784H1817.25H1818.69C1818.82 435.741 1819.6 435.09 1820.51 434.96V431.832C1820.51 430.92 1821.29 430.138 1822.21 430.138C1823.12 430.138 1823.9 430.92 1823.9 431.832V434.96C1824.94 434.96 1825.73 435.741 1825.86 436.784H1827.16H1828.07C1828.85 436.784 1829.37 437.305 1829.37 438.087C1829.37 438.869 1828.85 439.39 1828.07 439.39H1827.16V449.033H1895.32V443.429V433.396C1895.32 432.875 1895.85 432.353 1896.37 432.353C1896.89 432.353 1897.41 432.744 1897.41 433.396V443.429H1901.32V422.711V407.204V397.953C1901.32 396.78 1902.23 395.868 1903.4 395.868C1904.58 395.868 1905.49 396.78 1905.49 397.953V407.204H1908.49V394.435C1908.49 393.001 1909.53 391.828 1910.83 391.568V388.831C1910.83 386.747 1912.53 385.183 1914.48 385.183C1916.57 385.183 1918.13 386.877 1918.13 388.831Z" fill="#ECECEC"/>
<circle cx="1751.5" cy="199.5" r="2.5" fill="#EDEDED"/>
<circle cx="961.5" cy="108.5" r="2.5" fill="#EDEDED"/>
</svg>
