<svg width="320" height="346" viewBox="0 0 320 346" fill="none" xmlns="http://www.w3.org/2000/svg">
<path d="M134.122 226.978H125.617V222.315C125.617 221.972 125.343 221.629 124.931 221.629C124.52 221.629 124.245 221.903 124.245 222.315V226.978H122.873V222.315C122.873 221.972 122.599 221.629 122.188 221.629C121.776 221.629 121.502 221.903 121.502 222.315V226.978H119.375C119.101 225.606 117.866 224.578 116.426 224.578H116.289C114.849 224.578 113.614 225.606 113.34 226.978H110.459V222.315C110.459 221.972 110.185 221.629 109.773 221.629C109.361 221.629 109.087 221.903 109.087 222.315V226.978H107.715V222.315C107.715 221.972 107.441 221.629 107.029 221.629C106.618 221.629 106.344 221.903 106.344 222.315V226.978H106.138C105.52 226.978 104.972 227.526 104.972 228.143V261.813C104.972 262.43 105.52 262.979 106.138 262.979H134.122C134.739 262.979 135.288 262.43 135.288 261.813V228.143C135.288 227.526 134.739 226.978 134.122 226.978Z" fill="#F6F6F6"/>
<path d="M92.3514 182.2H92.0771C92.0771 182.132 92.1457 182.063 92.1457 181.994V180.417C92.1457 179.937 91.7342 179.526 91.254 179.526H91.1169V171.708H91.254C91.6656 171.708 92.0085 171.365 92.0085 170.954C92.0085 170.543 91.6656 170.2 91.254 170.2H91.1169C90.9797 169.857 90.7053 169.583 90.2938 169.583C89.8822 169.583 89.6079 169.857 89.4707 170.2H89.3336C88.922 170.2 88.5791 170.543 88.5791 170.954C88.5791 171.365 88.922 171.708 89.3336 171.708H89.4707V179.526H89.3336C88.8534 179.526 88.4419 179.937 88.4419 180.417V181.994C88.4419 182.063 88.4419 182.132 88.5105 182.2H85.3554V181.446C85.3554 179.32 83.6407 177.606 81.5144 177.606H81.3086C79.1824 177.606 77.4677 179.32 77.4677 181.446V182.2H74.3126C74.3126 182.132 74.3812 182.063 74.3812 181.994V180.417C74.3812 179.937 73.9696 179.526 73.4895 179.526H73.3524V171.708H73.4895C73.901 171.708 74.244 171.365 74.244 170.954C74.244 170.543 73.901 170.2 73.4895 170.2H73.3524C73.2152 169.857 72.9408 169.583 72.5293 169.583C72.1178 169.583 71.8434 169.857 71.7062 170.2H71.569C71.1575 170.2 70.8146 170.543 70.8146 170.954C70.8146 171.365 71.1575 171.708 71.569 171.708H71.7062V179.526H71.569C71.0889 179.526 70.6774 179.937 70.6774 180.417V181.994C70.6774 182.063 70.6774 182.132 70.7459 182.2H70.4716C69.9229 182.2 69.4428 182.68 69.4428 183.229C69.4428 183.777 69.9229 184.257 70.4716 184.257H70.5402V198.589H63.8871V160.462C63.9556 160.325 63.9557 160.188 63.9557 160.051V157.239C63.9557 156.416 63.3383 155.799 62.5153 155.731V145.993C62.5153 145.65 62.3095 145.307 62.0352 145.17V142.222C62.0352 141.879 61.7608 141.673 61.4865 141.673C61.1435 141.673 60.9377 141.947 60.9377 142.222V145.17C60.6634 145.376 60.4576 145.65 60.4576 145.993V155.662C59.7031 155.731 59.0173 156.348 59.0173 157.171V158.885H54.7647C54.7647 158.816 54.7647 158.816 54.7647 158.748V158.131C54.7647 156.622 53.5301 155.388 52.0212 155.388H51.4039V128.37V128.027V122.472C51.4039 121.992 51.061 121.65 50.5808 121.65C50.1007 121.65 49.7578 121.992 49.7578 122.472V128.027H49.2091C48.9347 126.313 47.5629 124.941 45.8482 124.667V123.021C45.8482 121.581 44.9566 120.415 43.722 119.867V119.25C43.722 118.427 43.1732 117.672 42.4187 117.398L41.8015 90.6543C41.8015 90.5858 41.8014 90.4486 41.7329 90.38C42.4187 90.0372 42.8989 89.2829 42.8989 88.46C42.8989 87.2257 41.9386 86.2656 40.704 86.2656C39.4694 86.2656 38.5092 87.2257 38.5092 88.46C38.5092 89.2829 38.9893 89.9686 39.6752 90.38C39.6752 90.4486 39.6066 90.5858 39.6066 90.6543L38.9893 117.398C38.2348 117.672 37.6861 118.427 37.6861 119.25V119.867C36.4515 120.347 35.5599 121.581 35.5599 123.021V124.667C33.8451 124.941 32.4734 126.313 32.199 128.027H31.6503V122.472C31.6503 121.992 31.3074 121.65 30.8272 121.65C30.3471 121.65 30.0042 121.992 30.0042 122.472V128.027V128.37V155.388H29.3869C27.8779 155.388 26.6433 156.622 26.6433 158.131V158.748C26.6433 158.816 26.6433 158.816 26.6433 158.885H22.3908V157.171C22.3908 156.348 21.7735 155.731 20.9504 155.662V145.925C20.9504 145.582 20.7447 145.239 20.4703 145.102V142.153C20.4703 141.81 20.196 141.605 19.9216 141.605C19.5787 141.605 19.3729 141.879 19.3729 142.153V145.102C19.0985 145.307 18.8928 145.582 18.8928 145.925V155.662C18.1383 155.731 17.4524 156.348 17.4524 157.171V159.982C17.4524 160.119 17.4524 160.257 17.521 160.394V198.521H10.8679V184.189H10.9365C11.4852 184.189 11.9653 183.709 11.9653 183.16C11.9653 182.612 11.4852 182.132 10.9365 182.132H10.6621C10.6621 182.063 10.7307 181.994 10.7307 181.926V180.349C10.7307 179.869 10.3191 179.457 9.83903 179.457H9.70184V171.64H9.83903C10.2506 171.64 10.5935 171.297 10.5935 170.885C10.5935 170.474 10.2506 170.131 9.83903 170.131H9.70184C9.56466 169.788 9.29034 169.514 8.87881 169.514C8.46727 169.514 8.19291 169.788 8.05573 170.131H7.91855C7.50701 170.131 7.16409 170.474 7.16409 170.885C7.16409 171.297 7.50701 171.64 7.91855 171.64H8.05573V179.457H7.91855C7.43842 179.457 7.0269 179.869 7.0269 180.349V181.926C7.0269 181.994 7.02688 182.063 7.09547 182.132H3.9404V181.377C3.9404 179.251 2.22567 177.537 0.0994167 177.537H-0.106361C-2.23262 177.537 -3.94732 179.251 -3.94732 181.377V182.132H-7.10242C-7.10242 182.063 -7.03382 181.994 -7.03382 181.926V180.349C-7.03382 179.869 -7.44537 179.457 -7.92549 179.457H-8.06266V171.64H-7.92549C-7.51396 171.64 -7.17101 171.297 -7.17101 170.885C-7.17101 170.474 -7.51396 170.131 -7.92549 170.131H-7.8569C-7.99407 169.788 -8.26844 169.514 -8.67997 169.514C-9.09151 169.514 -9.36585 169.788 -9.50303 170.131H-9.64021C-10.0517 170.131 -10.3947 170.474 -10.3947 170.885C-10.3947 171.297 -10.0517 171.64 -9.64021 171.64H-9.50303V179.457H-9.64021C-10.1203 179.457 -10.5319 179.869 -10.5319 180.349V181.926C-10.5319 181.994 -10.5319 182.063 -10.4633 182.132H-10.7376C-11.2863 182.132 -11.7665 182.612 -11.7665 183.16C-11.7665 183.709 -11.2863 184.189 -10.7376 184.189H-10.669V242.956C-10.8748 242.888 -11.1492 242.888 -11.3549 242.888H-18.7625C-21.026 242.888 -22.8093 244.671 -22.8093 246.934V285.129C-22.8093 287.392 -21.026 289.175 -18.7625 289.175H-11.3549C-9.0915 289.175 -7.30819 287.392 -7.30819 285.129V266.271H11.005V255.642H70.5402V266.271H92.2143V184.189H92.2829C92.8316 184.189 93.3117 183.709 93.3117 183.16C93.3117 182.612 92.9002 182.2 92.3514 182.2Z" fill="#F6F6F6"/>
<path d="M16.4236 251.664H2.43145C0.785315 251.664 -0.517864 252.967 -0.517864 254.613V265.104H-14.2356C-15.8818 265.104 -17.185 266.407 -17.185 268.053V298.431C-17.185 300.077 -15.8818 301.38 -14.2356 301.38H-0.312107C-0.10634 301.38 0.0994186 301.38 0.236595 301.311C0.785307 301.928 1.53979 302.271 2.43145 302.271H16.4236C18.0697 302.271 19.3729 300.968 19.3729 299.323V254.613C19.4415 253.036 18.0697 251.664 16.4236 251.664Z" fill="#F3F3F3"/>
<path d="M341.192 251.459H337.282C338.037 250.293 338.517 248.922 338.517 247.482V217.652C338.517 215.252 337.351 213.195 335.568 211.824C336.391 210.658 336.802 209.218 336.802 207.641V199.069C336.802 197.08 336.048 195.297 334.813 193.994C334.882 193.72 334.95 193.446 334.95 193.103V190.223C334.95 189.811 334.882 189.469 334.745 189.194C335.911 189.057 336.871 188.097 336.871 186.863C336.871 186.177 336.596 185.629 336.185 185.148C348.599 177.811 337.077 166.291 331.452 160.668C327.268 156.485 325.211 149.216 324.319 144.759C325.348 144.484 326.102 143.593 326.102 142.496C326.102 141.467 325.416 140.644 324.525 140.301V131.593C324.525 131.318 324.319 131.044 323.976 131.044H323.565C323.29 131.044 323.016 131.25 323.016 131.593V140.301C322.124 140.576 321.438 141.467 321.438 142.496C321.438 143.524 322.124 144.416 323.016 144.69C321.027 153.742 316.157 160.256 308.887 168.554C308.201 169.377 307.583 170.131 307.103 170.885C306.006 165.399 300.45 159.776 297.021 156.348C292.837 152.165 290.779 144.896 289.887 140.439C290.916 140.164 291.671 139.273 291.671 138.176C291.671 137.147 290.985 136.324 290.093 135.981V127.272C290.093 126.998 289.887 126.724 289.544 126.724H289.133C288.859 126.724 288.584 126.93 288.584 127.272V135.981C287.693 136.256 287.007 137.147 287.007 138.176C287.007 139.204 287.693 140.096 288.584 140.37C287.624 144.621 286.046 148.393 283.852 151.959H282.548V148.53C282.548 147.913 282 147.364 281.382 147.364H280.697V140.85H282.754C283.783 140.85 284.675 140.027 284.675 138.93C284.675 137.901 283.852 137.01 282.754 137.01H281.177L268.419 95.66V94.9742H268.625C269.654 94.9742 270.545 94.1513 270.545 93.0542C270.545 91.957 269.722 91.1341 268.625 91.1341H268.419V82.5624H269.448C270.408 82.5624 271.231 81.7395 271.231 80.7795C271.231 80.2995 271.025 79.888 270.751 79.6137C274.729 76.3908 270.134 71.8649 267.87 69.5334C266.704 68.3677 265.881 66.6533 265.401 65.0076C265.95 64.6647 266.361 64.1161 266.361 63.4304C266.361 62.6761 265.881 61.9903 265.195 61.716V54.3101C265.195 54.0358 264.99 53.8301 264.715 53.8301H264.441C264.167 53.8301 263.961 54.0358 263.961 54.3101V62.0589C263.275 62.3332 262.795 62.9504 262.795 63.7732C262.795 64.3904 263.138 64.939 263.618 65.2819C262.52 68.0934 260.669 70.4249 258.199 73.305C255.113 76.8708 256.896 78.928 258.062 79.8195C257.719 80.1623 257.514 80.6424 257.514 81.1224C257.514 82.0824 258.337 82.9053 259.297 82.9053H260.326V91.477H260.257C259.228 91.477 258.337 92.2999 258.337 93.397C258.337 94.4942 259.16 95.3171 260.257 95.3171H260.326V96.0028L246.951 137.353H245.785C244.756 137.353 243.864 138.176 243.864 139.273C243.864 140.301 244.687 141.193 245.785 141.193H246.951V147.844C246.539 148.05 246.265 148.462 246.265 148.942V152.85C245.373 153.399 244.687 154.428 244.687 155.593V155.799C244.687 156.759 245.099 157.582 245.716 158.131C244.619 158.611 243.864 159.708 243.864 160.942V164.028C243.864 164.234 243.864 164.508 243.933 164.714C242.767 165.399 241.944 166.634 241.944 168.074V170.474C241.944 171.365 242.218 172.188 242.767 172.805C240.778 172.805 239.2 174.382 239.2 176.371C239.2 177.948 240.229 179.32 241.669 179.731C240.984 180.28 240.572 181.034 240.572 181.994C240.572 182.543 240.709 183.023 240.984 183.434H240.915C239.955 183.434 239.2 184.188 239.2 185.148C239.2 185.971 239.818 186.657 240.572 186.794V191.183C237.28 191.663 234.742 194.543 234.742 197.972V199.549H229.735V197.697C230.627 197.697 231.381 196.943 231.381 196.052C231.381 195.16 230.627 194.406 229.735 194.406H227.677V182.063H227.952C228.775 182.063 229.529 181.377 229.529 180.485C229.529 179.937 229.255 179.457 228.843 179.183H229.804C230.627 179.183 231.313 178.497 231.313 177.674C231.313 176.988 230.901 176.44 230.284 176.234C238.309 169.857 229.529 160.599 225.14 156.005C221.71 152.37 219.995 146.062 219.309 142.221C220.133 142.016 220.75 141.193 220.75 140.301C220.75 139.41 220.201 138.656 219.447 138.381V130.838C219.447 130.564 219.241 130.427 219.035 130.427H218.692C218.418 130.427 218.281 130.632 218.281 130.838V138.381C217.526 138.656 216.977 139.41 216.977 140.301C216.977 141.193 217.526 141.947 218.281 142.221C216.635 150.039 212.656 155.662 206.689 162.862C200.242 170.611 204.906 174.794 207.032 176.165H206.895C206.072 176.165 205.386 176.851 205.386 177.674C205.386 178.497 206.072 179.183 206.895 179.183H208.335C207.924 179.457 207.649 179.937 207.649 180.485C207.649 181.308 208.335 182.063 209.227 182.063H209.57V194.406H205.18C204.288 194.406 203.534 195.16 203.534 196.052C203.534 196.737 203.946 197.286 204.494 197.56V199.618C201.614 199.755 199.35 202.086 199.35 204.966V218.064V222.041V265.242H237.691C238.857 266.134 240.298 266.682 241.875 266.682H284.949V292.672H345.307V260.785C346.199 259.825 346.748 258.522 346.748 257.151C346.473 253.859 344.141 251.459 341.192 251.459ZM305.046 178.428C305.8 182.817 310.533 184.737 310.533 184.737C309.572 185.011 308.887 185.903 308.887 186.931C308.887 188.029 309.71 188.989 310.738 189.194C310.601 189.537 310.464 189.88 310.464 190.292V191.869C307.378 192.623 304.977 195.297 304.771 198.589H302.851V186.314C303.331 186.04 303.605 185.491 303.605 184.874C303.605 184.326 303.331 183.846 302.919 183.503C303.331 183.023 303.605 182.406 303.605 181.72C303.605 181.103 303.399 180.554 303.056 180.074C303.88 179.525 304.497 178.977 305.046 178.428Z" fill="#F3F3F3"/>
<path d="M663.422 204.623V206.063C664.245 206.063 664.931 206.749 665 207.572V214.292V219.024V236.304V239.253V345.748H480.976H297.158H17.521H-346V286.089H-340.513V283.757C-340.513 282.729 -339.69 281.837 -338.592 281.837H-334.889H-334.614V279.643C-334.614 278.614 -333.791 277.723 -332.694 277.723H-318.77C-317.741 277.723 -316.85 278.546 -316.85 279.643V281.837H-305.121V273.06C-305.121 272.031 -304.298 271.14 -303.201 271.14H-290.512C-289.483 271.14 -288.591 271.963 -288.591 273.06V281.837H-286.122V279.643C-286.122 278.614 -285.299 277.723 -284.201 277.723H-270.209V211.206V199C-270.209 198.177 -269.592 197.56 -268.769 197.492L-261.43 197.149C-260.813 197.149 -260.264 196.669 -260.058 196.052C-259.304 193.24 -256.354 192.897 -256.354 192.897C-238.521 192.692 -223.912 202.223 -221.854 204.418C-219.111 207.366 -217.533 211.275 -217.533 211.275V280.466C-217.533 279.917 -217.053 279.506 -216.504 279.506H-206.902C-206.353 279.506 -205.873 279.917 -205.873 280.466V281.014C-205.873 281.563 -205.393 281.974 -204.844 281.974H-197.711C-197.162 281.974 -196.682 281.563 -196.682 281.014V276.968C-196.682 276.42 -196.202 276.008 -195.653 276.008H-187.011C-186.462 276.008 -185.982 276.42 -185.982 276.968V281.014C-185.982 281.563 -185.502 281.974 -184.953 281.974H-177.477C-176.928 281.974 -176.448 281.563 -176.448 281.014C-176.448 280.466 -175.968 280.054 -175.419 280.054H-163.965C-163.554 280.054 -163.142 279.78 -163.005 279.369L-160.536 271.688C-160.399 271.277 -159.987 271.003 -159.575 271.003H-152.168V217.789C-152.168 216.075 -151.482 214.498 -150.316 213.332L-146.201 209.218C-145.789 208.806 -145.309 208.601 -144.76 208.601H-128.093C-126.996 208.601 -126.104 209.561 -126.104 210.658C-126.173 211.755 -125.212 212.646 -124.115 212.646H-111.083C-110.809 212.646 -110.534 212.578 -110.329 212.509L-103.676 209.904C-103.401 209.835 -103.195 209.766 -102.921 209.766H-98.4628C-98.0512 209.766 -97.6397 209.904 -97.2968 210.109L-92.2212 213.606C-90.7808 214.635 -89.8206 216.212 -89.5462 217.927L-81.2469 277.586H-70.6157V270.591H-56.4178V278.889H-42.1513V281.563H-34.8809V286.157H-32.8918V266.202H-19.2426V281.563H-15.4016V268.74H-4.08447V281.563H-0.792206V286.157H2.43149V279.3H8.81024V272.785H17.2466V251.596V247.413C17.2466 246.316 18.0698 245.356 19.1672 245.219V242.339C18.5499 242.339 18.0697 241.859 18.0697 241.242C18.0697 240.624 18.4813 240.144 19.0986 240.144L21.4306 229.927C21.0876 229.79 20.8819 229.447 20.8819 229.036C20.8819 228.487 21.362 228.007 21.9107 228.007H21.8421V221.972C21.4992 221.767 21.2248 221.424 21.2248 221.012C21.2248 220.464 21.705 219.984 22.2537 219.984H24.3113V217.378C24.3113 216.487 24.86 215.664 25.5459 215.252V213.881C25.5459 213.126 26.1632 212.578 26.8491 212.578C27.6036 212.578 28.1523 213.195 28.1523 213.881V215.252C28.9068 215.664 29.3869 216.487 29.3869 217.378V219.778H31.4445C31.9933 219.778 32.4734 220.258 32.4734 220.807C32.4734 221.287 32.1991 221.63 31.8561 221.767V227.801C32.4048 227.801 32.8849 228.281 32.8849 228.83C32.8849 229.173 32.7477 229.447 32.4734 229.653L34.874 240.007C35.4227 240.144 35.7657 240.556 35.7657 241.104C35.7657 241.653 35.2855 242.133 34.7368 242.202V245.082C35.8342 245.219 36.7259 246.11 36.7259 247.276V251.459H39.6067V246.522C39.6067 246.11 40.0182 245.905 40.3611 246.11L41.4586 246.796C41.6643 246.933 41.8701 246.933 42.0073 246.796L43.1047 246.11C43.4476 245.905 43.8592 246.179 43.8592 246.522V251.459H44.888V246.522C44.888 246.11 45.2995 245.905 45.6425 246.11L46.7399 246.796C46.9456 246.933 47.1514 246.933 47.2886 246.796L48.386 246.11C48.729 245.905 49.1405 246.179 49.1405 246.522V251.459H50.1693V246.522C50.1693 246.11 50.5809 245.905 50.9238 246.11L52.0212 246.796C52.227 246.933 52.4327 246.933 52.5699 246.796L53.6674 246.11C54.0103 245.905 54.4218 246.179 54.4218 246.522V251.459H55.4507V246.522C55.4507 246.11 55.8622 245.905 56.2052 246.11L57.3026 246.796C57.5083 246.933 57.7141 246.933 57.8513 246.796L58.9487 246.11C59.2917 245.905 59.7032 246.179 59.7032 246.522V251.459H60.732V246.522C60.732 246.11 61.1435 245.905 61.4865 246.11L62.5839 246.796C62.7897 246.933 62.9955 246.933 63.1326 246.796L64.23 246.11C64.573 245.905 64.9845 246.179 64.9845 246.522V251.459H66.0134V246.522C66.0134 246.11 66.4249 245.905 66.7678 246.11L67.8653 246.796C68.071 246.933 68.2768 246.933 68.414 246.796L69.5114 246.11C69.8543 245.905 70.2659 246.179 70.2659 246.522V251.459H71.2947V246.522C71.2947 246.11 71.7062 245.905 72.0492 246.11L73.1466 246.796C73.3524 246.933 73.5581 246.933 73.6953 246.796L74.7927 246.11C75.1357 245.905 75.5472 246.179 75.5472 246.522V251.459H76.576V246.522C76.576 246.11 76.9876 245.905 77.3305 246.11L78.4279 246.796C78.6337 246.933 78.8394 246.933 78.9766 246.796L80.0741 246.11C80.417 245.905 80.8286 246.179 80.8286 246.522V251.459H81.8574V246.522C81.8574 246.11 82.2689 245.905 82.6119 246.11L83.7093 246.796C83.915 246.933 84.1208 246.933 84.258 246.796L85.3554 246.11C85.6984 245.905 86.1099 246.179 86.1099 246.522V251.459H87.0015V238.019H87.1387C86.7272 238.019 86.3842 237.676 86.3842 237.264C86.3842 236.853 86.7272 236.51 87.1387 236.51L87.4131 233.081H88.099L88.5105 236.51H89.8137V231.778C89.8137 231.436 90.088 231.161 90.431 231.161H90.7054L90.9111 228.35C90.9111 227.801 91.3912 227.39 91.9399 227.39C92.4886 227.39 92.9002 227.801 92.9688 228.35L92.4201 231.504H92.6944C93.0374 231.504 93.3117 231.778 93.3117 232.121V236.853H94.7521L95.0264 233.424H95.7123L96.1238 236.853C96.5354 236.853 96.8784 237.196 96.8784 237.607C96.8784 238.019 96.5354 238.362 96.1238 238.362H96.0553V251.802H97.0841V246.865C97.0841 246.453 97.4956 246.247 97.8386 246.453L98.936 247.139C99.1418 247.276 99.3475 247.276 99.4847 247.139L100.582 246.453C100.925 246.247 101.337 246.522 101.337 246.865V251.802H102.365V246.865C102.365 246.453 102.777 246.247 103.12 246.453L104.217 247.139C104.423 247.276 104.629 247.276 104.766 247.139L105.863 246.453C106.206 246.247 106.618 246.522 106.618 246.865V251.802H107.647V246.865C107.647 246.453 108.058 246.247 108.401 246.453L109.499 247.139C109.704 247.276 109.91 247.276 110.047 247.139L111.145 246.453C111.488 246.247 111.899 246.522 111.899 246.865V251.802H112.928V246.865C112.928 246.453 113.34 246.247 113.683 246.453L114.78 247.139C114.986 247.276 115.192 247.276 115.329 247.139L116.426 246.453C116.769 246.247 117.181 246.522 117.181 246.865V251.802H118.209V246.865C118.209 246.453 118.621 246.247 118.964 246.453L120.061 247.139C120.267 247.276 120.473 247.276 120.61 247.139L121.708 246.453C122.05 246.247 122.462 246.522 122.462 246.865V251.802H123.491V246.865C123.491 246.453 123.902 246.247 124.245 246.453L125.343 247.139C125.548 247.276 125.754 247.276 125.891 247.139L126.989 246.453C127.332 246.247 127.743 246.522 127.743 246.865V251.802H131.927V235.139H131.104C130.487 235.139 130.007 234.659 130.007 234.041C130.007 233.424 130.487 232.944 131.104 232.944H131.927V229.927H130.967C130.555 229.927 130.213 229.584 130.213 229.173C130.213 228.761 130.555 228.418 130.967 228.418H131.927V212.098H130.693C130.281 212.098 129.938 211.755 129.938 211.344C129.938 210.932 130.281 210.589 130.693 210.589H131.721V191.457H131.104C130.35 191.457 129.801 190.84 129.801 190.154C129.801 189.469 130.281 188.92 130.967 188.851C130.693 188.714 130.555 188.44 130.555 188.097V187.686C130.555 187.137 130.967 186.726 131.516 186.726H132.682V185.834H131.584C131.036 185.834 130.624 185.423 130.624 184.874C130.624 184.326 131.036 183.914 131.584 183.914H132.339V182.406H131.653C131.104 182.406 130.624 181.925 130.624 181.377C130.624 181.171 130.693 181.034 130.761 180.897C129.938 180.828 129.252 180.143 129.252 179.251V176.508C129.252 175.685 129.87 175 130.624 174.862V173.491V173.285V169.994C130.624 169.651 130.83 169.377 131.104 169.171L132.407 159.502C132.476 159.09 132.75 158.816 133.162 158.816C133.505 158.816 133.848 159.09 133.916 159.502L135.22 169.171C135.494 169.308 135.7 169.651 135.7 169.994V173.285V173.491V174.794H136.454C136.728 174.794 137.003 174.862 137.277 175C137.62 174.451 138.237 174.04 138.923 174.04H140.295V164.576H142.353V147.639H143.107V147.433V144.621V144.484V139.547C143.107 139.273 143.382 138.998 143.656 138.998C143.93 138.998 144.205 139.273 144.205 139.547V143.181H144.41H145.371V135.227H145.233C144.822 135.227 144.548 134.884 144.548 134.541V132.895C144.548 132.484 144.891 132.21 145.233 132.21H145.371V131.112H144.273C143.656 131.112 143.176 130.632 143.176 130.015V127.409C143.176 126.792 143.656 126.312 144.273 126.312H144.822V115.341H144.548C143.93 115.341 143.45 114.861 143.45 114.243V114.038C143.45 113.42 143.93 112.94 144.548 112.94H145.028V112.46V110.129V106.563C145.028 106.289 145.233 106.083 145.508 106.083C145.782 106.083 145.988 106.289 145.988 106.563V108.689C146.194 108.62 146.4 108.552 146.674 108.552H146.948V106.426C146.948 105.809 147.223 105.329 147.634 105.054L148.114 100.254H149.006L149.486 104.78H152.435L159.431 57.6016H160.529L167.525 104.78H170.474L170.954 100.254H171.846L172.326 105.054C172.738 105.397 173.012 105.877 173.012 106.426V108.552H173.286C173.561 108.552 173.766 108.62 173.972 108.689V106.563C173.972 106.289 174.178 106.083 174.452 106.083C174.727 106.083 174.932 106.289 174.932 106.563V110.129V112.46V112.872H175.413C176.03 112.872 176.51 113.352 176.51 113.969V114.175C176.51 114.792 176.03 115.272 175.413 115.272H175.138V126.244H175.687C176.304 126.244 176.784 126.724 176.784 127.341V129.947C176.784 130.564 176.304 131.044 175.687 131.044H174.59V132.141H174.727C175.138 132.141 175.413 132.484 175.413 132.827V134.473C175.413 134.884 175.07 135.158 174.727 135.158H174.59V143.113H175.344H175.55V139.478C175.55 139.204 175.824 138.93 176.099 138.93C176.373 138.93 176.647 139.204 176.647 139.478V144.416V144.553V147.364V147.57H177.402V164.576H179.459V173.902H181.106C181.86 173.902 182.546 174.382 182.82 175.068C183.163 174.794 183.506 174.657 183.918 174.657H184.329V173.354V173.148V169.857C184.329 169.514 184.535 169.239 184.809 169.034L186.112 159.365C186.181 158.953 186.524 158.679 186.867 158.679C187.21 158.679 187.553 158.953 187.621 159.365L188.925 169.034C189.199 169.171 189.405 169.514 189.405 169.857V173.148V173.354V174.725C190.228 174.862 190.776 175.48 190.776 176.302V179.114C190.776 180.005 190.091 180.691 189.268 180.76C189.336 180.897 189.405 181.103 189.405 181.24C189.405 181.788 188.925 182.268 188.376 182.268H187.69V183.777H188.445C188.993 183.777 189.405 184.188 189.405 184.737C189.405 185.286 188.993 185.697 188.445 185.697H187.347V186.589H188.513C189.062 186.589 189.473 187 189.473 187.549V187.96C189.473 188.234 189.336 188.577 189.062 188.714C189.679 188.783 190.228 189.331 190.228 190.017C190.228 190.771 189.611 191.32 188.925 191.32H188.307V210.384H189.542C189.953 210.384 190.296 210.726 190.296 211.138C190.296 211.549 189.953 211.892 189.542 211.892H188.307V228.213H189.268C189.679 228.213 190.022 228.556 190.022 228.967C190.022 229.378 189.679 229.721 189.268 229.721H188.307V232.739H189.13C189.748 232.739 190.228 233.219 190.228 233.836C190.228 234.453 189.748 234.933 189.13 234.933H188.307V251.596H188.925V246.659C188.925 246.248 189.336 246.042 189.679 246.248L190.776 246.933C190.982 247.07 191.188 247.07 191.325 246.933L192.423 246.248C192.766 246.042 193.177 246.316 193.177 246.659V251.596H194.206V246.659C194.206 246.248 194.617 246.042 194.96 246.248L196.058 246.933C196.264 247.07 196.469 247.07 196.607 246.933L197.704 246.248C198.047 246.042 198.458 246.316 198.458 246.659V251.596H199.487V246.659C199.487 246.248 199.899 246.042 200.242 246.248L201.339 246.933C201.545 247.07 201.751 247.07 201.888 246.933L202.985 246.248C203.328 246.042 203.74 246.316 203.74 246.659V251.596H204.769V246.659C204.769 246.248 205.18 246.042 205.523 246.248L206.621 246.933C206.826 247.07 207.032 247.07 207.169 246.933L208.267 246.248C208.61 246.042 209.021 246.316 209.021 246.659V251.596H210.05V246.659C210.05 246.248 210.461 246.042 210.804 246.248L211.902 246.933C212.108 247.07 212.313 247.07 212.451 246.933L213.548 246.248C213.891 246.042 214.302 246.316 214.302 246.659V251.596H215.331V246.659C215.331 246.248 215.743 246.042 216.086 246.248L217.183 246.933C217.389 247.07 217.595 247.07 217.732 246.933L218.829 246.248C219.172 246.042 219.584 246.316 219.584 246.659V251.596H220.544V238.156H220.681C220.27 238.156 219.927 237.813 219.927 237.402C219.927 236.99 220.27 236.647 220.681 236.647L220.956 233.219H221.642L222.053 236.647H223.356V231.916C223.356 231.573 223.631 231.298 223.974 231.298H224.248L224.454 228.487C224.454 227.938 224.934 227.527 225.482 227.527C226.031 227.527 226.443 227.938 226.511 228.487L226.717 231.298H225.757C226.1 231.298 226.374 231.573 226.374 231.916V236.647H227.815L228.089 233.219H228.775L229.186 236.647C229.598 236.647 229.941 236.99 229.941 237.402C229.941 237.813 229.598 238.156 229.186 238.156H229.118V251.596H230.147V246.659C230.147 246.248 230.558 246.042 230.901 246.248L231.998 246.933C232.204 247.07 232.41 247.07 232.547 246.933L233.645 246.248C233.987 246.042 234.399 246.316 234.399 246.659V251.596H235.428V246.659C235.428 246.248 235.839 246.042 236.182 246.248L237.28 246.933C237.486 247.07 237.691 247.07 237.828 246.933L238.926 246.248C239.269 246.042 239.68 246.316 239.68 246.659V251.596H240.709V246.659C240.709 246.248 241.121 246.042 241.464 246.248L242.561 246.933C242.767 247.07 242.973 247.07 243.11 246.933L244.207 246.248C244.55 246.042 244.962 246.316 244.962 246.659V251.596H245.991V246.659C245.991 246.248 246.402 246.042 246.745 246.248L247.842 246.933C248.048 247.07 248.254 247.07 248.391 246.933L249.489 246.248C249.832 246.042 250.243 246.316 250.243 246.659V251.596H251.272V246.659C251.272 246.248 251.683 246.042 252.026 246.248L253.124 246.933C253.33 247.07 253.535 247.07 253.673 246.933L254.77 246.248C255.113 246.042 255.524 246.316 255.524 246.659V251.596H256.553V246.659C256.553 246.248 256.965 246.042 257.308 246.248L258.405 246.933C258.611 247.07 258.817 247.07 258.954 246.933L260.051 246.248C260.394 246.042 260.806 246.316 260.806 246.659V251.596H261.835V246.659C261.835 246.248 262.246 246.042 262.589 246.248L263.686 246.933C263.892 247.07 264.098 247.07 264.235 246.933L265.333 246.248C265.676 246.042 266.087 246.316 266.087 246.659V251.596H267.116V246.659C267.116 246.248 267.527 246.042 267.87 246.248L268.968 246.933C269.174 247.07 269.379 247.07 269.517 246.933L270.614 246.248C270.957 246.042 271.368 246.316 271.368 246.659V251.596H272.397V246.659C272.397 246.248 272.809 246.042 273.152 246.248L274.249 246.933C274.455 247.07 274.661 247.07 274.798 246.933L275.895 246.248C276.238 246.042 276.65 246.316 276.65 246.659V251.596H280.834V247.413C280.834 246.316 281.657 245.356 282.754 245.219V242.339C282.137 242.339 281.657 241.859 281.657 241.242C281.657 240.624 282.068 240.144 282.686 240.144L285.018 229.927C284.675 229.79 284.469 229.447 284.469 229.036C284.469 228.487 284.949 228.007 285.498 228.007H285.429V221.972C285.086 221.767 284.812 221.424 284.812 221.012C284.812 220.464 285.292 219.984 285.841 219.984H287.898V217.378C287.898 216.487 288.447 215.664 289.133 215.252V213.881C289.133 213.126 289.75 212.578 290.436 212.578C291.191 212.578 291.739 213.195 291.739 213.881V215.252C292.494 215.664 292.974 216.487 292.974 217.378V219.778H295.032C295.58 219.778 296.06 220.258 296.06 220.807C296.06 221.287 295.786 221.63 295.443 221.767V227.801C295.992 227.801 296.472 228.281 296.472 228.83C296.472 229.173 296.335 229.447 296.06 229.653L298.461 240.007C299.01 240.144 299.353 240.556 299.353 241.104C299.353 241.653 298.873 242.133 298.324 242.202V245.082C299.421 245.219 300.313 246.11 300.313 247.276V286.98H303.948V278.957C303.948 278.066 304.634 277.38 305.526 277.38H313.07V273.06C313.07 272.168 313.756 271.483 314.648 271.483H321.781V271.277C321.781 268.054 324.388 265.448 327.611 265.448H328.229V264.214C328.229 262.362 329.738 260.854 331.59 260.854H337.9C339.752 260.854 341.26 262.362 341.26 264.214V265.448C344.347 265.654 346.748 268.191 346.748 271.277V271.483H355.664C356.556 271.483 357.242 272.168 357.242 273.06V277.38H364.787C365.678 277.38 366.364 278.066 366.364 278.957V285.266H378.23V282.043C378.23 281.151 378.916 280.466 379.807 280.466H383.237V266.34C383.237 265.448 383.923 264.762 384.814 264.762H411.564C412.456 264.762 413.142 265.448 413.142 266.34V278.683H418.423V276.42C418.423 275.528 419.109 274.843 420.001 274.843H451.071V268.877C451.071 267.985 451.757 267.3 452.649 267.3H463.417C464.309 267.3 464.995 267.985 464.995 268.877V283.757H470.002V272.1C470.002 271.208 470.688 270.523 471.579 270.523H479.33C479.673 270.523 479.947 270.591 480.153 270.728V239.322V236.304V228.624C480.153 228.144 480.565 227.801 480.976 227.801C481.456 227.801 481.799 228.213 481.799 228.624V236.304L483.034 231.71V216.624H483.171C482.554 216.624 482.073 216.144 482.073 215.527C482.073 214.909 482.554 214.429 483.171 214.429L483.582 207.915H484.611L485.229 214.429H487.08V207.435C487.08 206.955 487.492 206.543 487.972 206.543H488.109V203.938H487.766C487.423 203.938 487.149 203.663 487.149 203.32C487.149 202.978 487.423 202.703 487.766 202.703H492.705C493.048 202.703 493.322 202.978 493.322 203.32C493.322 203.663 493.048 203.938 492.705 203.938H492.362V206.543H492.499C492.979 206.543 493.391 206.955 493.391 207.435V214.429H495.517L495.928 207.915H496.957L497.575 214.429C498.192 214.429 498.672 214.909 498.672 215.527C498.672 216.144 498.192 216.624 497.575 216.624H497.506V231.71L498.741 236.304H499.015V228.624C499.015 228.144 499.426 227.801 499.838 227.801C500.318 227.801 500.661 228.213 500.661 228.624V236.304H536.876V231.23H536.396C535.984 231.23 535.71 230.956 535.71 230.544C535.71 230.133 535.984 229.858 536.396 229.858H536.876H537.63C537.699 229.31 538.111 228.967 538.591 228.898V227.253C538.591 226.773 539.002 226.361 539.482 226.361C539.962 226.361 540.374 226.773 540.374 227.253V228.898C540.923 228.898 541.334 229.31 541.403 229.858H542.089H542.569C542.98 229.858 543.255 230.133 543.255 230.544C543.255 230.956 542.98 231.23 542.569 231.23H542.089V236.304H548.879C548.673 235.961 548.536 235.619 548.536 235.207V203.526C548.536 202.429 549.428 201.606 550.457 201.606H554.297V200.783C554.297 199.892 554.846 199.137 555.669 198.863V195.983C555.669 195.64 555.944 195.297 556.355 195.297H556.63V193.652H555.669V191.8C555.669 190.909 556.424 190.154 557.315 190.154C558.207 190.154 558.962 190.909 558.962 191.8V192.692V193.652V195.983V196.6V198.863C559.716 199.137 560.333 199.892 560.333 200.783V201.606H561.294V169.651H559.922C559.51 169.651 559.167 169.308 559.167 168.896C559.167 168.485 559.51 168.142 559.922 168.142H561.225V168.005V163.342C561.225 162.862 561.568 162.519 562.048 162.519C562.528 162.519 562.871 162.862 562.871 163.342V168.005V168.142H564.997V162.588L567.741 160.462H567.672V149.353C567.192 149.147 566.781 148.667 566.781 148.119C566.781 147.364 567.398 146.816 568.084 146.816H569.456L571.033 144.827V140.918H570.622C570.073 140.918 569.593 140.438 569.593 139.89V139.616C569.593 139.067 570.073 138.587 570.622 138.587H571.033L572.199 136.598H573.64V134.473H572.405V132.072H572.199C571.582 132.072 571.102 131.592 571.102 130.975C571.102 130.358 571.582 129.878 572.199 129.878H573.708V128.37H573.845C573.365 128.37 572.954 127.958 572.954 127.478C572.954 127.067 573.228 126.724 573.571 126.587C573.159 126.244 572.954 125.832 572.954 125.284V125.009C572.954 124.049 573.708 123.295 574.668 123.295H574.188L574.874 105.329H576.52L577.206 123.295H576.726C577.686 123.295 578.441 124.049 578.441 125.009V125.284C578.441 125.832 578.167 126.244 577.824 126.587C578.167 126.724 578.441 127.067 578.441 127.478C578.441 127.958 578.029 128.37 577.549 128.37H577.686V129.878H579.195C579.813 129.878 580.293 130.358 580.293 130.975C580.293 131.592 579.813 132.072 579.195 132.072H578.99V134.473H577.755V136.598H580.018L581.184 138.587H581.596C582.145 138.587 582.625 139.067 582.625 139.616V139.89C582.625 140.438 582.145 140.918 581.596 140.918H581.184V144.827L582.762 146.816H584.134C584.888 146.816 585.437 147.433 585.437 148.119C585.437 148.736 585.094 149.216 584.545 149.353V160.531H584.614L587.357 162.656V168.211H588.386V168.074V163.411C588.386 162.931 588.729 162.588 589.209 162.588C589.689 162.588 590.032 162.931 590.032 163.411V168.074V168.211H591.336C591.747 168.211 592.09 168.554 592.09 168.965C592.09 169.377 591.747 169.719 591.336 169.719H590.032V201.675H591.267V200.783C591.267 199.549 592.159 198.452 593.325 198.246V191.663C593.325 191.526 593.393 191.32 593.462 191.183L594.834 188.783C595.245 188.097 596.137 188.44 596.137 189.263V198.177C597.303 198.452 598.194 199.48 598.194 200.715V200.989H600.938V197.903C600.938 197.423 601.281 197.012 601.761 196.875V195.846C601.761 195.434 602.035 195.16 602.447 195.16C602.858 195.16 603.133 195.503 603.133 195.846V196.875C603.476 197.012 603.75 197.423 603.75 197.835V200.92H604.093C604.642 200.92 605.122 201.4 605.122 201.949C605.122 202.429 604.848 202.772 604.505 202.909C604.573 203.115 604.573 203.252 604.573 203.458V235.207C604.573 235.619 604.436 236.03 604.23 236.304H610.335V231.23H609.854C609.443 231.23 609.169 230.956 609.169 230.544C609.169 230.133 609.443 229.858 609.854 229.858H610.335H611.089C611.158 229.31 611.569 228.967 612.049 228.898V227.253C612.049 226.773 612.461 226.361 612.941 226.361C613.421 226.361 613.833 226.773 613.833 227.253V228.898C614.381 228.898 614.793 229.31 614.862 229.858H615.547H616.027C616.439 229.858 616.713 230.133 616.713 230.544C616.713 230.956 616.439 231.23 616.027 231.23H615.547V236.304H651.419V233.356V228.076C651.419 227.801 651.694 227.527 651.968 227.527C652.242 227.527 652.517 227.733 652.517 228.076V233.356H654.575V222.452V214.292V209.423C654.575 208.806 655.055 208.326 655.672 208.326C656.289 208.326 656.769 208.806 656.769 209.423V214.292H658.347V207.572C658.347 206.818 658.896 206.201 659.581 206.063V204.623C659.581 203.526 660.473 202.703 661.502 202.703C662.599 202.703 663.422 203.595 663.422 204.623Z" fill="#ECECEC"/>
<circle cx="159.992" cy="57.0988" r="1.31563" fill="#EDEDED"/>
</svg>
