<svg width="152" height="28" viewBox="0 0 152 28" fill="none" xmlns="http://www.w3.org/2000/svg">
<path d="M55.073 0.158722C55.7079 0.317434 56.3427 0.317454 56.8188 0.476166C57.1363 0.476166 57.295 0.634869 57.295 1.11101C57.1362 2.06328 57.1363 3.01553 57.1363 3.96781C56.6602 3.80909 56.184 3.80912 55.7078 3.65041C53.8033 3.4917 52.851 4.44393 52.5336 6.18977C52.3749 6.82462 52.3749 7.61821 52.3749 8.25306C52.3749 8.57048 52.5337 8.57045 52.6924 8.57045C53.6446 8.57045 54.7556 8.57045 55.7078 8.57045C56.0253 8.57045 56.1841 8.72919 56.1841 8.8879C56.1841 9.68146 56.1841 10.475 56.1841 11.2686C56.1841 11.586 56.0253 11.586 55.8666 11.586C54.9143 11.586 53.962 11.586 52.851 11.586C52.5336 11.586 52.3749 11.7447 52.3749 12.0621C52.3749 16.5061 52.3749 20.95 52.3749 25.394C52.3749 26.0288 52.3749 26.0288 51.74 26.0288C50.629 26.0288 49.5181 26.0288 48.4071 26.0288C48.0897 26.0288 47.931 25.8701 47.931 25.5527C47.931 21.1087 47.931 16.6648 47.931 12.2209C47.931 11.7447 47.931 11.7447 47.4549 11.7447C46.82 11.7447 46.3438 11.7447 45.709 11.7447C45.709 11.4273 45.709 11.1099 45.709 10.7925C45.709 10.1576 45.709 9.52275 45.709 8.8879C45.709 8.57047 45.8677 8.57045 46.0264 8.57045C46.5026 8.57045 47.1374 8.57045 47.6136 8.57045C47.931 8.57045 48.0897 8.41176 48.0897 8.09434C48.0897 6.82464 48.2484 5.55496 48.5658 4.44397C49.3593 2.06329 50.9465 0.634859 53.3272 0.158722C53.6446 0.158722 53.9621 0 54.2795 0C54.2795 0.158712 54.5969 0.158722 55.073 0.158722Z" fill="white"/>
<path d="M150.935 21.9023C150.777 22.3784 150.777 22.8546 150.618 23.172C149.983 24.6004 148.872 25.5527 147.444 26.1875C144.428 27.2985 141.413 26.9811 138.397 25.5527C138.715 24.4417 139.032 23.3307 139.349 22.3784C140.143 22.6958 140.778 23.0133 141.571 23.172C142.841 23.4894 143.952 23.8068 145.222 23.3307C146.015 23.0133 146.492 22.6959 146.65 21.9023C146.809 21.1087 146.65 20.3152 145.857 19.9977C145.063 19.5216 144.27 19.2042 143.476 18.8867C142.524 18.5693 141.571 18.0932 140.778 17.4583C138.08 15.3951 138.556 12.0621 140.46 10.1576C141.571 9.20528 142.682 8.57047 144.111 8.41176C146.015 8.09434 147.92 8.41175 149.825 9.0466C150.142 9.20531 150.301 9.36401 150.142 9.68144C149.824 10.475 149.666 11.4273 149.348 12.3796C148.396 11.9034 147.444 11.586 146.492 11.4273C145.698 11.2686 144.904 11.2685 144.111 11.7447C143 12.3795 142.841 13.808 143.793 14.6015C144.428 15.0777 145.38 15.3951 146.174 15.7125C147.285 16.1886 148.396 16.6648 149.348 17.4583C150.301 18.2519 150.777 19.2042 150.935 20.3152C150.935 20.4739 150.935 20.4739 151.094 20.6326C150.935 21.1087 150.935 21.5849 150.935 21.9023Z" fill="white"/>
<path d="M91.8945 11.4273C93.1642 9.36404 94.91 8.41176 97.2907 8.25305C99.6714 8.25305 101.417 9.36405 102.369 11.586C102.528 11.4273 102.528 11.4273 102.687 11.2686C103.957 9.36403 105.702 8.25305 107.924 8.25305C110.464 8.25305 112.368 9.36402 113.321 11.9034C113.797 13.1731 113.955 14.4428 113.955 15.8712C113.955 19.2042 113.955 22.5372 113.955 25.8701C113.955 26.1875 113.797 26.3462 113.479 26.3462C112.368 26.3462 111.257 26.3462 110.146 26.3462C109.829 26.3462 109.67 26.1875 109.67 25.8701C109.67 23.0133 109.67 20.1565 109.67 17.141C109.67 16.3474 109.67 15.5538 109.512 14.9189C109.353 13.9667 109.035 13.0144 108.083 12.3796C106.813 11.4273 104.909 11.7447 103.957 13.1731C103.322 13.9667 103.004 14.7602 103.004 15.7125C103.004 19.0455 103.004 22.5372 103.004 25.8701C103.004 26.3463 103.004 26.3462 102.528 26.3462C101.417 26.3462 100.306 26.3462 99.1952 26.3462C98.8778 26.3462 98.7191 26.1875 98.7191 25.8701C98.7191 22.5372 98.7191 19.2042 98.7191 15.8712C98.7191 15.2364 98.5604 14.6016 98.4017 13.9667C97.6081 11.7447 95.2274 11.586 93.799 12.697C92.688 13.4905 92.2119 14.7602 92.2119 16.0299C92.2119 19.3629 92.2119 22.5372 92.2119 25.8701C92.2119 26.505 92.2119 26.505 91.5771 26.505C90.4661 26.505 89.5138 26.505 88.4028 26.505C87.9267 26.505 87.9267 26.5049 87.9267 26.0288C87.9267 22.8546 87.9267 19.5216 87.9267 16.3474C87.9267 14.1254 87.7679 11.7447 87.7679 9.52273C87.7679 8.88788 87.768 8.88789 88.4028 8.88789C89.3551 8.88789 90.1487 8.88789 91.101 8.88789C91.4184 8.88789 91.5771 9.04658 91.5771 9.36401C91.5771 9.99886 91.7358 10.6337 91.7358 11.2686C91.7358 11.2686 91.8945 11.2686 91.8945 11.4273Z" fill="white"/>
<path d="M0 2.38066C0.793561 2.22195 1.58712 2.06326 2.38068 2.06326C3.65038 1.90455 5.07875 1.90454 6.50716 1.90454C8.57042 1.90454 10.6338 2.06322 12.5383 3.0155C14.7603 4.12648 16.0299 6.03103 16.3473 8.57043C16.5061 10.475 16.1886 12.2208 15.2363 13.808C14.1254 15.3951 12.697 16.3474 10.7924 16.9822C8.72916 17.6171 6.82463 17.7758 4.76137 17.4583H4.60269C4.60269 17.4583 4.60264 17.4583 4.44392 17.4583C4.44392 17.617 4.44392 17.7758 4.44392 17.9345C4.44392 20.6326 4.44392 23.4894 4.44392 26.1875C4.44392 26.5049 4.28523 26.6637 3.96781 26.6637C2.85682 26.6637 1.5871 26.6637 0.476117 26.6637C0.158693 26.6637 0.158674 26.6636 0.158674 26.3462C0.158674 18.5693 0.158674 10.6337 0.158674 2.85682C-3.87505e-05 2.5394 0 2.38066 0 2.38066ZM4.28525 9.52271C4.28525 10.7924 4.28525 11.9034 4.28525 13.1731C4.28525 13.808 4.28519 13.808 4.92004 13.808C6.03103 13.9667 7.30075 13.9667 8.41173 13.6492C9.68143 13.3318 10.7925 12.697 11.4273 11.4273C11.9034 10.6337 12.0621 9.5227 11.9034 8.57043C11.7447 7.14202 11.1099 6.18975 9.84018 5.5549C8.09435 4.76134 6.5072 4.92008 4.76137 5.23751C4.44394 5.23751 4.44392 5.3962 4.44392 5.71363C4.28521 7.14204 4.28525 8.25301 4.28525 9.52271Z" fill="white"/>
<path d="M74.2773 17.4582C74.2773 19.6802 73.8011 21.7435 72.3727 23.4893C71.103 25.2352 69.1985 26.1874 67.1352 26.5049C65.072 26.8223 63.1674 26.6636 61.4216 25.87C59.5171 25.0765 58.0886 23.4893 57.295 21.5848C56.184 18.8867 56.184 16.1885 57.295 13.4904C58.406 10.7923 60.4693 9.04648 63.4848 8.57034C65.7068 8.0942 67.9288 8.25291 69.992 9.3639C71.8966 10.3162 73.1663 12.062 73.9598 14.1253C74.1185 14.4427 74.2773 14.9189 74.2773 15.395C74.1186 16.0298 74.2773 16.8234 74.2773 17.4582ZM69.6747 18.0931C69.6747 16.3472 69.3572 14.9189 68.7223 13.8079C67.4526 11.4272 64.2784 10.951 62.3738 12.8556C61.5803 13.6492 61.1042 14.7601 60.9455 16.0298C60.6281 18.0931 60.7867 20.1563 61.8977 22.0609C63.4848 24.4416 66.8178 24.4416 68.4049 22.0609C69.5159 20.6325 69.6747 19.2041 69.6747 18.0931Z" fill="white"/>
<path d="M30.6314 22.6958C30.7901 23.648 30.9489 24.6003 31.2663 25.3938C31.2663 25.5526 31.1075 25.7113 31.1075 25.7113C29.9966 26.1874 28.8856 26.5049 27.6159 26.5049C26.0288 26.6636 24.2829 26.8223 22.6958 26.3461C19.839 25.7113 17.7757 24.1241 16.8234 21.426C16.1886 19.6802 16.0299 17.9344 16.3473 16.1886C16.6647 13.9666 17.4583 12.062 19.0454 10.4749C20.4739 9.2052 22.0609 8.57036 23.9655 8.25294C25.5526 8.09423 26.9811 8.25294 28.4095 9.0465C30.1553 9.99877 31.1076 11.4272 31.7424 13.173C32.2186 14.7602 32.3773 16.5059 32.2185 18.0931C32.2185 18.4105 32.0599 18.5692 31.7424 18.5692C28.092 18.5692 24.4417 18.5692 20.95 18.5692C20.3152 18.5692 20.3152 18.5692 20.4739 19.2041C20.7913 21.1086 21.9023 22.537 23.8068 23.0132C25.3939 23.4893 26.9811 23.3306 28.5682 23.0132C29.203 23.1719 29.8379 23.0132 30.6314 22.6958ZM24.1243 15.7124C25.2352 15.7124 26.505 15.7124 27.6159 15.7124C28.0921 15.7124 28.0921 15.7124 28.0921 15.2363C28.0921 14.7601 27.9333 14.284 27.7746 13.8079C26.9811 10.951 23.9655 10.7923 22.2197 11.9033C20.95 12.6969 20.4738 13.9666 20.3151 15.2363C20.1564 15.7124 20.3151 15.7124 20.6326 15.7124C21.9023 15.7124 23.0133 15.7124 24.1243 15.7124Z" fill="white"/>
<path d="M136.493 22.6959C136.651 23.6482 136.81 24.6004 136.969 25.5527C136.969 25.8701 136.81 25.8702 136.651 25.8702C135.699 26.1876 134.588 26.505 133.477 26.505C131.572 26.6637 129.668 26.6637 127.763 25.7114C125.383 24.6004 123.795 22.8546 123.161 20.3152C122.526 18.0933 122.685 16.03 123.478 13.9667C124.272 11.586 125.859 9.99891 128.239 8.88792C131.096 7.77693 133.953 7.77693 136.81 8.7292C136.81 8.7292 136.969 8.72921 136.969 8.88792C136.651 9.99891 136.492 11.1099 136.175 12.2209C135.699 12.0622 135.223 11.9034 134.747 11.7447C133.477 11.4273 132.366 11.4273 131.096 11.7447C129.192 12.3796 128.081 13.6493 127.605 15.5539C127.129 17.2997 127.287 19.0455 128.239 20.6326C129.35 22.5372 131.096 23.172 133.16 23.0133C134.429 23.172 135.382 23.0133 136.493 22.6959Z" fill="white"/>
<path d="M80.1265 12.5622C80.1265 12.4035 80.2853 12.2448 80.2853 12.2448C81.0788 10.4989 82.1897 9.38796 84.0943 9.07054C84.5704 8.91183 85.2053 9.07054 85.6814 9.07054C85.8401 9.07054 85.9989 9.22927 85.9989 9.38798C85.9989 10.6577 85.9989 11.9274 85.9989 13.0383C85.9989 13.0383 85.9989 13.0384 85.9989 13.1971C85.6814 13.1971 85.364 13.1971 85.0466 13.1971C82.3485 13.0384 80.6027 15.1016 80.6027 17.641C80.6027 20.6566 80.6027 23.6721 80.6027 26.6876C80.6027 26.8463 80.6027 27.0051 80.6027 27.1638C80.2853 27.1638 79.8091 27.1638 79.4917 27.1638C78.5394 27.1638 77.7458 27.1638 76.7936 27.1638C76.1587 27.1638 76.1587 27.1637 76.1587 26.6876C76.1587 22.5611 76.1587 18.4346 76.1587 14.1494C76.1587 12.7209 76 11.2925 76 9.8641C76 9.70539 76 9.5467 76.3174 9.5467C77.4284 9.5467 78.5394 9.5467 79.4917 9.5467C79.6504 9.5467 79.8091 9.70539 79.8091 9.8641C79.8091 10.6577 79.9678 11.61 79.9678 12.5622C79.9678 12.4035 79.9678 12.5622 80.1265 12.5622C80.1265 12.5622 79.9678 12.5622 80.1265 12.5622Z" fill="white"/>
<path d="M37.9322 8.88789C37.9322 9.99888 38.0909 11.1099 38.0909 12.0621H38.2495C38.2495 11.9034 38.4083 11.7447 38.4083 11.586C39.2019 9.68147 40.789 8.41176 42.8522 8.25305C43.1697 8.25305 43.4871 8.25305 43.8045 8.25305C43.9632 8.25305 43.9632 8.41173 43.9632 8.57045C43.9632 9.84015 43.9632 11.1099 43.9632 12.2209C43.9632 12.2209 43.9632 12.2209 43.9632 12.3796C43.6458 12.3796 43.3283 12.3796 43.0109 12.3796C40.4715 12.2209 38.7258 13.9667 38.7258 16.5061C38.567 18.0932 38.7258 19.5216 38.7258 21.1088C38.7258 22.6959 38.7258 24.283 38.7258 25.8701C38.7258 26.1875 38.567 26.3462 38.2495 26.3462C37.1386 26.3462 35.8689 26.3462 34.758 26.3462C34.4405 26.3462 34.2817 26.1875 34.2817 25.8701C34.2817 20.7913 34.2817 15.8713 34.2817 10.7925C34.2817 10.1576 34.2817 9.52275 34.2817 9.04661C34.2817 8.8879 34.2818 8.72917 34.5992 8.72917C35.5515 8.88788 36.6625 8.88789 37.9322 8.88789C37.7735 8.88789 37.7735 8.88789 37.9322 8.88789Z" fill="white"/>
<path d="M116.654 8.72913C116.812 8.72913 116.971 8.72913 116.971 8.72913C118.241 8.72913 119.352 8.72913 120.621 8.72913C120.939 8.72913 121.097 8.88787 121.097 9.20529C121.097 10.9511 121.097 12.697 121.097 14.6015C121.097 18.4106 121.097 22.2197 121.097 26.0288C121.097 26.3462 120.939 26.5049 120.621 26.5049C119.51 26.5049 118.241 26.5049 117.13 26.5049C116.971 26.5049 116.812 26.5049 116.654 26.5049C116.654 20.4739 116.654 14.7602 116.654 8.72913Z" fill="white"/>
<path d="M118.717 6.18984C117.288 6.18984 116.336 5.23756 116.336 3.80915C116.336 2.38074 117.289 1.42847 118.876 1.42847C120.304 1.42847 121.256 2.38074 121.256 3.80915C121.256 5.23756 120.304 6.18984 118.717 6.18984Z" fill="white"/>
</svg>
