<svg width="154" height="132" viewBox="0 0 154 132" fill="none" xmlns="http://www.w3.org/2000/svg">
<path d="M25.1659 9.11989L16.425 0.714355H1" stroke="black"/>
<path d="M72.5396 74.7218C71.5082 74.7218 70.526 74.3777 69.6911 73.7388C68.6106 72.8541 67.9231 71.527 67.9231 70.1507V9.3999C36.0497 11.3168 10.8064 37.7601 10.8064 70.1507C10.8064 103.77 38.0142 131 71.6064 131C105.199 131 132.406 103.77 132.406 70.1507C132.406 66.8576 132.161 63.6628 131.621 60.5171L73.5709 74.6235C73.2271 74.6727 72.8833 74.7218 72.5396 74.7218Z" stroke="#231F20" stroke-miterlimit="10" stroke-linecap="round" stroke-linejoin="round"/>
<path d="M129.51 51.6215C122.192 28.7662 101.762 11.7599 77.059 9.5481V64.3516L129.51 51.6215Z" stroke="#231F20" stroke-miterlimit="10" stroke-linecap="round" stroke-linejoin="round"/>
<path d="M67.6839 20.187H49.0516" stroke="#231F20" stroke-miterlimit="10" stroke-linecap="round" stroke-linejoin="round"/>
<path d="M67.6839 32.9353H49.0516" stroke="#231F20" stroke-miterlimit="10" stroke-linecap="round" stroke-linejoin="round"/>
<path d="M67.6839 45.6838H49.0516" stroke="#231F20" stroke-miterlimit="10" stroke-linecap="round" stroke-linejoin="round"/>
<path d="M67.6839 58.4324H49.0516" stroke="#231F20" stroke-miterlimit="10" stroke-linecap="round" stroke-linejoin="round"/>
<path d="M116.716 110.406H51.0129" stroke="#231F20" stroke-miterlimit="10" stroke-linecap="round" stroke-linejoin="round"/>
<path d="M124.561 98.6387H50.0323" stroke="#231F20" stroke-miterlimit="10" stroke-linecap="round" stroke-linejoin="round"/>
<path d="M117.697 21.1676L129.491 9.3999H148.097" stroke="#231F20" stroke-miterlimit="10" stroke-linecap="round" stroke-linejoin="round"/>
<path d="M16.6903 110.406L1 110.406" stroke="#231F20" stroke-miterlimit="10" stroke-linecap="round" stroke-linejoin="round"/>
<path d="M131.426 98.6387H153" stroke="#231F20" stroke-miterlimit="10" stroke-linecap="round" stroke-linejoin="round"/>
<path d="M126.523 110.406H153" stroke="#231F20" stroke-miterlimit="10" stroke-linecap="round" stroke-linejoin="round"/>
</svg>
