<svg width="167" height="39" viewBox="0 0 167 39" fill="none" xmlns="http://www.w3.org/2000/svg">
<path d="M124.017 18.1327C124.81 19.4024 125.604 20.5134 126.398 21.6244C127.509 23.2115 128.62 24.9574 129.731 26.5445C130.048 27.0207 129.889 27.1793 129.413 27.1793C128.143 27.1793 126.874 27.0206 125.604 27.1793C123.858 27.338 122.906 26.8619 121.954 25.2748C120.684 23.0528 119.097 21.1482 117.51 18.9263C117.192 18.6088 116.875 18.4501 116.399 18.4501C113.224 18.4501 110.209 18.4501 107.035 18.4501C106.4 18.4501 106.241 18.6089 106.241 19.2437C106.241 21.4657 106.241 23.8463 106.241 26.0683C106.241 26.8619 106.082 27.0207 105.289 27.0207C103.86 27.0207 102.432 27.0207 100.845 27.0207C100.21 27.0207 99.8926 26.7032 99.8926 26.0683C99.8926 18.4501 99.8926 10.832 99.8926 3.21381C99.8926 2.57896 100.21 2.26147 100.686 2.26147C107.035 2.26147 113.542 2.26147 119.89 2.26147C121.477 2.26147 122.906 2.42019 124.334 3.05504C128.143 4.95958 129.572 7.81642 128.937 12.1017C128.62 14.3236 127.509 15.9108 125.604 17.0218C125.445 17.4979 124.81 17.8153 124.017 18.1327ZM113.542 13.6888C115.446 13.6888 117.51 13.6888 119.414 13.6888C120.208 13.6888 121.16 13.5301 121.954 13.2127C122.906 12.8952 123.541 11.6255 123.382 10.5145C123.223 9.40355 122.747 8.45131 121.636 7.97518C121.001 7.81646 120.367 7.65773 119.732 7.65773C115.605 7.65773 111.479 7.65773 107.193 7.65773C106.559 7.65773 106.4 7.81644 106.4 8.45129C106.4 9.8797 106.4 11.4668 106.4 12.8952C106.4 13.5301 106.559 13.6888 107.193 13.6888C109.257 13.6888 111.32 13.6888 113.542 13.6888Z" fill="white"/>
<path d="M13.8705 1.94421C18.1557 2.10293 21.6474 2.42035 24.8216 3.53134C26.0913 4.00747 27.2024 4.64228 28.4721 5.27713C28.7895 5.43585 28.9482 5.75323 28.6307 6.22937C27.6785 7.34035 26.8849 8.29263 25.9326 9.40361C25.7739 9.56233 25.2978 9.56238 25.139 9.56238C20.8538 7.49913 16.4099 6.70552 11.6485 7.34037C10.5375 7.49909 9.5853 7.81651 8.63303 8.13393C7.99818 8.29265 7.52202 8.76882 7.52202 9.56238C7.52202 10.3559 7.99818 10.832 8.63303 10.9907C9.90273 11.3082 11.1724 11.4669 12.6008 11.6256C14.6641 11.7843 16.7274 11.7844 18.9493 11.9431C21.4887 12.1018 24.028 12.5779 26.4087 13.6889C30.3765 15.4347 30.694 19.72 29.4243 22.5768C28.3133 24.7988 26.4088 26.0684 24.1868 26.7033C21.33 27.6556 18.3144 27.973 15.2989 27.8143C12.1246 27.8143 8.95043 27.3381 5.9349 26.3858C4.50649 25.9097 3.07806 24.9575 1.64965 24.3226C1.33223 24.1639 0.856108 23.8464 0.379971 23.6877C-0.0961657 23.3703 -0.0962238 23.2116 0.221201 22.7355C1.17347 21.6245 1.96709 20.5136 2.76066 19.4026C3.07808 18.9264 3.39547 19.0851 3.71289 19.2438C5.30001 20.3548 7.2046 21.1483 9.10915 21.6245C12.9182 22.7355 16.7274 23.2116 20.5364 22.1006C21.4887 21.7832 22.2823 21.4658 22.9171 20.8309C23.8694 19.8786 23.5519 18.4503 22.2822 17.9741C21.6474 17.6567 20.8538 17.6567 20.0602 17.6567C17.0447 17.498 14.0292 17.3393 11.1724 17.0219C8.47428 16.7045 5.77613 16.0696 3.39545 14.6412C1.80832 13.6889 1.17353 12.1017 1.17353 10.5146C0.856108 8.13393 1.96707 6.22943 4.03033 4.80102C5.45874 3.69003 7.20454 3.21387 8.95038 2.89645C10.8549 2.2616 12.7595 2.10293 13.8705 1.94421Z" fill="white"/>
<path d="M35.9314 14.8C35.9314 11.1496 35.9314 7.34049 35.9314 3.69011C35.9314 2.57912 36.0901 2.5791 37.0424 2.5791C43.2322 2.5791 49.5806 2.5791 55.7704 2.5791C57.3575 2.5791 58.9447 2.73781 60.3731 3.37266C64.4996 5.27721 65.928 9.24504 64.817 13.2128C64.3409 15.1174 63.2299 16.5458 61.4841 17.4981C59.7383 18.2917 57.8337 18.6091 55.9292 18.6091C51.6439 18.6091 47.3587 18.6091 43.0734 18.6091C42.1211 18.6091 42.1212 18.6091 42.1212 19.5613C42.1212 21.7833 42.1212 24.0053 42.1212 26.2273C42.1212 27.1795 41.9625 27.1796 41.1689 27.3383C39.7405 27.3383 38.3121 27.3383 36.8837 27.3383C35.9314 27.3383 35.9314 27.1795 35.9314 26.3859C35.9314 22.4181 35.9314 18.6091 35.9314 14.8ZM49.2632 13.689C51.4852 13.689 53.8659 13.689 56.0878 13.689C57.3575 13.689 58.3098 12.8954 58.9446 11.7844C59.4208 10.8321 59.1034 9.40377 58.3099 8.76892C57.5163 7.97536 56.564 7.81663 55.6117 7.65791C51.3265 7.65791 47.2 7.65791 42.9147 7.65791C42.4386 7.65791 42.1212 7.81663 42.1212 8.45148C42.1212 10.0386 42.1212 11.467 42.1212 13.0542C42.1212 13.689 42.2799 13.8477 42.9147 13.8477C45.1367 13.689 47.2 13.689 49.2632 13.689Z" fill="white"/>
<path d="M141.634 13.6887C141.951 13.53 142.11 13.3713 142.269 13.2126C144.173 11.7842 146.237 10.3558 148.141 9.08611C150.204 7.6577 152.268 6.22927 154.331 4.80086C154.648 4.48343 155.124 4.32472 155.442 4.0073C156.394 3.21374 157.505 2.57891 158.933 2.73762C160.838 2.89633 162.743 2.73762 164.488 2.73762C164.806 2.73762 164.965 2.73758 165.282 2.89629V3.05497C164.488 3.5311 163.854 4.16601 163.06 4.80086C161.314 6.07056 159.568 7.3402 157.823 8.6099C156.077 9.72088 154.49 10.8319 152.744 11.9429C152.268 12.2603 152.268 12.5777 152.585 12.8951C153.22 13.53 153.855 14.1649 154.49 14.7997C154.966 15.2759 155.442 15.9107 155.918 16.3868C157.505 17.974 159.092 19.5611 160.679 21.1482C162.584 23.0528 164.488 24.9573 166.234 26.8618C166.234 26.8618 166.234 27.1793 166.076 27.338C165.917 27.4967 165.758 27.4967 165.599 27.4967C163.536 27.4967 161.473 27.4967 159.41 27.4967C158.934 27.4967 158.457 27.1792 158.14 26.8618C154.807 23.5289 151.474 20.0372 148.141 16.7043C147.348 15.9107 147.348 15.9107 146.554 16.5455C145.126 17.6565 143.538 18.6088 142.11 19.7198C141.634 20.0372 141.316 20.5134 141.316 21.1482C141.316 23.0528 141.316 24.7986 141.316 26.7031C141.316 27.338 141.158 27.6554 140.523 27.6554C139.094 27.6554 137.507 27.6554 136.079 27.6554C135.444 27.6554 135.127 27.4967 135.127 26.7031C135.127 19.0849 135.127 11.4667 135.127 3.84853C135.127 3.21368 135.444 2.89629 136.079 2.89629C137.507 2.89629 138.936 2.89629 140.523 2.89629C141.316 2.89629 141.475 3.05497 141.475 3.84853C141.475 6.86406 141.475 10.0384 141.475 13.0539C141.475 12.8952 141.634 13.2126 141.634 13.6887Z" fill="white"/>
<path d="M81.6406 27.1793C77.5141 27.1793 73.3875 27.1793 69.261 27.1793C69.1023 27.1793 68.7849 27.1793 68.6262 27.1793C68.4675 27.1793 68.3088 27.0206 68.3088 26.8619C68.4675 26.7032 68.4675 26.7032 68.6262 26.5445C69.8959 25.5922 71.1656 24.7986 72.4353 24.0051C74.3398 22.7354 76.4031 21.307 78.3076 20.0373C80.5296 18.4501 82.9103 16.7043 85.1322 15.1172C85.7671 14.6411 86.5607 14.165 87.1956 13.8475C87.513 13.5301 87.6717 13.6887 87.9891 14.1649C89.1001 16.0694 90.2111 17.974 91.1634 19.7198C92.4331 21.9418 93.8615 24.3225 95.1312 26.5445C95.4486 26.8619 95.2899 27.1793 94.8137 27.1793C94.655 27.1793 94.4963 27.1793 94.1789 27.1793C89.8936 27.1793 85.7672 27.1793 81.6406 27.1793Z" fill="white"/>
<path d="M66.8804 21.9419C67.0391 21.7832 67.0391 21.6245 67.1978 21.307C68.3088 19.5612 69.2611 17.8154 70.3721 15.9109C72.1179 13.0541 73.8637 10.0385 75.6095 7.18171C76.5618 5.43588 77.5141 3.84873 78.6251 2.1029C78.9425 1.62676 79.1012 0.991952 79.5774 0.357103C79.8948 -0.119034 80.0535 -0.119034 80.3709 0.357103C81.1645 1.78551 82.1168 3.37262 82.9104 4.80103C83.7039 6.07073 84.3387 7.34037 85.1323 8.61006C85.4497 9.0862 85.4497 9.40364 84.9736 9.72107C84.1801 10.1972 83.5452 10.8321 82.7516 11.3082C81.4819 12.2605 80.3709 13.054 79.1012 14.0063C78.7838 14.3237 78.3077 14.4825 77.8316 14.7999C75.2922 16.7044 72.5941 18.609 69.8959 20.3548C68.6262 21.1484 67.8326 21.6245 66.8804 21.9419C66.8804 22.1006 66.8804 22.1006 66.8804 21.9419Z" fill="white"/>
<path d="M153.22 32.8931C153.696 32.8931 154.331 32.8931 154.807 32.8931C155.6 32.8931 156.077 33.3691 156.394 34.004C156.711 34.7975 156.394 35.2737 155.918 35.7499C155.6 36.0673 155.6 36.226 155.759 36.7021C155.918 36.8608 156.077 37.0196 156.235 37.337C156.394 37.4957 156.235 37.8131 156.394 37.9718C156.077 37.9718 155.759 37.9718 155.6 37.8131C155.283 37.4957 154.966 37.0195 154.807 36.7021C154.489 36.226 152.902 35.9085 152.426 36.3847C152.267 36.5434 152.268 36.8608 152.268 37.1782C152.268 37.4956 152.267 37.8131 152.109 37.9718C152.109 38.1305 151.791 38.1306 151.633 38.1306C151.474 37.9718 151.157 37.8131 151.157 37.6544C151.157 36.226 151.157 34.9563 151.157 33.5279C151.157 33.3691 151.474 33.0517 151.791 33.0517C151.95 32.893 152.585 32.8931 153.22 32.8931ZM153.537 35.2738C153.855 35.2738 154.331 35.2738 154.648 35.2738C154.966 35.2738 155.283 35.115 155.283 34.6389C155.283 34.1627 154.966 34.004 154.648 34.004C154.013 34.004 153.22 34.004 152.585 34.004C152.109 34.004 151.95 34.1627 151.95 34.6389C151.95 35.115 152.267 35.2738 152.585 35.2738C152.902 35.115 153.22 35.2738 153.537 35.2738Z" fill="white"/>
<path d="M140.523 35.4324C140.523 34.7976 140.523 34.1627 140.523 33.5279C140.523 33.0517 140.682 32.8931 141.158 32.8931C142.269 32.8931 143.221 32.8931 144.173 32.8931C145.602 33.0518 146.554 34.0041 146.554 35.2738C146.713 36.7022 145.919 37.8131 144.332 37.9718C143.221 38.1305 142.11 38.1306 140.999 38.1306C140.682 38.1306 140.523 37.8131 140.523 37.4957C140.682 36.8608 140.523 36.0673 140.523 35.4324ZM143.221 37.0195C143.539 37.0195 143.856 37.0195 144.173 37.0195C145.126 37.0195 145.602 36.5434 145.602 35.7499C145.76 34.7976 145.284 34.3214 144.491 34.004C144.173 33.8453 143.697 33.8453 143.38 33.8453C141.634 33.8453 141.793 33.5279 141.793 35.4324C141.634 37.1783 141.475 37.0195 143.221 37.0195Z" fill="white"/>
<path d="M131.317 34.6389C131.317 35.2738 131.317 36.0674 131.317 36.8609C131.317 37.1783 131.317 37.3371 131.317 37.6545C131.159 37.8132 131 37.9718 130.841 37.9718C130.683 37.9718 130.365 37.6544 130.365 37.4957C130.365 36.0673 130.365 34.6389 130.365 33.2105C130.365 33.0518 130.683 32.7344 130.683 32.8931C131 32.8931 131.476 33.0518 131.794 33.2105C132.746 34.1627 133.698 35.2737 134.809 36.3847C134.809 35.9086 134.809 35.7499 134.809 35.5911C134.809 34.7976 134.809 34.1628 134.809 33.3692C134.809 33.2105 135.127 32.8931 135.285 32.8931C135.444 32.8931 135.761 33.2105 135.761 33.3692C135.761 34.7976 135.761 36.2261 135.761 37.6545C135.761 37.8132 135.603 38.1306 135.444 38.1306C135.127 38.1306 134.65 38.1305 134.492 37.9718C134.016 37.6544 133.698 37.1783 133.381 36.7022C132.746 35.9086 132.111 35.2738 131.317 34.6389Z" fill="white"/>
<path d="M112.272 38.1306C110.685 38.1306 109.415 37.337 109.098 36.0673C108.78 35.115 109.098 34.3215 109.733 33.6866C110.843 32.5756 113.066 32.0995 114.335 33.3692C115.287 34.1628 115.605 35.2737 115.287 36.226C114.97 37.1783 113.859 37.9718 112.748 38.1306C112.589 38.1306 112.431 38.1306 112.272 38.1306ZM112.272 33.8453C111.161 33.8453 110.367 34.4802 110.209 35.2738C110.05 36.0673 110.685 36.8608 111.478 37.0196C112.431 37.337 113.859 36.8608 114.018 36.226C114.811 34.9563 113.859 33.8453 112.272 33.8453Z" fill="white"/>
<path d="M125.604 34.7976C125.604 35.115 125.604 35.4325 125.604 35.7499C125.604 37.0196 125.128 37.8131 123.858 37.9718C123.064 38.1305 122.271 38.1305 121.477 37.9718C120.208 37.6544 119.89 37.1783 119.732 35.9086C119.732 35.115 119.732 34.3214 119.732 33.5279C119.732 33.3692 120.049 33.0518 120.208 32.8931C120.525 32.7344 120.684 33.0518 120.684 33.5279C120.684 34.3214 120.684 35.115 120.684 35.9086C120.684 36.5434 121.001 37.0196 121.636 37.0196C122.112 37.1783 122.588 37.1783 123.223 37.1783C124.175 37.0195 124.493 36.7022 124.493 35.7499C124.493 34.9563 124.493 34.3214 124.493 33.5279C124.493 33.2105 124.652 32.8931 124.969 32.8931C125.286 32.8931 125.604 33.0518 125.604 33.5279C125.604 34.004 125.604 34.4801 125.604 34.7976Z" fill="white"/>
<path d="M102.749 32.893C103.384 32.893 104.019 32.893 104.812 32.893C104.971 32.893 105.13 33.2104 105.289 33.3691C105.13 33.5279 104.971 33.8453 104.812 33.8453C103.86 33.8453 102.908 33.8453 101.956 33.8453C101.638 33.8453 101.321 33.8452 101.321 34.3214C101.321 34.7975 101.638 34.7975 101.956 34.7975C102.432 34.7975 103.067 34.7975 103.543 34.7975C103.86 34.7975 104.019 35.115 104.178 35.2737C104.019 35.4324 103.86 35.7498 103.543 35.7498C103.067 35.7498 102.59 35.7498 102.114 35.7498C101.638 35.7498 101.321 35.9085 101.321 36.3846C101.321 36.702 101.321 37.0195 101.321 37.4956C101.321 37.6543 101.003 37.9717 100.845 37.9717C100.686 37.9717 100.369 37.6543 100.369 37.4956C100.369 36.0672 100.369 34.6388 100.369 33.2104C100.369 33.0517 100.686 32.7343 101.003 32.7343C101.321 32.893 102.114 32.893 102.749 32.893Z" fill="white"/>
<path d="M160.679 33.0517C161.314 32.7343 161.632 32.7342 162.108 33.2104C162.584 33.6865 163.06 34.1627 163.377 34.6388C163.695 34.9562 164.012 34.9562 164.33 34.6388C164.647 34.1627 165.123 33.6865 165.441 33.2104C165.599 33.0516 165.758 32.893 166.075 32.893C166.234 32.893 166.393 33.0517 166.71 33.0517C166.71 33.2104 166.71 33.5278 166.552 33.5278C166.234 34.0039 165.758 34.6388 165.282 34.9563C164.647 35.4324 164.488 36.0673 164.488 36.8608C164.488 37.337 164.647 37.9717 163.854 37.9717C163.06 37.9717 163.377 37.1782 163.377 36.8608C163.377 36.0673 163.06 35.7498 162.584 35.1149C161.79 34.6388 161.155 33.8452 160.679 33.0517Z" fill="white"/>
</svg>
