<svg width="153" height="102" viewBox="0 0 153 102" fill="none" xmlns="http://www.w3.org/2000/svg">
<path d="M142.012 67.7732L130.942 61.6389C122.874 67.7733 120.217 69.4058 120.217 69.4058C120.217 69.4058 117.659 67.7733 109.59 61.6389L98.4221 67.7732C92.2722 70.7909 88.4347 76.9253 88.4347 83.6038V96.8619H120.217H152V83.6038C152.049 76.9253 148.162 70.7909 142.012 67.7732Z" fill="white" stroke="#231F20" stroke-miterlimit="10" stroke-linecap="round" stroke-linejoin="round"/>
<path d="M136.404 42.9389C136.797 40.9601 137.24 38.9813 137.683 37.0024C139.651 27.9988 131.434 20.9245 123.12 19.8857C119.086 19.391 114.904 20.3309 111.312 22.3097C110.82 22.5571 110.328 22.8539 109.885 23.2002C98.7665 26.9105 102.801 42.9389 102.801 42.9389C97.8809 44.7198 98.7665 50.0132 100.538 52.0415C101.866 53.5256 104.621 53.0804 104.621 53.0804C107.13 65.4974 113.379 68.8614 117.019 69.7519C117.511 69.9003 119.036 69.9498 119.578 69.9498C120.119 69.9498 121.644 69.9003 122.185 69.7519C125.875 68.812 132.074 65.448 134.534 53.0804C134.534 53.0804 137.289 53.5256 138.618 52.0415C140.438 50.0132 141.323 44.7198 136.404 42.9389Z" fill="white" stroke="#231F20" stroke-miterlimit="10" stroke-linecap="round" stroke-linejoin="round"/>
<path d="M123.12 19.9362C119.086 19.4415 114.904 20.3814 111.312 22.3602C110.82 22.6076 110.328 22.9044 109.885 23.2507C98.7665 26.9115 102.801 42.9398 102.801 42.9398C102.801 42.9398 108.311 35.4204 117.954 35.7667C125.777 36.0635 132.91 37.7455 136.404 42.8904C136.453 42.9398 136.453 42.9398 136.453 42.9398C136.846 40.961 137.289 38.9822 137.732 37.0034C139.651 28.0493 131.434 20.9751 123.12 19.9362Z" fill="white" stroke="#231F20" stroke-miterlimit="10" stroke-linecap="round" stroke-linejoin="round"/>
<path d="M126.467 49.9731C127.33 49.9731 128.03 49.2733 128.03 48.4101C128.03 47.5469 127.33 46.8472 126.467 46.8472C125.604 46.8472 124.904 47.5469 124.904 48.4101C124.904 49.2733 125.604 49.9731 126.467 49.9731Z" fill="#231F20"/>
<path d="M112.921 49.9731C113.784 49.9731 114.484 49.2733 114.484 48.4101C114.484 47.5469 113.784 46.8472 112.921 46.8472C112.058 46.8472 111.358 47.5469 111.358 48.4101C111.358 49.2733 112.058 49.9731 112.921 49.9731Z" fill="#231F20"/>
<path d="M133.24 71.8545C133.24 71.8545 128.037 78.1064 119.743 78.1064H119.645C111.351 78.1064 106.148 71.8545 106.148 71.8545" stroke="#231F20" stroke-miterlimit="10" stroke-linecap="round" stroke-linejoin="round"/>
<path d="M47.6173 53.3711H35.8642H27.716H15.9629C15.9629 53.3711 4.85176 64.4921 10.5308 77.301C14.8765 87.1312 26.5308 81.8686 31.7654 78.8897C37 81.8686 48.6543 87.0815 53 77.301C58.7284 64.4921 47.6173 53.3711 47.6173 53.3711Z" fill="white" stroke="#231F20" stroke-miterlimit="10" stroke-linecap="round" stroke-linejoin="round"/>
<path d="M53.1483 71.0953L42.7285 64.8894C34.8273 70.4995 32.21 71.9393 32.21 71.9393C32.21 71.9393 29.6914 70.4995 21.7902 64.8894L11.2716 71.0953C10.9753 71.2939 10.679 71.4428 10.3334 71.5918C4.60495 74.5706 1 83.0106 1 88.9186V96.8622H32.2594H63.5187V88.9186C63.5187 83.0106 59.9138 74.5706 54.1853 71.5918C53.8397 71.4428 53.494 71.2442 53.1483 71.0953Z" fill="white" stroke="#231F20" stroke-miterlimit="10" stroke-linecap="round" stroke-linejoin="round"/>
<path d="M48.6052 44.1862C48.7533 44.2358 50.0373 39.2711 50.1361 38.9732C50.9262 35.8951 51.3706 33.2141 50.0373 30.136C46.8768 22.8875 38.1854 19.2633 30.6792 19.8094C24.457 20.2562 17.6421 23.384 15.0742 29.3913C13.3458 33.4624 13.6915 38.1789 14.5804 42.4485C14.5804 42.5478 15.0248 44.1862 15.0248 44.1862C9.83963 46.0728 11.2223 50.5907 13.0989 52.6758C14.4816 54.2645 16.5063 54.8603 16.5063 54.8603C19.173 67.9175 28.4076 71.4425 32.2595 72.4354C32.2595 72.4354 32.1607 72.4354 32.2595 72.4354C36.1113 71.4425 44.5064 67.9175 47.1237 54.8603C47.1237 54.8603 49.1484 54.2645 50.5311 52.6758C52.4077 50.541 53.7904 46.0728 48.6052 44.1862Z" fill="white" stroke="#231F20" stroke-miterlimit="10" stroke-linecap="round" stroke-linejoin="round"/>
<path d="M39.0322 49.9731C39.8954 49.9731 40.5952 49.2733 40.5952 48.4101C40.5952 47.5469 39.8954 46.8472 39.0322 46.8472C38.169 46.8472 37.4692 47.5469 37.4692 48.4101C37.4692 49.2733 38.169 49.9731 39.0322 49.9731Z" fill="#231F20"/>
<path d="M25.4865 49.9731C26.3497 49.9731 27.0495 49.2733 27.0495 48.4101C27.0495 47.5469 26.3497 46.8472 25.4865 46.8472C24.6233 46.8472 23.9235 47.5469 23.9235 48.4101C23.9235 49.2733 24.6233 49.9731 25.4865 49.9731Z" fill="#231F20"/>
<path d="M32.2598 72.4353C32.2099 72.4353 32.2099 72.4353 32.2598 72.4353C32.16 72.4353 32.2598 72.4353 32.2598 72.4353Z" fill="white" stroke="#231F20" stroke-miterlimit="10" stroke-linecap="round" stroke-linejoin="round"/>
<path d="M32.2594 33.9589C35.7656 41.406 48.6052 44.1863 48.6052 44.1863C48.8027 43.8884 50.0373 39.3208 50.0866 38.9733C50.8768 35.8952 51.3212 33.2142 49.9879 30.1361C46.8274 22.8875 38.136 19.2633 30.6298 19.8094C24.4076 20.2562 17.5927 23.384 15.0248 29.3914C13.2964 33.4624 13.6421 38.179 14.531 42.4486C14.531 42.5479 14.9755 44.1863 14.9755 44.1863C25.7409 43.243 32.2594 33.9589 32.2594 33.9589Z" fill="white" stroke="#231F20" stroke-miterlimit="10" stroke-linecap="round" stroke-linejoin="round"/>
<path d="M14.5457 83.3162H17.3082" stroke="#231F20" stroke-miterlimit="10" stroke-linecap="round" stroke-linejoin="round"/>
<path d="M22.6876 83.3162H25.4985" stroke="#231F20" stroke-miterlimit="10" stroke-linecap="round" stroke-linejoin="round"/>
<path d="M30.8783 83.3162H33.6408" stroke="#231F20" stroke-miterlimit="10" stroke-linecap="round" stroke-linejoin="round"/>
<path d="M39.0201 83.3162H41.8311" stroke="#231F20" stroke-miterlimit="10" stroke-linecap="round" stroke-linejoin="round"/>
<path d="M47.2109 83.3162H49.9734" stroke="#231F20" stroke-miterlimit="10" stroke-linecap="round" stroke-linejoin="round"/>
<path d="M14.5457 90.6101H17.3082" stroke="#231F20" stroke-miterlimit="10" stroke-linecap="round" stroke-linejoin="round"/>
<path d="M22.6876 90.6101H25.4985" stroke="#231F20" stroke-miterlimit="10" stroke-linecap="round" stroke-linejoin="round"/>
<path d="M30.8783 90.6101H33.6408" stroke="#231F20" stroke-miterlimit="10" stroke-linecap="round" stroke-linejoin="round"/>
<path d="M39.0201 90.6101H41.8311" stroke="#231F20" stroke-miterlimit="10" stroke-linecap="round" stroke-linejoin="round"/>
<path d="M47.2109 90.6101H49.9734" stroke="#231F20" stroke-miterlimit="10" stroke-linecap="round" stroke-linejoin="round"/>
<path d="M105.036 63.1605L90.5342 55.1829C79.9788 63.1605 76.4767 65.2781 76.4767 65.2781C76.4767 65.2781 73.1227 63.2098 62.5672 55.1829L47.9179 63.1605C39.878 67.1001 34.7976 75.0778 34.7976 83.7942V101.03H76.4767H118.156V83.7942C118.156 75.0286 113.075 67.0509 105.036 63.1605Z" fill="white" stroke="#231F20" stroke-miterlimit="10" stroke-linecap="round" stroke-linejoin="round"/>
<path d="M97.6861 31.0324C98.2286 28.4781 98.7712 25.9237 99.3631 23.3694C101.928 11.7277 91.1753 2.54205 80.2746 1.16666C74.9475 0.528079 69.4725 1.75611 64.836 4.31041C64.1948 4.65426 63.5536 5.04723 62.9617 5.4402C48.411 10.2541 53.6394 31.0324 53.6394 31.0324C47.2272 33.341 48.3617 38.8918 50.7292 41.4952C52.4556 43.46 56.1056 44.1968 56.1056 44.1968C59.4103 60.3086 68.8806 64.6313 73.6651 65.8593C74.3063 66.0067 74.9968 66.1049 75.6874 66.1049C76.3779 66.1049 77.0685 66.0067 77.759 65.8593C82.5928 64.6804 92.0138 60.2595 95.3185 44.246C95.3185 44.246 98.9192 43.5091 100.695 41.5443C102.964 38.8917 104.098 33.341 97.6861 31.0324Z" fill="white" stroke="#231F20" stroke-miterlimit="10" stroke-linecap="round" stroke-linejoin="round"/>
<path d="M80.2252 1.16665C74.8981 0.528081 69.4231 1.75611 64.7866 4.3104C64.1454 4.65425 63.5042 5.04722 62.9123 5.44019C48.3616 10.2541 53.59 31.0323 53.59 31.0323C53.59 31.0323 60.7913 22.6326 69.0778 23.0747C78.5975 23.5167 85.6508 19.5379 85.6508 19.5379C90.2873 20.0783 97.686 31.0323 97.686 31.0323C98.2286 28.478 98.7711 25.9237 99.363 23.3694C101.879 11.6786 91.1259 2.49292 80.2252 1.16665Z" fill="white" stroke="#231F20" stroke-miterlimit="10" stroke-linecap="round" stroke-linejoin="round"/>
<path d="M84.8126 39.5532C85.9635 39.5532 86.8965 38.6201 86.8965 37.4692C86.8965 36.3183 85.9635 35.3853 84.8126 35.3853C83.6616 35.3853 82.7286 36.3183 82.7286 37.4692C82.7286 38.6201 83.6616 39.5532 84.8126 39.5532Z" fill="#231F20"/>
<path d="M68.1409 39.5532C69.2918 39.5532 70.2249 38.6201 70.2249 37.4692C70.2249 36.3183 69.2918 35.3853 68.1409 35.3853C66.99 35.3853 66.0569 36.3183 66.0569 37.4692C66.0569 38.6201 66.99 39.5532 68.1409 39.5532Z" fill="#231F20"/>
<path d="M75.9557 79.1483C77.9699 79.1483 79.6027 77.5156 79.6027 75.5014C79.6027 73.4873 77.9699 71.8545 75.9557 71.8545C73.9416 71.8545 72.3088 73.4873 72.3088 75.5014C72.3088 77.5156 73.9416 79.1483 75.9557 79.1483Z" fill="white" stroke="#231F20" stroke-miterlimit="10" stroke-linecap="round" stroke-linejoin="round"/>
<path d="M75.9547 85.4001C69.0507 85.4001 68.1409 101.03 68.1409 101.03H75.9547H83.7685C83.8221 101.03 82.8587 85.4001 75.9547 85.4001Z" fill="white" stroke="#231F20" stroke-miterlimit="10" stroke-linecap="round" stroke-linejoin="round"/>
</svg>
