<svg width="145" height="122" viewBox="0 0 145 122" fill="none" xmlns="http://www.w3.org/2000/svg">
<path d="M47.6931 35.4551C46.5821 33.868 45.6298 32.4396 44.6775 30.8525C40.551 24.8214 36.5833 18.7903 32.4567 12.918C32.298 12.6005 32.298 12.4418 32.4567 12.1244C33.0916 11.3308 33.8851 10.3786 34.52 9.585C34.8374 9.26757 34.9961 9.1089 35.4722 9.42632C38.329 10.696 41.0271 11.9657 43.8839 13.3941C48.3279 15.4574 52.9305 17.5206 57.3745 19.5839C57.5332 19.5839 57.692 19.7426 57.8507 19.7426C57.8507 19.4252 57.8507 19.2665 57.8507 18.9491C57.8507 13.2354 57.8507 7.52175 57.8507 1.80811C57.8507 0.855831 57.8507 0.85586 58.6443 0.697148C59.7552 0.538436 60.7075 0.379685 61.8185 0.0622602C62.2946 -0.0964521 62.4534 0.0622795 62.6121 0.379704C66.1037 5.93463 69.5954 11.4896 73.087 17.0445C75.1503 20.3775 77.3723 23.8691 79.4355 27.2021C79.5942 27.3608 79.7529 27.5195 79.9117 27.8369C80.7052 27.3608 81.3401 26.7259 82.1337 26.2498C86.5776 23.0755 91.0216 19.7426 95.6242 16.4097C96.5765 15.7748 96.5765 15.7748 97.5288 16.4097C98.3223 16.8858 98.9571 17.5206 99.7507 17.9968C100.068 18.1555 100.227 18.4729 99.9095 18.7903C97.3701 23.8691 94.8306 28.7892 92.2912 33.868C91.6563 34.979 91.6564 34.979 92.7674 35.4551C98.0049 37.8358 103.242 40.2165 108.321 42.5972C108.797 42.7559 108.956 43.0733 108.956 43.5495C108.956 44.5017 108.956 45.6127 108.956 46.565C108.956 47.0411 108.797 47.3585 108.321 47.6759C103.084 50.0566 97.6875 52.596 92.45 54.9767C91.8151 55.2941 91.8151 55.2942 92.1325 56.0877C94.6719 61.1665 97.2113 66.2453 99.9095 71.3241C100.227 71.8003 100.227 72.1177 99.592 72.4351C98.7985 72.9113 97.8461 73.5461 97.0526 74.1809C96.7351 74.4983 96.4178 74.4983 95.9417 74.1809C90.8629 70.5305 85.6253 66.7215 80.5465 62.9124C79.9117 62.4362 79.9117 62.4362 79.4355 63.0711C73.8806 71.9589 68.3256 80.6881 62.9294 89.576C62.612 90.2109 62.1359 90.3695 61.5011 90.2108C60.5488 90.0521 59.5965 89.7347 58.4855 89.576C57.8506 89.4173 57.6919 89.2585 57.6919 88.6237C57.6919 85.6082 57.6919 82.4339 57.6919 79.4184C57.6919 76.879 57.6919 74.181 57.6919 71.6416C57.6919 71.3241 57.6919 71.1654 57.6919 70.848C57.3745 71.0067 57.0571 71.0066 56.8984 71.1653C49.7563 74.4983 42.4556 77.6726 35.3135 81.0055C34.8374 81.1642 34.6786 81.1643 34.3612 80.8469C33.7264 80.0533 33.0915 79.2597 32.298 78.4662C31.9805 78.1487 31.9805 77.8313 32.298 77.5138C34.2025 74.8157 36.1071 71.9589 38.0117 69.1021C41.0272 64.4995 44.2014 60.0555 47.217 55.4529C47.217 55.4529 47.2169 55.2942 47.3756 55.1354C46.4234 54.9767 45.6298 54.818 44.8363 54.6593C37.0594 53.2309 29.4412 51.8025 21.823 50.3741C17.0616 49.4218 12.1415 48.6282 7.38011 47.6759C6.90398 47.5172 6.58661 47.3585 6.74532 46.8824C6.74532 45.9301 6.74532 44.9778 6.74532 43.8669C6.74532 43.3907 6.90398 43.0733 7.38011 43.0733C12.1415 42.2797 16.9029 41.3275 21.6642 40.3752C27.2192 39.4229 32.6154 38.3119 38.1703 37.3596C41.0272 36.8835 43.884 36.2487 46.7408 35.7725C47.217 35.4551 47.3757 35.4551 47.6931 35.4551ZM62.6121 64.0233C62.9295 63.8646 63.0882 63.8647 63.2469 63.7059C66.4211 62.2775 69.5954 60.8491 72.7696 59.4207C76.8961 57.5161 81.1814 55.6116 85.3079 53.707C85.784 53.5483 85.9428 53.2309 85.6254 52.7548C84.3557 50.3741 83.2446 47.9934 81.9749 45.6127C81.8162 45.1366 81.8162 44.9778 81.9749 44.5017C83.0859 42.4384 84.1969 40.2165 85.3079 37.9945C85.9428 36.8836 86.1015 37.0423 84.8318 36.4074C77.6897 33.2332 70.5477 29.9002 63.4056 26.5672C63.0882 26.4085 62.7707 26.4085 62.4533 26.2498C62.4533 26.5672 62.4533 26.8846 62.4533 27.0434C62.4533 29.9002 62.4533 32.9157 62.4533 35.7725C62.4533 36.4074 62.2946 36.5661 61.6597 36.7248C59.7552 37.0422 58.0094 37.3597 56.1048 37.6771C55.7874 37.6771 55.4699 37.8358 54.9938 37.9945C55.1525 38.1532 55.1525 38.3119 55.3112 38.4707C56.7397 40.3752 58.0094 42.4385 59.4378 44.343C59.5965 44.6605 59.7552 44.9778 59.4378 45.2953C58.803 46.0888 58.3268 47.0411 57.6919 47.8347C56.8984 49.1044 55.9461 50.3741 55.1526 51.6438C55.47 51.6438 55.6287 51.8025 55.7874 51.8025C57.6919 52.1199 59.7552 52.5961 61.6597 52.9135C62.2946 53.0722 62.4533 53.2309 62.4533 53.8658C62.4533 56.8813 62.4533 59.8968 62.4533 62.7536C62.612 63.3885 62.6121 63.7059 62.6121 64.0233ZM18.6487 45.1366C18.8075 45.2953 18.8075 45.2953 18.9662 45.2953C21.3469 45.7714 23.5688 46.0889 25.9495 46.565C33.8851 47.9934 41.8207 49.5805 49.7563 51.1676C50.2325 51.3263 50.5499 51.1677 50.7086 50.6915C51.8196 48.9457 52.9306 47.3585 54.0416 45.6127C54.359 45.2953 54.359 44.9778 54.0416 44.5017C52.9306 42.9146 51.8196 41.1688 50.7086 39.5817C50.3912 39.1055 50.0738 39.1055 49.5976 39.1055C40.0749 40.8513 30.7108 42.5972 21.1881 44.5017C20.3945 44.8191 19.601 44.9779 18.6487 45.1366ZM40.0749 16.0922C40.0749 16.4096 40.2336 16.5683 40.2336 16.7271C41.5033 18.4729 42.6142 20.2188 43.8839 21.9646C46.5821 25.9324 49.4389 30.0589 52.137 34.0267C52.4544 34.3442 52.6132 34.5028 53.0893 34.5028C54.5177 34.1854 55.7874 34.0267 57.2158 33.7093C57.8507 33.5506 58.0094 33.3918 58.0094 32.757C58.0094 30.2176 58.0094 27.5195 58.0094 24.9801C58.0094 24.504 57.8506 24.1865 57.3745 24.0278C53.8828 22.4407 50.3911 20.8536 47.0582 19.2665C44.6775 18.1555 42.4556 17.2032 40.0749 16.0922ZM40.551 74.0222C40.551 74.181 40.551 74.181 40.551 74.0222C41.0272 74.0222 41.3446 73.8635 41.662 73.7048C43.7253 72.7525 45.7885 71.8003 48.0105 70.848C51.1848 69.4196 54.359 67.9912 57.3745 66.5627C57.6919 66.404 58.0094 66.2453 58.0094 65.7692C58.0094 63.0711 58.0094 60.2142 58.0094 57.5161C58.0094 57.1987 57.8507 57.04 57.5333 56.8813C56.2636 56.7226 54.8351 56.4052 53.5654 56.0877C52.9306 55.929 52.6132 56.0877 52.2958 56.5638C48.4867 62.2775 44.6775 67.8324 41.0271 73.3874C40.7097 73.7048 40.7097 73.8635 40.551 74.0222ZM103.718 45.2953C103.56 45.1366 103.401 45.1366 103.401 45.1366C98.9571 43.0733 94.6719 41.1688 90.228 39.1055C89.7518 38.9468 89.5931 39.1055 89.4344 39.4229C88.6408 41.1688 87.6886 42.7559 86.895 44.5017C86.7363 44.9778 86.5776 45.2953 86.895 45.7714C87.8473 47.5173 88.6409 49.2631 89.5932 51.0089C89.9106 51.4851 90.0693 51.6438 90.5454 51.3264C93.4022 49.8979 96.4177 48.6282 99.4332 47.1998C100.862 46.7237 102.29 46.0888 103.718 45.2953ZM62.6121 8.31532C62.4534 8.47403 62.4533 8.79145 62.4533 8.95016C62.4533 12.918 62.4533 16.8858 62.4533 20.8536C62.4533 21.4884 62.612 21.8059 63.0882 21.9646C66.4211 23.5517 69.9128 24.9801 73.2457 26.5672C73.5631 26.7259 73.7219 26.8847 74.0393 26.8847C74.0393 26.8847 74.0393 26.8847 74.0393 26.726C70.3889 20.6949 66.5799 14.5051 62.6121 8.31532ZM62.6121 81.7991C62.6121 81.7991 62.7708 81.7991 62.6121 81.7991C66.5799 75.768 70.389 69.737 74.1981 63.5472C73.8806 63.7059 73.8806 63.7059 73.7219 63.7059C70.2303 65.2931 66.7386 66.8801 63.0882 68.626C62.612 68.7847 62.4533 69.1021 62.4533 69.5782C62.4533 73.546 62.4533 77.3552 62.4533 81.323C62.612 81.323 62.6121 81.6404 62.6121 81.7991ZM92.45 24.1865C92.45 24.0278 92.45 24.0278 92.45 24.1865C89.2757 26.4085 86.1014 28.6305 82.7685 31.0112C83.0859 31.1699 83.4033 31.3286 83.562 31.4873C84.8317 31.9635 85.9428 32.5983 87.2125 33.0744C87.6886 33.3919 87.8473 33.2331 88.1647 32.757C89.5931 30.0589 90.8628 27.3608 92.2912 24.6627C92.2912 24.3452 92.45 24.1865 92.45 24.1865ZM92.45 66.404C92.45 66.404 92.45 66.2453 92.45 66.404C91.0216 63.3884 89.5932 60.5317 88.006 57.6748C87.8473 57.3574 87.6886 57.3574 87.3711 57.5161C86.1014 58.151 84.9905 58.6271 83.7208 59.1032C83.5621 59.262 83.2447 59.2619 82.9272 59.5794C86.2602 61.8013 89.2757 64.0233 92.45 66.404Z" fill="white"/>
<path d="M101.655 105.923C105.306 103.384 108.797 103.86 111.972 106.875C112.448 106.558 112.924 106.082 113.4 105.765C116.733 103.384 121.494 103.86 124.034 107.034C124.827 108.145 125.303 109.415 125.303 110.685C125.462 113.859 125.462 117.033 125.462 120.207C125.462 120.683 125.303 120.842 124.827 120.842C124.192 120.842 123.399 120.842 122.764 120.842C122.129 120.842 121.97 120.683 121.97 120.049C121.97 117.509 121.97 114.811 121.97 112.272C121.97 111.637 121.971 111.002 121.812 110.367C121.336 108.621 119.59 107.51 117.844 107.669C116.257 107.828 114.828 108.463 113.717 109.415C113.4 109.732 113.241 109.891 113.4 110.367C113.559 111.002 113.559 111.637 113.559 112.272C113.559 114.97 113.559 117.668 113.559 120.207C113.559 120.842 113.4 121.001 112.765 121.001C112.13 121.001 111.495 121.001 110.861 121.001C110.384 121.001 110.067 120.842 110.067 120.207C110.067 117.509 110.067 114.811 110.067 112.272C110.067 111.954 110.067 111.478 110.067 111.161C109.75 108.621 107.528 107.193 104.988 107.828C103.877 108.145 102.925 108.621 102.131 109.574C101.973 109.732 101.814 110.208 101.814 110.526C101.814 113.7 101.814 116.874 101.814 120.049C101.814 121.001 101.814 121.001 100.862 121.001C100.227 121.001 99.5921 121.001 99.116 121.001C98.6398 121.001 98.4811 120.842 98.4811 120.366C98.4811 115.287 98.4811 110.367 98.4811 105.288C98.4811 104.812 98.6398 104.654 99.116 104.654C99.7508 104.654 100.386 104.654 101.02 104.654C101.655 104.654 101.814 104.812 101.814 105.447C101.497 105.447 101.655 105.606 101.655 105.923Z" fill="white"/>
<path d="M8.33245 121.319C5.15821 121.16 2.46004 119.89 0.238068 117.509C-0.0793561 117.192 -0.0793561 117.033 0.238068 116.716C0.872918 116.24 1.34905 115.605 1.82519 115.129C2.14262 114.811 2.30133 114.811 2.61875 115.129C3.72974 116.398 4.9995 117.351 6.74533 117.668C7.85632 117.827 8.96726 117.827 10.0782 117.351C12.4589 116.24 12.9351 113.224 10.7131 111.637C9.76086 110.843 8.49111 110.367 7.38012 109.891C6.26913 109.415 5.15819 108.939 4.0472 108.304C1.82523 106.876 0.555532 104.971 0.872956 102.114C1.19038 99.5749 2.77747 97.9878 4.99944 97.0356C8.33239 95.7659 11.5067 96.4007 14.3635 98.6227C14.6809 98.7814 14.6809 98.94 14.3635 99.2575C13.8874 99.8923 13.4112 100.369 12.9351 101.003C12.6176 101.321 12.4589 101.321 12.1415 101.162C10.5544 100.051 8.80859 99.5749 6.74533 100.051C5.15821 100.527 4.36465 101.638 4.36465 103.067C4.36465 104.019 4.8408 104.654 5.47565 105.13C6.58664 105.765 7.85626 106.4 8.96724 107.034C10.2369 107.669 11.5067 108.145 12.6177 108.939C14.8397 110.367 15.9506 112.589 15.6332 115.287C15.3158 117.986 13.7287 119.89 11.1893 120.842C10.5544 121.001 9.44344 121.001 8.33245 121.319Z" fill="white"/>
<path d="M43.5666 119.573C39.5988 122.271 34.996 121.001 32.7741 118.62C30.076 115.605 29.7586 111.002 32.1393 107.828C33.409 105.923 35.1548 104.812 37.5354 104.495C39.7574 104.177 41.8208 104.654 43.5666 105.923C43.5666 105.765 43.7253 105.765 43.7253 105.765C43.884 104.812 43.884 104.812 44.8363 104.812C45.4711 104.812 45.9472 104.812 46.5821 104.812C46.8995 104.812 47.0582 104.971 47.0582 105.288C47.0582 105.447 47.0582 105.606 47.0582 105.765C47.0582 110.526 47.0582 115.287 47.0582 120.207C47.0582 121.16 47.0582 121.16 46.1059 121.16C45.6298 121.16 44.995 121.16 44.5188 121.16C43.884 121.16 43.7253 121.001 43.7253 120.366C43.5666 119.89 43.5666 119.731 43.5666 119.573ZM43.4078 112.748C43.4078 111.954 43.4078 111.002 43.4078 110.209C43.4078 109.891 43.2491 109.574 43.0904 109.415C41.9794 108.145 40.5511 107.51 38.8052 107.51C35.4723 107.51 33.0915 110.685 33.8851 114.018C34.3612 116.081 35.631 117.351 37.6942 117.827C39.7575 118.303 41.662 117.668 43.0904 116.081C43.2491 115.922 43.4078 115.605 43.4078 115.287C43.5665 114.335 43.4078 113.542 43.4078 112.748Z" fill="white"/>
<path d="M87.5298 121.16C82.7684 121.16 79.1181 117.668 79.1181 112.748C79.1181 107.987 82.7684 104.336 87.5298 104.336C92.2912 104.336 95.9416 107.987 95.9416 112.907C95.9416 117.509 92.4499 121.16 87.5298 121.16ZM82.6098 112.748C82.6098 115.764 84.673 117.986 87.5298 117.986C90.3866 117.986 92.6086 115.764 92.6086 112.748C92.6086 109.733 90.3866 107.511 87.5298 107.511C84.673 107.511 82.6098 109.733 82.6098 112.748Z" fill="white"/>
<path d="M70.3889 121.16C66.1037 121.001 62.6121 118.303 61.8185 114.176C60.7075 107.828 66.1037 102.908 72.2935 104.495C74.0393 104.971 75.4677 105.923 76.7374 107.193C77.0548 107.51 77.0548 107.828 76.7374 108.145C76.1025 108.621 75.6264 109.098 75.1503 109.574C74.8328 109.891 74.6741 109.891 74.3567 109.574C73.4044 108.463 72.2935 107.669 70.7063 107.51C68.0082 107.193 65.6276 108.939 65.1514 111.637C64.6753 114.494 66.2624 117.192 68.9605 117.827C71.1825 118.303 73.0871 117.668 74.5155 116.081C74.8329 115.605 75.1502 115.605 75.6264 115.922C76.1025 116.24 76.5787 116.716 77.0548 116.874C77.531 117.192 77.5309 117.509 77.2135 117.985C75.9438 119.414 74.5155 120.366 72.6109 120.842C71.9761 121.001 71.1825 121.16 70.3889 121.16Z" fill="white"/>
<path d="M23.7276 112.113C23.7276 113.224 23.7276 114.335 23.7276 115.446C23.7276 117.033 24.5211 117.827 26.267 117.986C26.7431 117.986 27.2193 117.986 27.6954 117.827C28.0128 117.827 28.3302 117.827 28.3302 118.303C28.4889 118.938 28.6476 119.731 28.8063 120.366C28.8063 120.525 28.6477 120.842 28.489 120.842C26.1083 121.477 23.0928 121.319 21.3469 118.938C20.3947 117.668 20.3946 116.24 20.2359 114.811C20.2359 112.748 20.2359 110.526 20.2359 108.463C20.2359 107.828 20.0772 107.669 19.4424 107.669C18.6488 107.669 17.6965 107.669 16.9029 107.669C16.4268 107.669 16.1094 107.511 16.2681 107.034C16.2681 106.4 16.2681 105.765 16.2681 105.289C16.2681 104.812 16.4268 104.654 16.9029 104.654C17.8552 104.654 18.8075 104.654 19.7598 104.654C20.2359 104.654 20.5533 104.495 20.3946 104.019C20.2359 103.067 20.7121 102.273 21.3469 101.797C21.8231 101.321 22.2991 100.845 22.7753 100.527C22.934 100.368 23.2514 100.369 23.5688 100.369C23.7276 100.369 23.8863 100.686 23.8863 101.003C23.8863 101.956 23.8863 103.067 23.8863 104.019C23.8863 104.495 24.045 104.654 24.5212 104.654C25.7909 104.654 27.0605 104.654 28.3302 104.654C28.8064 104.654 28.9651 104.812 28.9651 105.289C28.9651 105.765 28.9651 106.4 28.9651 107.034C28.9651 107.511 28.8064 107.669 28.3302 107.669C27.0605 107.669 25.7908 107.669 24.6799 107.669C24.045 107.669 23.8863 107.828 23.8863 108.463C23.7276 109.574 23.5689 110.844 23.7276 112.113C23.7276 112.113 23.5689 112.113 23.7276 112.113Z" fill="white"/>
<path d="M54.6765 106.241C56.1049 104.812 57.692 104.178 59.4378 104.178C59.914 104.178 60.0726 104.336 60.0726 104.812C60.0726 105.447 60.0726 106.082 60.0726 106.717C60.0726 107.193 59.914 107.352 59.4378 107.352C57.5333 107.193 56.1048 108.145 54.8351 109.574C54.6764 109.732 54.6765 110.209 54.6765 110.526C54.6765 113.542 54.6765 116.716 54.6765 119.731C54.6765 120.525 54.6765 120.525 53.8829 120.525C53.4068 120.525 52.7719 120.525 52.2958 120.525C51.3435 120.525 51.3434 120.525 51.3434 119.573C51.3434 115.446 51.3434 111.478 51.3434 107.352C51.3434 106.558 51.3434 105.606 51.3434 104.812C51.3434 104.336 51.5022 104.178 51.9783 104.178C52.7719 104.178 53.4067 104.178 54.2002 104.178C54.6764 104.178 54.8352 104.336 54.6765 104.654C54.6765 105.447 54.6765 105.765 54.6765 106.241Z" fill="white"/>
<path d="M136.572 108.145C137.048 107.034 137.524 106.082 137.842 104.971C138 104.654 138.159 104.336 138.476 104.495C138.635 104.654 138.794 104.971 138.794 105.288C138.794 106.399 138.794 107.51 138.794 108.621C138.794 108.78 138.635 108.939 138.476 109.256C138.318 109.098 138.159 108.939 138.159 108.621C138.159 107.828 138.159 107.193 138 106.399C137.842 106.876 137.683 107.352 137.365 107.828C137.207 108.145 137.048 108.621 136.889 108.939C136.889 109.098 136.572 109.256 136.572 109.256C136.413 109.256 136.255 109.098 136.096 108.939C135.778 108.145 135.461 107.352 135.143 106.558C135.143 106.399 134.985 106.399 134.985 106.399C134.985 107.034 134.985 107.828 134.985 108.463C134.985 108.78 135.143 109.256 134.667 109.256C134.032 109.256 134.35 108.78 134.35 108.463C134.35 107.51 134.35 106.399 134.35 105.447C134.35 105.13 134.191 104.812 134.667 104.654C135.143 104.495 135.302 104.971 135.461 105.288C135.62 106.082 136.096 107.034 136.572 108.145Z" fill="white"/>
<path d="M144.19 105.923C143.873 105.765 143.714 105.765 143.555 105.765C143.079 105.13 142.603 104.971 141.968 105.13C141.175 105.447 141.016 106.082 141.016 106.717C141.016 107.828 141.651 108.463 142.444 108.621C143.238 108.621 143.555 108.304 143.714 107.51C143.397 107.51 143.238 107.51 143.079 107.51C142.92 107.51 142.92 107.352 142.762 107.193C142.92 107.034 142.92 106.876 143.079 106.876C143.397 106.876 143.873 106.876 144.19 106.876C144.349 106.876 144.508 107.193 144.508 107.352C144.666 108.78 143.238 109.732 141.968 109.256C140.857 108.939 140.381 107.987 140.381 106.717C140.381 105.606 141.175 104.654 142.127 104.495C143.079 104.177 144.19 104.812 144.19 105.923Z" fill="white"/>
<path d="M129.271 107.828C129.43 107.987 129.747 107.987 129.906 108.145C130.223 108.622 130.7 108.621 131.176 108.621C131.493 108.621 131.811 108.304 131.811 107.987C131.811 107.828 131.493 107.511 131.334 107.352C131.017 107.193 130.541 107.193 130.223 107.034C129.589 106.876 129.112 106.4 129.112 105.765C129.112 105.13 129.589 104.654 130.223 104.495C131.176 104.177 132.128 104.654 132.446 105.606C132.128 105.765 131.811 105.765 131.652 105.447C131.335 104.971 130.858 104.971 130.382 105.13C130.223 105.13 129.906 105.447 129.906 105.606C129.906 105.765 130.065 106.082 130.223 106.241C130.541 106.4 131.017 106.558 131.334 106.558C132.128 106.876 132.445 107.193 132.287 107.987C132.287 108.621 131.652 109.098 131.017 109.256C130.223 109.415 129.271 108.939 129.271 107.828Z" fill="white"/>
</svg>
