<svg width="153" height="99" viewBox="0 0 153 99" fill="none" xmlns="http://www.w3.org/2000/svg">
<path d="M0.158674 40.1543C0.476098 40.1543 0.793484 40.1543 1.11091 40.1543C8.41167 40.1543 15.8712 40.1543 23.172 40.1543C23.9655 40.1543 23.9655 40.1543 23.9655 40.9479C23.9655 41.5827 23.9655 42.2176 23.9655 42.8524C24.1242 44.1221 23.6481 45.0744 23.0133 46.0267C19.2042 52.5339 15.395 59.1998 11.7447 65.707C11.5859 65.8657 11.5859 66.0244 11.4272 66.1831C11.7446 66.1831 12.0621 66.1831 12.3795 66.1831C15.8712 66.1831 19.5216 66.1831 23.172 66.1831C23.8068 66.1831 23.9655 66.3418 23.9655 66.9767C23.9655 69.0399 23.9655 71.1032 23.9655 73.1665C23.9655 74.2775 24.1242 74.2774 22.8545 74.2774C15.5537 74.2774 8.253 74.2774 0.952235 74.2774C0.63481 74.2774 0.317425 74.2774 0 74.2774C0 72.6903 0 71.1032 0 69.5161C0 69.3574 0.158674 69.3574 0.158674 69.1987C4.12648 62.374 7.93561 55.7081 11.9034 49.0422C12.0621 48.7248 12.2208 48.4073 12.5382 47.9312C12.2208 47.9312 11.9034 47.9312 11.7447 47.9312C8.09427 47.9312 4.60262 47.9312 0.952235 47.9312C0.63481 47.9312 0.476098 47.9312 0.158674 47.9312C0.158674 45.2331 0.158674 42.6937 0.158674 40.1543Z" fill="white"/>
<path d="M151.888 0C152.364 0.634849 152.046 1.4284 151.888 2.22196C151.094 8.88788 150.301 15.3951 149.348 22.061C148.713 26.6637 148.237 31.2663 147.602 35.869C147.285 37.9322 147.126 40.1542 146.809 42.2175C146.809 42.3762 146.809 42.5349 146.809 42.5349C146.65 42.6936 146.491 43.011 146.333 43.1697C146.174 43.1697 145.857 43.011 145.698 42.8523C144.904 42.0588 144.111 41.1065 143.317 40.3129C140.619 37.2974 137.921 34.2818 135.223 31.2663C134.588 30.4728 133.953 30.314 133.001 30.314C129.192 30.1553 125.541 29.8379 121.732 29.5205C119.193 29.3618 116.653 29.203 114.114 29.0443C110.781 28.7269 107.448 28.5682 104.115 28.4095C101.576 28.2508 99.0365 28.0921 96.4971 27.9333H96.3383C96.0209 27.7746 95.8622 27.6159 95.5447 27.4572C95.7035 27.1398 95.8622 26.8224 96.021 26.6636C97.2907 26.0288 98.5603 25.3939 99.83 24.7591C103.798 22.8546 107.924 20.95 111.892 19.0455C118.082 16.1887 124.113 13.1731 130.303 10.3163C135.382 7.93561 140.46 5.39621 145.539 3.01552C147.285 2.22196 149.031 1.26968 150.777 0.476117C150.935 0.317405 151.094 0.31741 151.253 0.158698C151.57 -1.45329e-05 151.729 0 151.888 0ZM101.258 26.6636C101.258 26.6636 101.258 26.8224 101.258 26.6636C101.258 26.8224 101.417 26.8224 101.417 26.8224C104.433 26.9811 107.29 27.2985 110.305 27.4572C113.638 27.6159 116.812 27.9334 119.986 28.0921C124.589 28.4095 129.192 28.7269 133.636 29.0443C134.112 29.0443 134.271 28.8856 134.588 28.5682C135.54 26.9811 136.493 25.394 137.286 23.6481C137.445 23.3307 137.445 23.0133 137.286 22.6958C136.651 20.95 135.858 19.3629 135.223 17.617C135.064 17.1409 134.747 16.9822 134.112 17.1409C131.255 17.9345 128.398 18.728 125.383 19.6803C118.558 21.5849 111.892 23.4894 105.067 25.394C104.115 25.8701 102.687 26.3462 101.258 26.6636ZM101.1 25.394C102.687 25.0765 104.433 24.6004 106.02 24.1243C115.701 21.4262 125.224 18.728 134.747 16.0299C135.064 15.8712 135.382 15.7125 135.699 15.5538C139.667 11.586 143.793 7.61817 147.602 3.65036C147.761 3.49165 147.92 3.33296 147.92 3.17425C147.92 3.17425 147.92 3.17424 147.761 3.01552C132.366 10.475 116.653 17.9345 101.1 25.394ZM146.015 39.3606C146.015 39.3606 146.174 39.3606 146.015 39.3606C147.602 27.6159 149.031 16.0299 150.459 4.28523H150.3C150.142 4.44394 150.142 4.60266 149.983 4.76137C147.602 8.88789 145.222 12.8557 142.841 16.9822C141.73 18.8868 140.619 20.95 139.349 22.8546C139.191 23.172 139.032 23.4894 139.191 23.8068C141.254 28.8856 143.476 33.9644 145.539 39.0432C145.857 39.0432 145.857 39.2019 146.015 39.3606ZM138.556 21.9023C142.206 15.7125 145.698 9.68143 149.19 3.65036C149.19 3.65036 149.031 3.65038 149.031 3.49167C148.237 4.28523 147.444 5.23749 146.491 6.03105C143.158 9.36401 139.826 12.697 136.493 16.0299C136.175 16.3474 136.175 16.6648 136.334 16.9822C136.969 18.2519 137.445 19.5216 138.08 20.7913C138.238 21.2674 138.397 21.4261 138.556 21.9023ZM138.397 24.7591C138.238 24.9178 138.08 25.0765 138.08 25.0765C137.286 26.5049 136.493 27.9334 135.54 29.3618C135.382 29.6792 135.54 29.8379 135.699 30.1553C138.556 33.3296 141.413 36.3451 144.111 39.5193C144.269 39.6781 144.269 39.8368 144.428 39.9955L144.587 39.8368C142.682 34.758 140.619 29.8379 138.397 24.7591Z" fill="white"/>
<path d="M79.1973 98.7191C78.5624 98.5604 77.9276 98.4017 77.2927 98.0843C76.4992 97.7668 76.4992 97.7669 76.9754 96.9733C76.9754 96.8146 77.134 96.6559 77.134 96.6559C77.9276 96.8146 78.5624 97.132 79.1973 97.132C79.9908 97.132 80.7845 97.132 81.4193 96.8146C82.5303 96.3385 83.0064 95.3862 82.8477 93.9577C82.6889 93.9577 82.689 94.1165 82.5303 94.1165C81.2606 95.3862 79.8322 95.5449 78.2451 95.0687C76.6579 94.5926 75.7056 93.3229 75.5469 91.5771C75.2295 89.8312 75.5469 88.0854 76.8166 86.8157C78.4037 85.2286 80.9432 85.3873 82.5303 86.8157C82.689 86.9744 82.6889 86.9744 82.8477 87.1331C82.8477 86.9744 82.8477 86.8157 82.8477 86.657C82.8477 85.8635 83.1651 85.546 83.9587 85.8635C84.1174 85.8635 84.2761 86.1809 84.2761 86.3396C84.2761 89.0377 84.2761 91.7358 84.2761 94.5926C84.2761 96.6559 83.0064 97.9256 80.9432 98.243C80.7845 98.243 80.6257 98.243 80.6257 98.4017C80.3083 98.7191 79.6734 98.7191 79.1973 98.7191ZM76.9754 90.7835C76.9754 90.9422 76.9754 91.2597 76.9754 91.4184C77.1341 92.8468 78.0864 93.9578 79.3561 94.1165C80.7845 94.4339 82.0542 93.799 82.5303 92.5293C83.0064 91.2596 83.0064 89.99 82.5303 88.879C81.8955 87.768 80.7844 87.1332 79.5147 87.4506C78.0863 87.6093 76.9754 88.8789 76.9754 90.7835Z" fill="white"/>
<path d="M0.158691 83.1653C2.69809 83.1653 5.07879 83.1653 7.61819 83.1653C8.25304 83.1653 8.09431 83.6414 8.09431 83.9588C8.09431 84.2763 8.09432 84.5937 7.61819 84.5937C6.98334 84.5937 6.34851 84.5937 5.55495 84.5937C5.07881 84.5937 4.92006 84.7524 4.92006 85.2285C4.92006 88.4028 4.92006 91.4183 4.92006 94.5926C4.92006 95.3861 4.28523 95.7036 3.65038 95.3861C3.49167 95.2274 3.49161 95.0687 3.49161 94.91C3.49161 93.3229 3.49161 91.577 3.49161 89.9899C3.49161 88.4028 3.49161 86.8156 3.49161 85.2285C3.49161 84.7524 3.33296 84.5937 2.85682 84.5937C1.90455 84.5937 1.11097 84.5937 0.158691 84.5937C0.158691 83.9588 0.158691 83.4827 0.158691 83.1653Z" fill="white"/>
<path d="M123.319 50.6291C124.43 49.5181 125.859 48.7246 127.446 48.4071C130.938 47.6136 134.112 48.0897 136.651 50.7878C137.921 52.2162 138.556 53.9621 138.714 55.7079C138.873 57.295 138.873 58.7234 138.873 60.3106C138.873 64.7545 138.873 69.1984 138.873 73.4837C138.873 74.2772 138.873 74.2772 138.08 74.2772C135.699 74.2772 133.318 74.2772 130.938 74.2772C130.461 74.2772 130.303 74.1185 130.303 73.6424C130.303 69.0397 130.303 64.4371 130.303 59.8344C130.303 59.3583 130.303 59.0409 130.303 58.5647C129.985 56.3428 128.398 55.2318 126.176 55.7079C125.383 55.8666 124.748 56.1841 123.954 56.5015C123.478 56.6602 123.319 57.1363 123.319 57.6124C123.319 62.8499 123.319 67.9288 123.319 73.0076V73.1663C123.319 73.9598 123.319 73.9598 122.526 73.9598C120.78 73.9598 119.034 73.9598 117.447 73.9598C116.812 73.9598 116.177 73.9598 115.542 73.9598C115.066 73.9598 114.908 73.8011 114.908 73.3249C114.908 72.5314 114.908 71.5792 114.908 70.7856C114.908 60.7867 114.908 50.6291 114.908 40.6303C114.908 39.8367 114.908 39.8367 115.701 39.8367C117.923 39.8367 120.304 39.8367 122.526 39.8367C123.319 39.8367 123.319 39.8367 123.319 40.6303C123.319 43.4871 123.319 46.5026 123.319 49.3594C123.319 49.6769 123.319 49.8356 123.319 50.153C123.161 50.6291 123.319 50.6291 123.319 50.6291Z" fill="white"/>
<path d="M61.7391 51.2641C63.8023 49.0422 66.3417 47.7724 69.3573 47.9312C72.3728 48.0899 74.9122 49.0422 76.6581 51.7403C77.6103 53.1687 77.9278 54.7558 77.9278 56.5017C77.9278 62.2153 77.9278 67.9289 77.9278 73.6426C77.9278 74.1187 77.769 74.2774 77.2929 74.2774C74.9122 74.2774 72.3728 74.2774 69.9921 74.2774C69.516 74.2774 69.3573 74.1187 69.3573 73.6426C69.3573 69.0399 69.3573 64.2786 69.3573 59.6759C69.3573 59.3585 69.3573 59.041 69.3573 58.7236C69.0398 56.1842 67.4527 55.5493 65.2308 55.8668C64.4372 56.0255 63.8023 56.5016 63.0088 56.8191C62.5326 56.9778 62.374 57.2952 62.374 57.9301C62.374 62.6914 62.374 67.6115 62.374 72.3729C62.374 72.849 62.374 73.4839 62.374 73.96C62.374 74.2774 62.2153 74.4361 61.8979 74.4361C59.3585 74.4361 56.819 74.4361 54.2796 74.4361C53.9622 74.4361 53.8035 74.2774 53.8035 73.96C53.8035 73.8013 53.8035 73.4838 53.8035 73.3251C53.8035 65.3895 53.8035 57.6126 53.8035 49.5183C53.8035 48.7247 53.8035 48.7247 54.597 48.7247C56.819 48.7247 58.8823 48.7247 61.1043 48.7247C61.5804 48.7247 61.8978 48.8835 61.7391 49.3596C61.7391 49.9945 61.7391 50.6293 61.7391 51.2641Z" fill="white"/>
<path d="M34.1231 63.6437C34.2818 64.9133 34.7579 65.7069 35.5515 66.3417C37.6147 68.2463 40.789 68.405 43.3284 66.6592C43.9632 65.8656 44.7567 66.0243 45.5503 66.5005C46.82 67.4527 48.4072 68.0876 49.8356 69.0399C49.9943 69.1986 50.153 69.1985 50.3117 69.3573C49.9943 69.8334 49.6769 70.3096 49.2008 70.7857C46.1852 73.9599 42.5348 75.3883 38.2496 75.2296C35.7102 75.0709 33.3295 74.4361 31.1075 73.0077C28.2507 70.9444 26.5049 68.2463 25.87 64.7546C25.0765 60.6281 25.7113 56.6603 28.2507 53.1686C30.6314 49.9944 33.8057 48.4072 37.7735 48.0898C40.1542 47.9311 42.5348 48.4072 44.7567 49.5182C47.931 51.2641 49.6769 53.9622 50.4704 57.4538C50.7879 59.3584 50.7879 61.1042 50.9466 63.0088C50.9466 63.4849 50.7879 63.6437 50.153 63.6437C45.0742 63.6437 39.9955 63.6437 34.9167 63.6437C34.758 63.6437 34.4405 63.6437 34.1231 63.6437ZM34.4404 58.2474C34.5992 58.2474 34.758 58.2474 34.9167 58.2474C37.1386 58.2474 39.5193 58.2474 41.7413 58.2474C42.3761 58.2474 42.5348 58.0887 42.3761 57.4538C41.8999 55.3906 39.8367 54.1209 37.456 54.597C35.7102 55.0732 34.4404 56.6603 34.4404 58.2474Z" fill="white"/>
<path d="M103.639 42.6936C103.639 43.1697 103.639 43.4871 103.639 43.9633C103.639 45.3917 103.639 46.6614 103.639 48.0898C103.639 48.5659 103.798 48.8834 104.274 48.7247C106.02 48.7247 107.766 48.7247 109.511 48.7247C109.988 48.7247 110.146 48.8834 110.146 49.3595C110.146 51.2641 110.146 53.1686 110.146 55.2319C110.146 55.708 109.988 55.8667 109.511 55.8667C107.766 55.8667 105.861 55.8667 104.115 55.8667C103.798 55.8667 103.48 55.8667 103.48 56.3429C103.48 59.041 103.48 61.7391 103.639 64.5959C103.798 66.6591 104.909 67.6114 106.972 67.7701C108.083 67.7701 109.353 67.7701 110.464 67.7701C110.464 67.7701 110.464 68.0876 110.464 68.2463C110.464 70.1508 110.464 72.0554 110.464 73.9599C110.464 74.2774 110.464 74.5948 110.146 74.5948C107.289 75.0709 104.433 75.2296 101.576 74.4361C98.0841 73.3251 96.1795 70.7857 95.5446 67.294C95.3859 66.3417 95.2273 65.2308 95.2273 64.2785C95.2273 58.7236 95.2273 53.1686 95.2273 47.455C95.2273 46.9788 95.3859 46.6614 95.8621 46.5027C98.2428 45.3917 100.623 44.2807 102.845 43.1697C103.322 42.8523 103.322 42.6936 103.639 42.6936Z" fill="white"/>
<path d="M90.9421 61.4216C90.9421 65.3894 90.9421 69.3572 90.9421 73.4837C90.9421 74.1186 90.7834 74.2773 90.1486 74.2773C87.7679 74.2773 85.3872 74.2773 83.0065 74.2773C82.5304 74.2773 82.3716 74.1186 82.3716 73.6425C82.3716 65.5481 82.3716 57.4538 82.3716 49.3595C82.3716 48.8834 82.5304 48.7246 83.0065 48.7246C85.3872 48.7246 87.7679 48.7246 90.1486 48.7246C90.9421 48.7246 90.9421 48.7246 90.9421 49.5182C90.9421 53.486 90.9421 57.4538 90.9421 61.4216Z" fill="white"/>
<path d="M86.6569 46.1853C83.9588 46.1853 81.8955 44.122 81.8955 41.5826C81.8955 39.0432 83.9588 36.98 86.4982 36.98C89.1963 36.98 91.1008 39.0432 91.1008 41.5826C91.4182 44.122 89.355 46.1853 86.6569 46.1853Z" fill="white"/>
<path d="M55.8666 89.1963C55.8666 92.8467 53.1685 95.5448 49.6769 95.5448C46.1852 95.5448 43.3284 92.6879 43.3284 89.1963C43.3284 85.5459 46.0265 82.8478 49.6769 82.8478C53.1685 82.8478 55.8666 85.7046 55.8666 89.1963ZM49.6769 84.2762C46.9788 84.2762 45.0742 86.3394 45.0742 89.1963C45.0742 92.0531 46.9788 94.1164 49.6769 94.2751C52.375 94.2751 54.4382 92.2118 54.4382 89.355C54.4382 86.4982 52.375 84.2762 49.6769 84.2762Z" fill="white"/>
<path d="M39.3606 90.1486C40.3128 91.8944 41.2651 93.4816 42.376 95.2274C41.5825 95.7036 40.789 95.5448 40.4716 94.7513C39.8367 93.6403 39.0431 92.3706 38.4082 91.2596C38.0908 90.6248 37.7734 90.4661 36.9799 90.4661C36.0276 90.4661 36.0276 90.3074 36.0276 91.4183C36.0276 92.5293 36.0276 93.6403 36.0276 94.91C36.0276 95.5448 35.7101 95.5448 35.234 95.5448C34.7579 95.5448 34.4404 95.5448 34.4404 94.91C34.4404 91.2596 34.4404 87.4505 34.4404 83.8001C34.4404 83.324 34.5992 83.1653 35.0753 83.1653C36.1863 83.1653 37.456 83.1653 38.567 83.324C40.3128 83.6414 41.4238 84.5937 41.5825 86.1808C41.7412 87.7679 41.2651 89.355 39.678 89.9899C39.5193 89.9899 39.5193 89.9899 39.3606 90.1486ZM37.1386 89.1963C37.6147 89.1963 38.0909 89.0376 38.567 88.8789C39.678 88.5615 40.3128 87.7679 40.1541 86.4983C40.1541 85.3873 39.5192 84.5937 38.4082 84.435C37.7734 84.2762 37.1386 84.2763 36.5038 84.2763C36.1863 84.2763 36.0276 84.435 36.0276 84.7524C36.0276 85.8634 36.0276 86.8157 36.0276 87.9267C36.0276 89.3551 35.7101 89.1963 37.1386 89.1963Z" fill="white"/>
<path d="M72.2141 87.4505C72.2141 87.2918 72.2141 87.133 72.2141 86.9743C72.0554 86.3395 72.3728 86.1807 73.0077 86.1807C73.4838 86.1807 73.6424 86.3394 73.6424 86.8156C73.6424 89.355 73.6424 91.8944 73.6424 94.4338C73.6424 94.9099 73.6425 95.2274 73.0077 95.2274C72.2141 95.2274 72.2141 95.2274 72.2141 94.4338C72.2141 94.2751 72.2141 94.2751 72.2141 94.1164C72.0554 94.1164 72.0554 94.2751 71.8966 94.2751C70.1508 96.3383 65.8655 95.8622 64.9133 92.2118C64.5958 90.9421 64.5959 89.6724 65.2307 88.4027C66.5004 85.5459 69.8333 84.9111 72.0553 87.133C72.0553 87.2917 72.2141 87.2918 72.2141 87.4505ZM72.5314 90.7834C72.3727 90.7834 72.3727 90.7834 72.5314 90.7834C72.3727 90.466 72.3728 90.3073 72.3728 90.1485C72.2141 88.7201 71.2618 87.6092 69.8334 87.2917C68.5637 86.9743 67.294 87.7679 66.6592 88.8789C66.183 89.9899 66.183 91.1008 66.6592 92.3705C67.1353 93.4815 67.9288 94.1164 69.1985 94.1164C70.3095 94.2751 71.2618 93.7989 71.8966 92.688C72.0554 92.2118 72.214 91.4182 72.5314 90.7834Z" fill="white"/>
<path d="M91.4182 91.1009C90.3073 91.1009 89.3549 91.1009 88.4027 91.1009C87.9265 91.1009 87.9266 91.2596 87.9266 91.7357C88.244 93.0054 88.7201 93.799 89.9898 94.1164C91.2595 94.4338 92.5292 94.2751 93.4815 93.3228C93.7989 92.8467 94.4338 93.0054 94.5925 93.4816C94.5925 93.6403 94.5925 93.9577 94.4338 93.9577C93.6403 95.0687 92.5292 95.3861 91.1008 95.5448C88.8788 95.7035 86.9743 94.2752 86.3394 92.2119C85.7046 89.6725 86.8156 87.2918 88.7201 86.3395C91.7357 84.9111 95.0686 87.2918 94.9099 90.6248C94.9099 90.9422 94.7512 91.1009 94.4338 91.1009C93.4815 91.1009 92.3705 91.1009 91.4182 91.1009ZM93.4815 89.9899C93.3228 88.7202 92.8467 87.9267 91.7357 87.4505C90.6247 86.9744 89.6724 87.1331 88.7201 88.0854C88.244 88.5615 87.9266 89.1963 87.7679 89.9899C89.8311 89.9899 91.5769 89.9899 93.4815 89.9899Z" fill="white"/>
<path d="M24.1242 91.1008C23.172 91.1008 22.2197 91.1008 21.1088 91.1008C20.6326 91.1008 20.4739 91.2595 20.6326 91.7357C20.7913 92.8467 21.7436 93.9576 22.8546 94.1164C24.1242 94.4338 25.394 94.2751 26.3462 93.1641C26.8224 92.6879 26.9811 93.1641 27.2985 93.3228C27.6159 93.6402 27.4572 93.7989 27.2985 94.1164C26.0288 95.5448 24.4417 95.8622 22.5371 95.5448C20.6326 95.2273 19.6803 93.9577 19.2042 92.2118C18.8868 90.466 19.0455 88.7202 20.3152 87.4505C21.5849 86.1808 23.6482 85.7046 25.394 86.4982C26.8224 87.133 27.9334 89.0376 27.7747 90.7834C27.7747 91.2595 27.4572 91.2596 27.2985 91.2596C26.1875 91.1008 25.2352 91.1008 24.1242 91.1008ZM26.1876 89.9898C26.1876 88.4027 25.0766 87.2918 23.4894 87.2918C21.9023 87.2918 20.6326 88.8788 20.7913 89.9898C22.5371 89.9898 24.4417 89.9898 26.1876 89.9898Z" fill="white"/>
<path d="M11.4273 87.1331C12.0621 86.8157 12.697 86.3395 13.3318 86.1808C15.2364 85.7047 16.8235 86.8157 17.2996 88.7202C17.4583 89.1964 17.4584 89.5138 17.4584 89.9899C17.4584 91.577 17.4584 93.3229 17.4584 94.91C17.4584 95.5448 17.141 95.5448 16.6648 95.5448C16.1887 95.5448 15.8713 95.5448 15.8713 94.91C15.8713 93.3229 15.8713 91.7357 15.8713 90.1486C15.8713 89.8312 15.8713 89.6725 15.8713 89.3551C15.7126 88.2441 14.919 87.4505 13.9667 87.4505C12.8557 87.4505 11.9034 88.2441 11.7447 89.3551C11.7447 89.6725 11.586 89.9899 11.586 90.3073C11.586 91.8945 11.586 93.3229 11.586 94.91C11.586 95.5448 11.2686 95.5448 10.7925 95.5448C10.3163 95.5448 9.9989 95.5448 9.9989 94.91C9.9989 91.2596 9.9989 87.4505 9.9989 83.8001C9.9989 83.1653 10.3163 83.1653 10.7925 83.1653C11.2686 83.1653 11.586 83.1653 11.4273 83.8001C11.4273 84.9111 11.4273 86.0221 11.4273 87.1331Z" fill="white"/>
<path d="M98.4016 86.9744C99.0365 86.657 99.5125 86.1808 100.306 86.0221C102.369 85.546 104.115 86.8157 104.274 89.0377C104.433 90.9422 104.274 92.8467 104.274 94.91C104.274 95.5449 103.798 95.2275 103.48 95.3862C103.163 95.3862 102.846 95.3861 102.846 94.91C102.846 93.1642 102.846 91.2596 102.846 89.5138C102.846 88.4028 102.211 87.6093 101.258 87.4506C99.83 87.1331 98.5603 88.0854 98.5603 89.6725C98.5603 91.4184 98.5603 93.0054 98.5603 94.7513C98.5603 95.3861 97.9255 95.8623 97.2906 95.3862C97.1319 95.3862 97.1318 95.0687 97.1318 94.91C97.1318 92.0532 97.1318 89.3551 97.1318 86.657C97.1318 86.1809 97.4493 86.1808 97.7667 86.1808C98.0841 86.1808 98.5603 86.0221 98.5603 86.657C98.4016 86.8157 98.4016 86.9744 98.4016 86.9744Z" fill="white"/>
<path d="M116.971 98.4017C117.288 97.4494 117.606 96.6559 118.082 95.8623C118.241 95.5449 118.241 95.0688 118.082 94.5926C116.971 92.0532 116.019 89.3551 114.908 86.8157C114.908 86.657 114.749 86.4983 114.749 86.1808C115.225 86.1808 115.701 86.1808 116.019 86.1808C116.177 86.1808 116.336 86.4983 116.495 86.657C117.288 88.7203 118.082 90.6248 118.876 92.6881C118.876 92.8468 119.034 93.0055 119.193 93.3229C119.669 92.0532 120.145 91.1009 120.463 89.9899C120.78 89.0376 121.097 88.0854 121.574 87.1331C122.05 86.0221 122.05 86.0221 123.478 86.1808C123.478 86.4983 123.319 86.657 123.319 86.8157C121.891 90.3073 120.621 93.799 119.034 97.4494C118.399 98.5604 118.241 98.7191 116.971 98.4017Z" fill="white"/>
<path d="M113.321 93.1641C113.955 94.2751 113.797 94.4338 112.844 95.0686C110.94 96.1796 108.401 95.7035 107.131 94.1164C105.544 92.3705 105.544 89.6724 106.972 87.7679C108.242 86.022 110.781 85.5459 112.686 86.4982C113.797 87.133 113.797 87.2917 113.162 88.4027C112.051 87.4504 110.94 86.9743 109.512 87.4505C108.877 87.7679 108.401 88.0853 107.924 88.7201C106.972 89.9898 107.131 92.0531 108.242 93.1641C109.67 94.5925 111.099 94.5925 113.321 93.1641Z" fill="white"/>
<path d="M59.6757 89.3551C59.6757 91.1009 59.6757 93.0054 59.6757 94.7513C59.6757 95.3861 59.3583 95.3861 58.8822 95.3861C58.406 95.3861 58.0886 95.3861 58.0886 94.7513C58.0886 91.1009 58.0886 87.4505 58.0886 83.8001C58.0886 83.324 58.2473 83.1653 58.8822 83.1653C59.3583 83.1653 59.6757 83.1653 59.6757 83.8001C59.6757 85.7047 59.6757 87.4505 59.6757 89.3551Z" fill="white"/>
</svg>
