<svg width="270" height="225" viewBox="0 0 270 225" fill="none" xmlns="http://www.w3.org/2000/svg">
<path d="M19.0862 135.872H0V168.529H6.63362V155.881H19.0862C29.9095 155.881 32.2371 150.476 32.2371 145.876C32.2371 141.277 29.9095 135.872 19.0862 135.872ZM6.63362 142.082H18.1552C25.1379 142.082 25.7198 143.922 25.7198 145.991C25.7198 147.946 25.1379 149.786 18.1552 149.786H6.63362V142.082Z" fill="#1C1C1B"/>
<path d="M73.2026 154.846V135.872H66.5689V154.846C66.5689 160.48 63.1939 163.24 56.2112 163.24C49.2284 163.24 45.8534 160.48 45.8534 154.846V135.872H39.2198V154.846C39.2198 164.16 45.2715 169.334 56.2112 169.334C67.1508 169.219 73.2026 164.16 73.2026 154.846Z" fill="#1C1C1B"/>
<path d="M116.03 158.755C116.03 154.846 113.935 152.661 112.073 151.396C113.586 150.246 115.099 148.406 115.099 145.187C115.099 135.987 105.207 135.987 101.948 135.987H82.9785V168.644H99.8535C105.091 168.529 116.03 168.529 116.03 158.755ZM99.6207 141.852C106.138 141.852 108.349 142.312 108.349 145.187C108.349 146.106 108.349 148.521 100.901 148.521H89.6121V141.852H99.6207ZM102.181 162.32H89.6121V154.501H102.647C109.397 154.501 109.397 157.375 109.397 158.525C109.28 160.825 108.116 162.32 102.181 162.32Z" fill="#1C1C1B"/>
<path d="M155.134 162.32H132.323V135.872H125.69V168.529H155.134V162.32Z" fill="#1C1C1B"/>
<path d="M168.284 135.872H161.651V168.529H168.284V135.872Z" fill="#1C1C1B"/>
<path d="M212.392 159.905L213.091 158.525L207.155 155.651L206.457 156.915C204.129 161.055 200.522 163.125 195.168 163.125C187.487 163.125 182.948 159.215 182.948 152.776C182.948 145.187 187.022 141.162 194.819 141.162C200.522 141.162 204.246 143.232 205.991 147.141L206.573 148.521L212.509 145.876L211.927 144.497C209.366 138.632 202.966 135.067 194.819 135.067C183.297 135.067 176.198 141.622 176.198 152.201C176.198 160.365 181.086 169.219 194.819 169.219C203.315 169.219 209.017 166.23 212.392 159.905Z" fill="#1C1C1B"/>
<path d="M227.405 135.872H220.772V168.529H227.405V135.872Z" fill="#1C1C1B"/>
<path d="M253.591 148.521C247.539 147.946 243.815 147.486 243.815 144.957C243.815 141.622 249.284 141.162 252.543 141.162C259.642 141.162 262.203 144.152 263.483 145.646L264.647 146.911L269.534 143.002L268.72 141.852C267.556 140.242 263.017 135.182 252.66 135.182C239.043 135.182 237.065 141.737 237.065 145.531C237.065 153.351 245.91 154.156 252.892 154.846C259.177 155.421 263.25 155.996 263.25 158.64C263.25 162.895 254.754 163.125 253.823 163.125C245.56 163.125 243 159.79 241.371 157.72L240.44 156.455L236.366 159.905L235.203 160.94L236.25 162.09C238.927 164.965 242.884 169.449 253.358 169.449C261.039 169.449 270 166.69 270 158.87C270 150.016 260.922 149.211 253.591 148.521Z" fill="#1C1C1B"/>
<path d="M64.9396 214.525L54.8146 191.757H46.6681V224.414H53.069V203.371L62.4957 224.414H67.5L76.8103 203.371V224.414H83.2112V191.757H75.0646L64.9396 214.525Z" fill="#1C1C1B"/>
<path d="M99.8535 210.616H119.172V204.406H99.8535V197.967H123.013V191.757H93.2198V224.414H123.478V218.205H99.8535V210.616Z" fill="#1C1C1B"/>
<path d="M147.685 191.757H131.392V224.414H146.522C158.392 224.414 165.259 218.32 165.259 207.856C165.259 197.967 158.509 191.757 147.685 191.757ZM147.103 218.205H138.026V197.852H147.685C152.69 197.852 158.509 199.577 158.509 207.626C158.509 214.755 154.668 218.205 147.103 218.205Z" fill="#1C1C1B"/>
<path d="M179.457 191.757H172.823V224.414H179.457V191.757Z" fill="#1C1C1B"/>
<path d="M201.685 191.757L184.694 224.414H192.142L196.099 216.71H213.672L217.513 224.414H224.961L207.97 191.757H201.685ZM199.241 210.501L204.828 199.347L210.414 210.501H199.241Z" fill="#1C1C1B"/>
<path d="M202.384 117.979L187.254 109.125C190.28 109.47 192.957 108.205 195.401 106.365L200.056 111.885L197.263 104.986C200.289 102.571 202.849 100.041 205.991 99.926C214.603 99.6961 208.552 109.93 211.694 109.93C215.185 109.93 219.026 98.6611 210.647 93.6016C201.918 88.4271 194.353 95.9014 188.185 94.6365L211.228 84.5174H177.595L176.431 82.3326C182.483 85.0924 186.905 82.5626 189.815 79.6878L199.358 81.0677L191.444 77.963C193.306 76.0082 194.935 74.5133 196.914 75.2032C199.707 76.2382 201.453 78.7679 206.341 78.7679C214.72 78.8829 220.772 64.2792 209.716 57.8398C210.53 68.3039 205.642 68.7638 197.147 63.2443L200.056 58.5297L195.634 62.3244C187.487 58.7597 183.414 65.8891 180.039 68.1889C176.547 70.4887 173.405 65.8891 169.216 71.4086C175.5 69.3388 178.642 75.3182 182.716 71.4086C180.97 81.8726 174.918 68.1889 168.866 73.4784C174.103 73.8234 176.897 78.538 181.086 78.538C188.767 78.538 181.901 63.9343 192.724 63.9343L190.978 62.7844C197.147 62.2094 197.496 68.3039 206.69 68.4189C207.621 69.7987 204.246 69.9137 201.918 69.1088C201.569 71.0636 214.487 75.4332 211.345 60.8295C215.418 63.0143 214.603 72.2135 210.763 75.6632C210.065 76.3531 209.366 76.6981 208.901 76.0082C207.853 74.3983 210.53 74.5133 211.345 72.0985C208.435 74.6283 203.431 74.3983 200.056 71.2936C196.681 68.1889 191.56 64.3942 189.466 70.9486C187.254 77.503 185.509 80.4928 181.552 80.6078C176.082 80.7228 170.263 71.6386 164.211 76.5831C175.849 77.618 178.642 95.9014 188.884 96.1314C196.797 96.1314 198.66 92.6817 203.78 92.6817C209.017 92.6817 214.371 95.4414 214.371 102.111C214.371 106.135 212.16 108.435 212.16 108.435C212.16 108.435 213.789 105.101 212.974 100.961C212.16 96.9363 208.668 94.5215 204.129 94.5215C197.728 94.5215 192.608 104.871 185.509 104.871C171.31 104.871 167.586 77.733 152.69 81.8726C163.629 89.232 164.909 100.846 170.728 105.331C176.664 109.93 183.879 107.975 187.72 111.425C189.349 112.805 190.047 115.22 190.513 117.749H189.116C188.651 116.485 187.953 115.22 186.789 114.185C183.414 110.62 173.172 112.23 168.401 107.17C163.746 102.111 160.254 87.0472 150.944 84.7474C158.974 89.9219 160.836 103.031 166.655 109.585C172.474 116.025 180.039 112.575 183.53 116.025C184.112 116.6 184.694 117.174 185.16 117.749H178.526C177.944 117.634 177.362 117.519 176.664 117.519C175.616 117.519 174.453 117.634 173.405 117.749H164.095C162.931 117.404 161.767 116.715 160.836 115.795C156.297 110.965 156.647 106.02 156.996 100.041C157.927 105.676 158.974 118.439 168.634 117.06C156.414 112.92 163.513 92.2217 148.616 86.9322C146.987 86.3572 147.569 81.1827 151.642 80.3778C143.612 81.8727 143.612 78.9979 149.315 73.1334C145.823 75.3182 141.983 74.7433 141.168 77.1581C141.168 77.1581 147.802 87.3922 147.802 89.462C147.802 91.4168 143.496 99.5811 142.914 99.811C141.284 100.731 135.931 100.731 134.651 100.271C133.254 99.811 131.625 95.4414 132.207 94.0616C133.254 91.8768 141.401 90.1519 141.517 87.0472C141.634 84.5174 138.259 84.2874 138.375 85.6673C140.353 86.3572 141.168 89.232 135.466 90.4969L136.746 88.4271C136.746 88.4271 132.44 91.7618 132.207 91.9917C131.974 92.1067 131.043 92.2217 130.345 91.9917C129.763 91.7618 123.478 88.887 124.526 85.8973C124.526 85.8973 126.388 86.7022 131.043 86.7022C135.698 86.7022 136.164 84.6324 136.164 84.6324C136.164 84.6324 133.603 85.2073 131.043 85.2073C128.483 85.2073 125.922 84.6324 125.922 84.6324C123.944 84.1724 126.039 81.6427 126.737 81.6427C126.737 81.6427 131.276 81.6427 131.625 81.6427C131.974 81.6427 132.323 80.9527 131.625 80.9527C131.159 80.9527 128.017 80.8377 127.784 80.1478C127.319 78.8829 126.504 70.8336 126.504 70.8336C126.504 70.8336 127.552 68.3039 126.737 67.4989C125.922 66.694 125.457 67.154 125.457 67.154C127.435 78.308 118.823 85.3223 113.819 83.9425L113.237 83.8275C114.401 84.6324 115.797 85.4373 117.659 86.0123C108.349 87.9671 104.625 82.3326 103.112 78.9979C102.297 79.4579 102.297 81.5277 102.414 82.9076C100.435 80.8377 99.3879 77.618 101.134 75.3182C98.806 76.4681 98.6897 76.8131 98.6897 76.8131C98.806 74.8583 102.181 73.5934 103.927 71.4086C105.672 69.2238 105.323 65.7741 101.599 64.2792C101.832 67.7289 100.086 70.1437 96.5948 71.2936C93.2198 72.4435 93.8017 69.3388 90.5431 70.0287C95.7802 71.1786 95.431 78.308 100.668 81.1827C93.8017 79.5729 92.5215 70.2587 84.1422 71.1786C89.0302 64.3942 96.5948 70.2587 99.8534 65.5441C91.7069 67.3839 86.1207 60.5996 85.0733 53.0102C83.6767 41.5113 73.7845 47.1458 74.0172 41.5113C78.9052 43.6961 89.8448 35.3018 93.1034 44.846C96.4784 54.8501 103.345 58.8747 109.397 54.2751L82.8621 27.5975L86.2371 38.8665C79.2543 40.2464 70.7586 36.1067 75.4138 26.4476C68.7802 23.4579 60.0517 34.2669 68.0819 42.7762C71.806 46.6858 80.8836 45.3059 83.3276 53.2402L74.5991 52.5503L83.5603 54.8501L86.2371 62.6694L65.5215 52.5503L78.3233 67.269C70.875 71.1786 69.0129 60.0246 59.3534 60.2546C52.6034 60.3696 45.0388 67.269 48.181 75.3182C58.306 69.2238 61.5646 73.5934 65.8707 77.733L59.7026 81.0677L67.0345 78.8829C69.5948 81.2977 72.8534 83.2525 78.2069 82.9076C86.9353 82.2176 94.6164 79.4579 96.5948 81.8726C98.1077 83.5975 96.3621 84.7474 93.2198 84.7474H51.3233L68.0819 93.6016C66.4526 94.8665 61.7974 100.501 58.5388 100.501C55.2802 100.501 48.0646 95.5564 46.2026 104.181C53.6508 102.916 57.375 119.014 73.0862 106.135L65.7543 118.094H31.306V122.234H237.879V118.094H202.384V117.979ZM194.121 69.4538C197.961 71.0636 186.091 82.5626 182.483 82.1026C190.047 79.8028 190.28 67.8439 194.121 69.4538ZM195.75 103.146C198.427 96.1314 206.922 93.0267 210.297 99.2361C210.414 99.5811 210.181 99.811 209.599 99.2361C205.293 94.9815 199.707 99.0061 196.216 103.491C195.634 104.066 195.517 103.721 195.75 103.146ZM73.7845 27.3675C71.5733 31.1622 72.0388 38.0616 80.7672 40.1314C66.1034 43.3511 66.4526 26.7926 73.7845 27.3675ZM61.7974 72.4435C55.0474 68.7638 48.9957 73.1334 48.9957 73.1334C51.0905 66.464 63.6595 65.8891 61.7974 72.4435ZM64.8233 69.7987C63.7758 68.4189 62.9612 67.269 61.7974 66.924C60.4008 66.464 58.7715 66.464 57.375 66.579C55.6293 66.694 54.1164 66.694 53.6508 65.6591C53.3017 64.9692 53.6508 64.2792 54.5819 63.5893C55.5129 62.8993 56.9095 62.4394 58.1896 62.4394C59.7026 62.3244 61.0991 62.6694 61.9138 63.4743C62.7284 64.2792 63.0776 64.2792 63.3103 64.1642C63.5431 64.0492 63.4267 63.5893 63.4267 63.2443C63.4267 63.0143 63.3103 62.7844 63.5431 62.7844C65.9871 63.1293 67.1508 64.6242 68.431 66.1191C70.5258 68.5338 73.6681 72.3285 81.4655 71.0636C79.4871 77.848 68.3146 75.8932 64.8233 69.7987ZM71.1077 79.1129C70.6422 76.1232 85.8879 73.9384 86.0043 78.193C86.1207 81.8727 71.5733 82.3326 71.1077 79.1129ZM149.547 97.5113C144.543 108.205 156.879 114.875 159.207 117.06C159.44 117.289 159.789 117.634 160.022 117.979H155.832C154.552 115.45 153.272 113.495 151.875 112.805C152.922 114.3 153.621 116.025 154.319 117.979H152.341C149.431 112.345 144.543 107.975 149.547 97.5113ZM148.267 117.979H146.522L144.427 112.115C146.056 112.92 147.22 115.105 148.267 117.979ZM143.263 117.979H141.284C142.099 114.76 142.565 111.31 140.47 107.285C143.728 109.815 143.728 113.955 143.263 117.979ZM139.772 117.979H138.026C138.841 115.45 138.957 112.805 136.862 109.01C140.004 111.655 140.237 114.76 139.772 117.979ZM126.97 117.979C128.017 113.61 126.155 112.23 122.315 108.205C128.017 112.115 129.996 114.76 129.647 117.979H126.97ZM131.509 110.16C134.302 113.38 135.116 115.795 135.233 117.864H133.487C133.603 115.91 133.138 113.495 131.509 110.16ZM131.276 102.571C133.72 102.571 138.491 102.456 138.608 102.456C139.306 102.456 139.422 102.686 139.422 102.801C139.422 103.031 139.073 104.296 138.608 104.411C138.608 104.411 133.953 105.446 131.276 105.331C128.599 105.446 123.944 104.411 123.944 104.411C123.478 104.296 123.129 103.031 123.129 102.801C123.129 102.686 123.246 102.456 123.944 102.456C123.944 102.456 128.716 102.571 131.276 102.571ZM124.06 85.7823C122.082 86.4722 121.733 89.6919 127.552 90.9568C125.69 91.1868 121.034 90.3819 120.802 87.1622C120.685 84.6324 124.177 84.4024 124.06 85.7823ZM118.358 91.1868C123.828 91.5318 129.53 94.1766 129.53 94.1766C130.228 95.5564 128.599 99.926 127.086 100.386C125.806 100.731 119.172 100.041 118.241 97.3963C122.198 98.4312 122.431 96.9363 122.431 96.9363C122.431 96.9363 118.823 96.9363 117.427 94.5215C120.22 95.5564 121.616 94.5215 121.616 94.5215C121.616 94.5215 116.147 92.4517 116.03 91.1868H118.358ZM112.888 97.1663L113.004 96.1314C113.353 109.01 122.78 110.965 122.78 117.404C122.78 117.634 122.78 117.749 122.78 117.979H121.151C121.267 116.83 121.034 115.68 120.103 114.53C113.935 106.48 113.703 104.641 113.703 104.641C114.284 110.735 118.241 111.54 119.172 117.979H116.612C115.681 113.15 110.793 111.31 112.888 97.1663ZM113.47 117.979H108.931L111.375 114.185C112.539 115.68 113.237 116.945 113.47 117.979ZM106.138 117.979H103.112C107.534 109.815 105.091 96.4763 108.931 92.3367C106.254 97.0513 110.444 108.55 106.138 117.979ZM107.302 87.0472C105.44 88.657 97.1767 95.9014 99.7371 115.45C102.414 111.195 100.086 95.0965 107.884 89.347C102.414 95.9014 105.323 107.515 101.366 117.979H97.5259C98.6897 109.47 93.9181 96.8213 107.302 87.0472ZM92.056 117.979H90.3103C91.5905 116.255 92.5215 114.07 93.569 111.77C93.569 113.15 93.2198 115.565 92.056 117.979ZM100.668 84.0575C102.297 85.7823 92.2888 90.2669 87.4008 88.5421C95.5474 88.657 99.0388 82.3326 100.668 84.0575ZM89.2629 90.6119C94.8491 90.6119 98.2241 88.772 99.6207 87.3922C99.0388 91.4168 94.7327 92.7967 89.2629 92.7967C83.7931 92.7967 78.7888 86.8172 74.5991 90.8418C81.931 90.0369 82.9784 97.6262 91.2414 95.0965C84.1422 102.686 78.9052 89.347 70.6422 93.1416C74.8319 83.2525 83.6767 90.6119 89.2629 90.6119ZM48.5302 102.801C52.8362 96.5913 56.0948 105.101 63.194 100.386C65.5215 104.066 59.819 106.365 56.444 104.296C53.069 102.226 50.2758 102.111 48.5302 102.801ZM69.2457 107.285C66.1034 109.7 58.0733 112.115 58.1896 106.94C66.4526 108.55 68.431 96.8213 75.7629 100.271C74.0172 100.616 72.3879 104.871 69.2457 107.285ZM92.5215 104.641C92.5215 109.01 91.9396 112.23 90.8922 114.645L78.9052 117.979H68.1983L92.5215 104.641Z" fill="#BA9765"/>
<path d="M138.026 55.885C132.207 56.46 133.138 64.2793 137.56 64.2793C141.866 64.2793 142.565 62.3244 145.823 62.3244C149.082 62.3244 150.246 64.5092 152.922 64.5092C155.483 64.5092 157.112 62.6694 155.948 60.9446C154.203 63.7043 151.177 59.9096 148.965 59.9096C145.59 59.9096 144.078 61.2895 141.866 62.4394C139.422 63.7043 136.978 62.5544 137.909 61.0595C135.931 60.9446 134.651 58.5298 138.026 55.885Z" fill="#BA9765"/>
<path d="M158.974 31.9671C153.388 40.1314 160.836 48.6406 149.082 51.5154C163.047 51.6304 155.832 39.9014 160.836 33.117C165.957 26.3326 171.659 28.8624 173.522 21.0431C170.612 27.4825 162.116 27.2525 158.974 31.9671Z" fill="#BA9765"/>
<path d="M142.914 47.6057C139.772 44.501 141.168 38.9815 141.168 38.9815C141.168 38.9815 136.164 45.1909 142.914 47.6057Z" fill="#BA9765"/>
<path d="M162.698 34.7269C158.159 41.2813 163.397 50.8254 153.97 53.5852C165.841 53.9302 160.138 40.3614 164.444 35.6468C168.168 30.2423 171.659 31.1622 173.405 25.4127C170.845 30.0123 165.259 30.9322 162.698 34.7269Z" fill="#BA9765"/>
<path d="M179.341 54.9651C169.565 51.0554 163.746 60.1396 163.746 62.8994C166.073 61.7495 170.03 57.6098 171.427 56.5749C174.103 54.8501 178.293 55.885 179.341 54.9651Z" fill="#BA9765"/>
<path d="M156.297 69.3388C156.996 70.9487 159.905 67.384 164.328 68.7639C162.233 67.269 155.948 67.269 156.297 69.3388Z" fill="#BA9765"/>
<path d="M188.651 50.1355C186.556 59.5647 168.517 52.5503 168.75 66.1191C172.59 59.4497 190.164 60.0246 188.651 50.1355Z" fill="#BA9765"/>
<path d="M153.039 73.7084C153.388 75.7782 156.996 71.5236 163.862 74.3983C161.534 71.0636 152.457 70.7186 153.039 73.7084Z" fill="#BA9765"/>
<path d="M138.957 47.6057C131.974 36.3367 148.384 33.692 143.728 24.3778C144.31 31.6222 128.599 39.2115 138.957 47.6057Z" fill="#BA9765"/>
<path d="M140.703 91.4168C139.772 92.1068 137.56 92.6817 135.698 93.8316C135.465 94.1766 135.233 95.2115 134.884 95.4415C136.629 95.9014 140.586 93.3717 140.703 91.4168Z" fill="#BA9765"/>
<path d="M118.241 65.3142C115.565 64.7392 112.306 67.499 109.164 68.8788C112.073 73.1335 118.94 73.4784 121.733 74.9733C122.315 73.9384 124.409 66.4641 118.241 65.3142ZM115.099 72.0986C112.306 71.0637 113.47 65.6591 117.194 66.4641C116.961 66.924 115.215 70.1437 115.099 72.0986ZM117.194 72.7885C118.474 71.5236 119.289 68.3039 119.522 67.8439C122.315 69.9138 119.522 73.5934 117.194 72.7885Z" fill="#BA9765"/>
<path d="M128.134 60.9445C125.108 64.3942 123.013 60.5996 119.289 60.5996C116.03 60.5996 112.306 64.1643 111.608 61.8645C111.142 60.0246 114.401 57.0349 118.823 56.6899C115.099 55.655 109.047 59.1047 107.884 62.7844C106.72 62.8994 105.672 62.5544 105.672 62.5544C107.185 68.8788 113.703 62.4394 116.728 62.4394C119.405 62.4394 127.901 68.5339 128.134 60.9445Z" fill="#BA9765"/>
<path d="M127.203 22.538L130.461 30.9322C130.461 30.9322 127.552 34.3819 127.552 40.4764C127.552 52.4353 137.444 53.4702 136.746 48.7556C129.763 51.8604 129.414 41.9712 131.392 39.9014C131.392 39.9014 130.112 45.076 134.767 47.0308C128.599 36.9117 140.819 33.002 140.819 24.9528C140.819 18.1684 136.629 15.9836 136.746 9.77411C136.862 2.29978 147.918 0.344953 148.035 3.2197C148.151 5.28951 140.004 5.51949 139.888 13.2238C139.772 20.4682 147.918 22.193 147.685 29.2074C147.569 33.807 139.19 38.0616 144.427 46.6858L156.297 13.6838L147.22 23.8029C144.31 20.2382 142.099 19.8932 142.099 13.4538C142.099 7.01436 149.315 6.09444 149.315 3.10471C149.315 0.689923 145.707 0.344953 143.03 0.229963C138.957 -1.60933e-05 131.741 3.56467 131.741 11.039C131.741 18.5133 136.862 22.308 131.741 29.3224L127.203 22.538ZM137.91 20.9281C141.168 31.0472 130.461 33.692 129.647 40.3614C128.948 32.3121 139.19 28.4024 137.91 20.9281Z" fill="#BA9765"/>
<path d="M119.638 76.0082C118.009 74.8583 111.957 75.0883 108.698 71.6386C108.698 71.6386 108.465 72.3285 108.815 72.9035C104.741 74.5133 105.905 78.423 105.905 78.423C105.905 78.423 108.582 75.2033 110.328 75.2033C110.328 75.2033 109.978 77.848 110.677 78.9979L111.026 79.5729C109.397 74.2833 119.638 76.0082 119.638 76.0082Z" fill="#BA9765"/>
<path d="M89.1466 29.0924L96.5949 32.6571C96.8276 35.1869 97.875 37.8316 100.435 40.8214C103.345 44.1561 111.142 45.191 111.491 53.0103C113.935 50.5955 111.957 45.076 106.72 41.9712C86.819 30.3573 120.453 12.1889 98.8061 5.74948C117.427 4.4846 109.513 21.1581 111.026 27.8275C113.121 37.0267 121.733 34.8419 126.272 40.5914L121.267 12.6489L116.496 32.1971C110.095 31.2772 112.422 22.308 112.539 14.2587C112.888 -1.03491 86.3535 3.3347 89.9612 11.9589C91.3578 15.1786 100.319 7.93429 100.319 15.6386C100.319 20.9281 97.0604 25.5277 96.7112 30.5873L89.1466 29.0924ZM91.7069 10.694C89.8449 8.50924 98.8061 6.09445 100.435 11.499C96.013 8.73921 92.5216 11.7289 91.7069 10.694Z" fill="#BA9765"/>
<path d="M107.534 26.6776C98.6897 43.1211 129.181 35.6468 125.224 49.6755C131.625 34.4969 104.276 43.0061 107.534 26.6776Z" fill="#BA9765"/>
<path d="M186.44 102.111C191.444 101.996 195.517 97.0513 198.31 95.2115C194.237 96.1314 192.026 99.8111 186.44 99.9261C177.129 100.156 172.358 74.1683 156.53 79.4579C172.823 80.7228 172.474 102.456 186.44 102.111Z" fill="#BA9765"/>
<path d="M118.474 47.9507C118.009 47.9507 117.66 47.8357 117.194 47.6058C115.099 46.3409 113.935 42.7762 111.841 43.1212C113.121 44.0411 112.539 47.3758 114.285 49.3306C115.099 50.2505 116.263 50.8255 117.66 50.8255C120.22 50.8255 122.198 48.8706 122.198 46.3409C122.198 44.846 121.5 43.5811 120.453 42.7762C118.823 41.5113 116.612 40.7064 109.978 38.5216C94.2672 33.232 117.776 17.4784 106.953 8.62424C112.888 21.3881 95.5474 28.8624 104.509 37.8316C108.466 41.8563 117.078 41.2813 119.987 44.1561C120.453 44.616 120.685 45.191 120.685 45.7659C120.802 46.9158 119.754 47.9507 118.474 47.9507Z" fill="#BA9765"/>
<path d="M104.858 57.3798C102.065 57.2648 97.4095 56 95.8966 52.2053C94.5 55.655 98.9224 64.8542 104.858 57.3798Z" fill="#BA9765"/>
<path d="M142.099 93.9466C141.866 94.4066 140.703 94.8665 138.026 95.9014C137.677 96.4764 136.862 97.3963 136.047 97.8562C139.19 98.7762 142.681 95.6714 142.099 93.9466Z" fill="#BA9765"/>
<path d="M155.25 66.5791C155.948 67.614 156.879 65.6591 158.625 64.6242C156.297 64.3942 154.901 66.0041 155.25 66.5791Z" fill="#BA9765"/>
<path d="M153.272 68.0739C150.129 66.694 146.871 63.9343 144.194 64.5092C138.026 65.7741 140.121 73.2485 140.703 74.1684C143.496 72.5585 150.362 72.2136 153.272 68.0739ZM147.336 71.1786C147.336 71.1786 145.474 66.0041 145.241 65.5441C149.082 64.7392 150.246 70.1437 147.336 71.1786ZM142.914 66.809C143.147 67.269 143.961 70.4887 145.241 71.7536C142.914 72.6735 140.237 68.8788 142.914 66.809Z" fill="#BA9765"/>
<path d="M167.004 49.9055C164.211 52.8953 164.444 55.425 160.254 58.0698C165.724 60.3696 165.841 53.2402 171.194 51.7454C174.918 50.7104 177.711 55.0801 182.948 52.6653C188.302 50.2505 186.323 40.5914 188.884 36.3367C191.444 32.0821 198.543 28.0575 203.547 36.6817C203.547 36.6817 195.052 28.4024 191.095 38.2916C193.888 35.9918 197.961 35.3018 197.961 37.4866C195.75 38.1766 192.259 39.4415 192.142 47.1458C192.026 56.115 188.302 58.0698 185.509 59.9096C181.435 62.5544 171.892 62.4394 169.681 68.5339L202.849 53.9302H192.724C194.004 46.5708 191.211 35.6468 205.06 38.1766C206.806 34.4969 195.284 22.8829 185.159 36.2217L184.228 32.887C182.25 50.4805 172.707 43.5811 167.004 49.9055ZM184.461 41.0513C186.207 43.9261 181.086 49.2156 181.086 49.2156C182.366 49.6755 182.366 51.6304 180.737 52.0903C177.711 53.0102 175.384 49.6755 171.543 50.5955C172.241 49.1006 180.272 49.4456 184.461 41.0513Z" fill="#BA9765"/>
<path d="M102.53 61.8645C88.5646 62.0944 98.806 46.9158 88.4483 44.731C93.8017 48.2957 90.8922 51.5154 90.8922 57.2649C90.8922 64.2792 99.3879 66.4641 102.53 61.8645Z" fill="#BA9765"/>
<path d="M151.409 41.5113C149.78 45.8809 145.358 47.0308 143.147 50.8255C144.427 50.8255 150.828 49.4456 153.272 45.4209C155.599 41.5113 153.272 30.2423 160.72 27.4825C168.517 24.6078 176.664 20.3532 167.47 11.039C181.552 14.6037 173.638 29.4374 172.009 31.6222C170.379 33.692 165.259 37.7166 165.259 44.271C165.259 49.1006 160.836 54.6201 157.461 55.3101C161.069 56.8049 166.539 48.5257 166.539 48.5257L184.112 25.9877L173.987 31.1622C173.987 31.1622 176.78 28.7474 176.78 20.9281C176.78 9.88911 164.677 7.8193 164.793 11.269C164.909 13.5688 168.866 15.1786 168.983 18.9733C169.099 22.768 163.746 24.8378 159.556 26.1027L157.694 19.8932V26.9076C150.828 30.3573 153.155 36.9117 151.409 41.5113Z" fill="#BA9765"/>
</svg>
