<svg width="92" height="76" viewBox="0 0 92 76" fill="none" xmlns="http://www.w3.org/2000/svg">
<path d="M6.50345 45.9589H0V57.039H2.26034V52.7474H6.50345C10.1914 52.7474 10.9845 50.9137 10.9845 49.3532C10.9845 47.7926 10.1914 45.9589 6.50345 45.9589ZM2.26034 48.0657H6.18621C8.56552 48.0657 8.76379 48.6899 8.76379 49.3922C8.76379 50.0554 8.56552 50.6797 6.18621 50.6797H2.26034V48.0657Z" fill="#1C1C1B"/>
<path d="M24.9431 52.3963V45.9589H22.6827V52.3963C22.6827 54.308 21.5327 55.2443 19.1534 55.2443C16.7741 55.2443 15.6241 54.308 15.6241 52.3963V45.9589H13.3638V52.3963C13.3638 55.5565 15.4259 57.3121 19.1534 57.3121C22.881 57.2731 24.9431 55.5565 24.9431 52.3963Z" fill="#1C1C1B"/>
<path d="M39.5362 53.7228C39.5362 52.3963 38.8224 51.655 38.1879 51.2259C38.7035 50.8357 39.219 50.2115 39.219 49.1191C39.219 45.9979 35.8483 45.9979 34.7379 45.9979H28.2741V57.078H34.0241C35.8086 57.039 39.5362 57.039 39.5362 53.7228ZM33.9448 47.9877C36.1655 47.9877 36.919 48.1437 36.919 49.1191C36.919 49.4312 36.919 50.2505 34.381 50.2505H30.5345V47.9877H33.9448ZM34.8173 54.9322H30.5345V52.2792H34.9759C37.2759 52.2792 37.2759 53.2546 37.2759 53.6447C37.2362 54.425 36.8397 54.9322 34.8173 54.9322Z" fill="#1C1C1B"/>
<path d="M52.8603 54.9322H45.0879V45.9589H42.8276V57.039H52.8603V54.9322Z" fill="#1C1C1B"/>
<path d="M57.3414 45.9589H55.081V57.039H57.3414V45.9589Z" fill="#1C1C1B"/>
<path d="M72.3707 54.1129L72.6086 53.6447L70.5862 52.6694L70.3483 53.0985C69.5552 54.5031 68.3259 55.2053 66.5017 55.2053C63.8845 55.2053 62.3379 53.8788 62.3379 51.694C62.3379 49.1191 63.7259 47.7536 66.3828 47.7536C68.3259 47.7536 69.5948 48.4558 70.1897 49.7823L70.3879 50.2505L72.4103 49.3531L72.2121 48.885C71.3397 46.8952 69.1586 45.6858 66.3828 45.6858C62.4569 45.6858 60.0379 47.9096 60.0379 51.4989C60.0379 54.269 61.7034 57.2731 66.3828 57.2731C69.2776 57.2731 71.2207 56.2587 72.3707 54.1129Z" fill="#1C1C1B"/>
<path d="M77.4862 45.9589H75.2259V57.039H77.4862V45.9589Z" fill="#1C1C1B"/>
<path d="M86.4086 50.2505C84.3465 50.0554 83.0776 49.8993 83.0776 49.041C83.0776 47.9096 84.9414 47.7535 86.0517 47.7535C88.4707 47.7535 89.3431 48.7679 89.7793 49.2751L90.1759 49.7043L91.8414 48.3778L91.5638 47.9876C91.1672 47.4414 89.6207 45.7248 86.0914 45.7248C81.4517 45.7248 80.7776 47.9486 80.7776 49.2361C80.7776 51.8891 83.7914 52.1622 86.1707 52.3963C88.3121 52.5913 89.7 52.7864 89.7 53.6837C89.7 55.1273 86.8052 55.2053 86.4879 55.2053C83.6724 55.2053 82.8 54.0739 82.2448 53.3716L81.9276 52.9425L80.5397 54.1129L80.1431 54.464L80.5 54.8542C81.4121 55.8295 82.7603 57.3511 86.3293 57.3511C88.9465 57.3511 92 56.4147 92 53.7618C92 50.7577 88.9069 50.4846 86.4086 50.2505Z" fill="#1C1C1B"/>
<path d="M22.1276 72.6448L18.6776 64.9199H15.9017V76H18.0828V68.8604L21.2948 76H23L26.1724 68.8604V76H28.3534V64.9199H25.5776L22.1276 72.6448Z" fill="#1C1C1B"/>
<path d="M34.0241 71.3183H40.6069V69.2115H34.0241V67.0267H41.9155V64.9199H31.7638V76H42.0741V73.8932H34.0241V71.3183Z" fill="#1C1C1B"/>
<path d="M50.3224 64.9199H44.7707V76H49.9259C53.9707 76 56.3103 73.9322 56.3103 70.3819C56.3103 67.0267 54.0103 64.9199 50.3224 64.9199ZM50.1241 73.8932H47.031V66.9877H50.3224C52.0276 66.9877 54.0103 67.5729 54.0103 70.3039C54.0103 72.7228 52.7017 73.8932 50.1241 73.8932Z" fill="#1C1C1B"/>
<path d="M61.1483 64.9199H58.8879V76H61.1483V64.9199Z" fill="#1C1C1B"/>
<path d="M68.7224 64.9199L62.9328 76H65.4707L66.819 73.386H72.8069L74.1155 76H76.6535L70.8638 64.9199H68.7224ZM67.8897 71.2793L69.7931 67.4949L71.6966 71.2793H67.8897Z" fill="#1C1C1B"/>
<path d="M68.9604 40.0287L63.8052 37.0246C64.8362 37.1416 65.7483 36.7125 66.581 36.0882L68.1672 37.9609L67.2155 35.6201C68.2466 34.8008 69.119 33.9425 70.1897 33.9034C73.1241 33.8254 71.0621 37.2977 72.1328 37.2977C73.3224 37.2977 74.631 33.4743 71.7759 31.7577C68.8017 30.002 66.2241 32.5379 64.1224 32.1088L71.9741 28.6755H60.5138L60.1172 27.9342C62.1793 28.8706 63.6862 28.0123 64.6776 27.0369L67.9293 27.5051L65.2328 26.4517C65.8673 25.7885 66.4224 25.2813 67.0966 25.5154C68.0483 25.8665 68.6431 26.7248 70.3086 26.7248C73.1638 26.7638 75.2259 21.809 71.4586 19.6242C71.7362 23.1745 70.0707 23.3305 67.1759 21.4579L68.1672 19.8583L66.6604 21.1457C63.8845 19.9363 62.4966 22.3552 61.3466 23.1355C60.1569 23.9158 59.0862 22.3552 57.6586 24.2279C59.8 23.5256 60.8707 25.5544 62.2586 24.2279C61.6638 27.7782 59.6017 23.1355 57.5397 24.9301C59.3241 25.0472 60.2759 26.6468 61.7035 26.6468C64.3207 26.6468 61.981 21.6919 65.669 21.6919L65.0742 21.3018C67.1759 21.1067 67.2948 23.1745 70.4276 23.2135C70.7448 23.6817 69.5948 23.7207 68.8017 23.4476C68.6828 24.1108 73.0845 25.5934 72.0138 20.6386C73.4017 21.3798 73.1241 24.501 71.8155 25.6714C71.5776 25.9055 71.3397 26.0225 71.181 25.7885C70.8241 25.2423 71.7362 25.2813 72.0138 24.462C71.0224 25.3203 69.3172 25.2423 68.1672 24.1889C67.0173 23.1355 65.2724 21.848 64.5586 24.0718C63.8052 26.2956 63.2104 27.31 61.8621 27.349C59.9983 27.388 58.0155 24.3059 55.9535 25.9835C59.919 26.3347 60.8707 32.5379 64.3604 32.616C67.0569 32.616 67.6914 31.4455 69.4362 31.4455C71.2207 31.4455 73.0448 32.3819 73.0448 34.6447C73.0448 36.0102 72.2914 36.7905 72.2914 36.7905C72.2914 36.7905 72.8466 35.6591 72.569 34.2546C72.2914 32.8891 71.1017 32.0698 69.5552 32.0698C67.3741 32.0698 65.6293 35.5811 63.2104 35.5811C58.3724 35.5811 57.1035 26.3737 52.0276 27.7782C55.7552 30.2751 56.1914 34.2156 58.1741 35.7371C60.1966 37.2977 62.6552 36.6344 63.9638 37.8049C64.519 38.2731 64.7569 39.0924 64.9155 39.9507H64.4397C64.281 39.5215 64.0431 39.0924 63.6466 38.7412C62.4966 37.5318 59.0069 38.078 57.381 36.3613C55.7948 34.6447 54.6052 29.5338 51.4328 28.7535C54.169 30.5092 54.8035 34.9568 56.7862 37.1807C58.769 39.3655 61.3466 38.195 62.5362 39.3655C62.7345 39.5605 62.9328 39.7556 63.0914 39.9507H60.831C60.6328 39.9117 60.4345 39.8726 60.1966 39.8726C59.8397 39.8726 59.4431 39.9117 59.0862 39.9507H55.9138C55.5172 39.8336 55.1207 39.5995 54.8035 39.2874C53.2569 37.6488 53.3759 35.9712 53.4948 33.9425C53.8121 35.8542 54.169 40.1848 57.4604 39.7166C53.2966 38.3121 55.7155 31.2895 50.6397 29.4948C50.0845 29.2997 50.2828 27.5441 51.6707 27.271C48.9345 27.7782 48.9345 26.8028 50.8776 24.8131C49.6879 25.5544 48.3793 25.3593 48.1017 26.1786C48.1017 26.1786 50.3621 29.6509 50.3621 30.3531C50.3621 31.0164 48.8948 33.7864 48.6966 33.8644C48.1414 34.1765 46.3172 34.1765 45.881 34.0205C45.4052 33.8644 44.85 32.3819 45.0483 31.9137C45.4052 31.1724 48.181 30.5872 48.2207 29.5338C48.2603 28.6755 47.1104 28.5975 47.15 29.0657C47.8241 29.2997 48.1017 30.2751 46.1586 30.7043L46.5948 30.002C46.5948 30.002 45.1276 31.1334 45.0483 31.2115C44.969 31.2505 44.6517 31.2895 44.4138 31.2115C44.2155 31.1334 42.0741 30.1581 42.431 29.1437C42.431 29.1437 43.0655 29.4168 44.6517 29.4168C46.2379 29.4168 46.3966 28.7145 46.3966 28.7145C46.3966 28.7145 45.5241 28.9096 44.6517 28.9096C43.7793 28.9096 42.9069 28.7145 42.9069 28.7145C42.2328 28.5585 42.9466 27.7002 43.1845 27.7002C43.1845 27.7002 44.731 27.7002 44.85 27.7002C44.969 27.7002 45.0879 27.4661 44.85 27.4661C44.6914 27.4661 43.6207 27.4271 43.5414 27.193C43.3828 26.7638 43.1052 24.0328 43.1052 24.0328C43.1052 24.0328 43.4621 23.1745 43.1845 22.9014C42.9069 22.6283 42.7483 22.7843 42.7483 22.7843C43.4224 26.5687 40.4879 28.9486 38.7828 28.4804L38.5845 28.4414C38.981 28.7145 39.4569 28.9876 40.0914 29.1827C36.919 29.8459 35.65 27.9342 35.1345 26.8028C34.8569 26.9589 34.8569 27.6611 34.8966 28.1293C34.2224 27.4271 33.8655 26.3347 34.4604 25.5544C33.6672 25.9445 33.6276 26.0616 33.6276 26.0616C33.6672 25.3983 34.8172 24.9692 35.4121 24.2279C36.0069 23.4866 35.8879 22.3162 34.619 21.809C34.6983 22.9794 34.1035 23.7987 32.9138 24.1889C31.7638 24.579 31.9621 23.5256 30.8517 23.7597C32.6362 24.1498 32.5172 26.5687 34.3017 27.5441C31.9621 26.9979 31.5259 23.8377 28.6707 24.1498C30.3362 21.848 32.9138 23.8377 34.0241 22.2381C31.2483 22.8624 29.3448 20.5605 28.9879 17.9856C28.5121 14.0841 25.1414 15.9958 25.2207 14.0841C26.8862 14.8254 30.6138 11.9774 31.7241 15.2156C32.8741 18.6098 35.2138 19.9753 37.2759 18.4147L28.2345 9.3634L29.3845 13.1868C27.0052 13.655 24.1103 12.2505 25.6966 8.97326C23.4362 7.95888 20.4621 11.6262 23.1983 14.5133C24.4672 15.8398 27.5603 15.3716 28.3931 18.0636L25.419 17.8295L28.4724 18.6098L29.3845 21.2628L22.3259 17.8295L26.6879 22.8234C24.15 24.1498 23.5155 20.3655 20.2241 20.4435C17.9241 20.4825 15.3466 22.8234 16.4172 25.5544C19.8672 23.4866 20.9776 24.9692 22.4448 26.3737L20.3431 27.5051L22.8414 26.7638C23.7138 27.5831 24.8241 28.2464 26.6483 28.1293C29.6224 27.8952 32.2397 26.9589 32.9138 27.7782C33.4293 28.3634 32.8345 28.7535 31.7638 28.7535H17.4879L23.1983 31.7577C22.6431 32.1868 21.0569 34.0985 19.9466 34.0985C18.8362 34.0985 16.3776 32.4209 15.7431 35.347C18.281 34.9178 19.55 40.3798 24.9035 36.0102L22.4052 40.0677H10.6672V41.4722H81.0552V40.0677H68.9604V40.0287ZM66.1448 23.5646C67.4535 24.1108 63.4086 28.0123 62.1793 27.8562C64.7569 27.0759 64.8362 23.0184 66.1448 23.5646ZM66.7 34.9958C67.6121 32.616 70.5069 31.5626 71.6569 33.6694C71.6966 33.7864 71.6173 33.8644 71.419 33.6694C69.9517 32.2258 68.0483 33.5913 66.8586 35.1129C66.6604 35.308 66.6207 35.1909 66.7 34.9958ZM25.1414 9.28537C24.3879 10.5728 24.5466 12.9137 27.5207 13.616C22.5241 14.7084 22.6431 9.0903 25.1414 9.28537ZM21.0569 24.579C18.7569 23.3305 16.6948 24.8131 16.6948 24.8131C17.4086 22.5503 21.6914 22.3552 21.0569 24.579ZM22.0879 23.6817C21.731 23.2135 21.4535 22.8234 21.0569 22.7063C20.581 22.5503 20.0259 22.5503 19.55 22.5893C18.9552 22.6283 18.4397 22.6283 18.281 22.2772C18.1621 22.0431 18.281 21.809 18.5983 21.5749C18.9155 21.3408 19.3914 21.1848 19.8276 21.1848C20.3431 21.1457 20.819 21.2628 21.0966 21.5359C21.3741 21.809 21.4931 21.809 21.5724 21.77C21.6517 21.731 21.6121 21.5749 21.6121 21.4579C21.6121 21.3798 21.5724 21.3018 21.6517 21.3018C22.4845 21.4188 22.881 21.926 23.3172 22.4332C24.031 23.2525 25.1017 24.54 27.7586 24.1108C27.0845 26.4127 23.2776 25.7494 22.0879 23.6817ZM24.2293 26.8418C24.0707 25.8275 29.2655 25.0862 29.3052 26.5297C29.3448 27.7782 24.3879 27.9342 24.2293 26.8418ZM50.9569 33.0841C49.2517 36.7125 53.4552 38.9753 54.2483 39.7166C54.3276 39.7946 54.4466 39.9117 54.5259 40.0287H53.0983C52.6621 39.1704 52.2259 38.5071 51.75 38.2731C52.1069 38.7802 52.3448 39.3655 52.5828 40.0287H51.9086C50.9172 38.117 49.2517 36.6344 50.9569 33.0841ZM50.5207 40.0287H49.9259L49.2121 38.039C49.7672 38.3121 50.1638 39.0533 50.5207 40.0287ZM48.8155 40.0287H48.1414C48.419 38.9363 48.5776 37.7659 47.8638 36.4004C48.9741 37.2587 48.9741 38.6632 48.8155 40.0287ZM47.6259 40.0287H47.031C47.3086 39.1704 47.3483 38.2731 46.6345 36.9856C47.7052 37.8829 47.7845 38.9363 47.6259 40.0287ZM43.2638 40.0287C43.6207 38.5462 42.9862 38.078 41.6776 36.7125C43.6207 38.039 44.2948 38.9363 44.1759 40.0287H43.2638ZM44.8103 37.3757C45.7621 38.4681 46.0397 39.2874 46.0793 39.9897H45.4845C45.5241 39.3264 45.3655 38.5071 44.8103 37.3757ZM44.731 34.8008C45.5638 34.8008 47.1897 34.7618 47.2293 34.7618C47.4672 34.7618 47.5069 34.8398 47.5069 34.8788C47.5069 34.9568 47.3879 35.386 47.2293 35.425C47.2293 35.425 45.6431 35.7761 44.731 35.7371C43.819 35.7761 42.2328 35.425 42.2328 35.425C42.0741 35.386 41.9552 34.9568 41.9552 34.8788C41.9552 34.8398 41.9948 34.7618 42.2328 34.7618C42.2328 34.7618 43.8586 34.8008 44.731 34.8008ZM42.2724 29.1047C41.5983 29.3388 41.4793 30.4312 43.4621 30.8603C42.8276 30.9383 41.2414 30.6653 41.1621 29.5728C41.1224 28.7145 42.3121 28.6365 42.2724 29.1047ZM40.3293 30.9384C42.1931 31.0554 44.1362 31.9527 44.1362 31.9527C44.3741 32.4209 43.819 33.9034 43.3035 34.0595C42.8672 34.1765 40.6069 33.9425 40.2897 33.0451C41.6379 33.3963 41.7172 32.8891 41.7172 32.8891C41.7172 32.8891 40.4879 32.8891 40.0121 32.0698C40.9638 32.4209 41.4397 32.0698 41.4397 32.0698C41.4397 32.0698 39.5759 31.3675 39.5362 30.9384H40.3293ZM38.4655 32.9671L38.5052 32.616C38.6241 36.9856 41.8362 37.6488 41.8362 39.8336C41.8362 39.9117 41.8362 39.9507 41.8362 40.0287H41.281C41.3207 39.6386 41.2414 39.2484 40.9241 38.8583C38.8224 36.1273 38.7431 35.503 38.7431 35.503C38.9414 37.5708 40.2897 37.8439 40.6069 40.0287H39.7345C39.4172 38.3901 37.7517 37.7659 38.4655 32.9671ZM38.6638 40.0287H37.1172L37.95 38.7412C38.3466 39.2484 38.5845 39.6776 38.6638 40.0287ZM36.1655 40.0287H35.1345C36.6414 37.2587 35.8086 32.733 37.1172 31.3285C36.2052 32.9281 37.6328 36.8295 36.1655 40.0287ZM36.5621 29.5338C35.9276 30.08 33.1121 32.5379 33.9845 39.1704C34.8966 37.7269 34.1035 32.2648 36.7603 30.3141C34.8966 32.5379 35.8879 36.4784 34.5397 40.0287H33.231C33.6276 37.1416 32.0017 32.8501 36.5621 29.5338ZM31.3672 40.0287H30.7724C31.2086 39.4435 31.5259 38.7022 31.8828 37.9219C31.8828 38.3901 31.7638 39.2094 31.3672 40.0287ZM34.3017 28.5195C34.8569 29.1047 31.4466 30.6262 29.781 30.041C32.5569 30.08 33.7466 27.9342 34.3017 28.5195ZM30.4155 30.7433C32.319 30.7433 33.469 30.119 33.9448 29.6509C33.7466 31.0164 32.2793 31.4846 30.4155 31.4846C28.5517 31.4846 26.8466 29.4558 25.419 30.8213C27.9172 30.5482 28.2741 33.1232 31.0897 32.2648C28.6707 34.8398 26.8862 30.3141 24.0707 31.6016C25.4983 28.2464 28.5121 30.7433 30.4155 30.7433ZM16.5362 34.8788C18.0035 32.772 19.1138 35.6591 21.5328 34.0595C22.3259 35.308 20.3828 36.0882 19.2328 35.386C18.0828 34.6837 17.131 34.6447 16.5362 34.8788ZM23.5948 36.4004C22.5241 37.2197 19.7879 38.039 19.8276 36.2833C22.6431 36.8295 23.3172 32.8501 25.8155 34.0205C25.2207 34.1375 24.6655 35.5811 23.5948 36.4004ZM31.5259 35.503C31.5259 36.9856 31.3276 38.078 30.9707 38.8973L26.8862 40.0287H23.2379L31.5259 35.503Z" fill="#BA9765"/>
<path d="M47.031 18.9609C45.0483 19.156 45.3655 21.809 46.8724 21.809C48.3397 21.809 48.5776 21.1457 49.6879 21.1457C50.7983 21.1457 51.1948 21.887 52.1069 21.887C52.9793 21.887 53.5345 21.2628 53.1379 20.6776C52.5431 21.6139 51.5121 20.3264 50.7586 20.3264C49.6086 20.3264 49.0931 20.7946 48.3397 21.1848C47.5069 21.6139 46.6741 21.2238 46.9914 20.7166C46.3172 20.6776 45.881 19.8583 47.031 18.9609Z" fill="#BA9765"/>
<path d="M54.169 10.846C52.2655 13.616 54.8035 16.503 50.7983 17.4784C55.5569 17.5174 53.0983 13.5379 54.8034 11.2361C56.5483 8.93425 58.4914 9.79257 59.1259 7.13959C58.1345 9.32439 55.2397 9.24636 54.169 10.846Z" fill="#BA9765"/>
<path d="M48.6966 16.1519C47.6259 15.0985 48.1017 13.2258 48.1017 13.2258C48.1017 13.2258 46.3966 15.3326 48.6966 16.1519Z" fill="#BA9765"/>
<path d="M55.4379 11.7823C53.8914 14.0061 55.6759 17.2443 52.4638 18.1807C56.5086 18.2977 54.5655 13.694 56.0328 12.0944C57.3017 10.2607 58.4914 10.5729 59.0862 8.62213C58.2138 10.1827 56.3104 10.4948 55.4379 11.7823Z" fill="#BA9765"/>
<path d="M61.1086 18.6489C57.7776 17.3224 55.7948 20.4045 55.7948 21.3409C56.5879 20.9507 57.9362 19.5462 58.4121 19.1951C59.3241 18.6099 60.7517 18.961 61.1086 18.6489Z" fill="#BA9765"/>
<path d="M53.2569 23.5257C53.4948 24.0719 54.4862 22.8624 55.9931 23.3306C55.2793 22.8234 53.1379 22.8234 53.2569 23.5257Z" fill="#BA9765"/>
<path d="M64.281 17.0103C63.5672 20.2094 57.4207 17.8296 57.5 22.4333C58.8086 20.1704 64.7966 20.3655 64.281 17.0103Z" fill="#BA9765"/>
<path d="M52.1466 25.0082C52.2655 25.7105 53.4948 24.2669 55.8345 25.2423C55.0414 24.1109 51.9483 23.9938 52.1466 25.0082Z" fill="#BA9765"/>
<path d="M47.3483 16.1519C44.969 12.3285 50.5603 11.4312 48.9741 8.271C49.1724 10.7289 43.819 13.3039 47.3483 16.1519Z" fill="#BA9765"/>
<path d="M47.9431 31.0164C47.6259 31.2505 46.8724 31.4456 46.2379 31.8357C46.1586 31.9528 46.0793 32.3039 45.9603 32.3819C46.5552 32.538 47.9035 31.6797 47.9431 31.0164Z" fill="#BA9765"/>
<path d="M40.2897 22.1601C39.3776 21.9651 38.2673 22.9014 37.1966 23.3696C38.1879 24.8131 40.5276 24.9302 41.4793 25.4374C41.6776 25.0862 42.3914 22.5503 40.2897 22.1601ZM39.219 24.462C38.2673 24.1109 38.6638 22.2772 39.9328 22.5503C39.8535 22.7063 39.2586 23.7988 39.219 24.462ZM39.9328 24.6961C40.369 24.2669 40.6466 23.1745 40.7259 23.0185C41.6776 23.7207 40.7259 24.9692 39.9328 24.6961Z" fill="#BA9765"/>
<path d="M43.6604 20.6776C42.6293 21.8481 41.9155 20.5606 40.6466 20.5606C39.5362 20.5606 38.2673 21.77 38.0293 20.9897C37.8707 20.3655 38.981 19.3511 40.4879 19.2341C39.219 18.883 37.1569 20.0534 36.7604 21.3019C36.3638 21.3409 36.0069 21.2238 36.0069 21.2238C36.5224 23.3696 38.7431 21.1848 39.7741 21.1848C40.6862 21.1848 43.581 23.2526 43.6604 20.6776Z" fill="#BA9765"/>
<path d="M43.3431 7.6468L44.4535 10.4948C44.4535 10.4948 43.4621 11.6653 43.4621 13.733C43.4621 17.7905 46.8328 18.1417 46.5948 16.5421C44.2155 17.5955 44.0966 14.2402 44.7707 13.538C44.7707 13.538 44.3345 15.2936 45.9207 15.9569C43.819 12.5236 47.9828 11.1971 47.9828 8.4661C47.9828 6.16425 46.5552 5.42298 46.5948 3.3162C46.6345 0.780267 50.4017 0.117023 50.4414 1.09238C50.481 1.79464 47.7052 1.87267 47.6655 4.48663C47.6259 6.94454 50.4017 7.52975 50.3224 9.90963C50.2828 11.4702 47.4276 12.9137 49.2121 15.8398L53.2569 4.64269L50.1638 8.07596C49.1724 6.86651 48.419 6.74947 48.419 4.56466C48.419 2.37986 50.8776 2.06774 50.8776 1.05337C50.8776 0.234066 49.6483 0.117023 48.7362 0.0780086C47.3483 -2.01836e-05 44.8897 1.20943 44.8897 3.74536C44.8897 6.28129 46.6345 7.56877 44.8897 9.94865L43.3431 7.6468ZM46.9914 7.1006C48.1017 10.5339 44.4535 11.4312 44.1759 13.694C43.9379 10.963 47.4276 9.63653 46.9914 7.1006Z" fill="#BA9765"/>
<path d="M40.7655 25.7885C40.2103 25.3983 38.1483 25.4763 37.0379 24.3059C37.0379 24.3059 36.9586 24.54 37.0776 24.7351C35.6897 25.2813 36.0862 26.6078 36.0862 26.6078C36.0862 26.6078 36.9983 25.5154 37.5931 25.5154C37.5931 25.5154 37.4741 26.4127 37.7121 26.8028L37.831 26.9979C37.2759 25.2032 40.7655 25.7885 40.7655 25.7885Z" fill="#BA9765"/>
<path d="M30.3759 9.87063L32.9138 11.0801C32.9931 11.9384 33.35 12.8357 34.2224 13.8501C35.2138 14.9815 37.8707 15.3326 37.9897 17.9856C38.8224 17.1663 38.1483 15.2936 36.3638 14.2402C29.5828 10.2998 41.0431 4.13552 33.6673 1.95071C40.0121 1.52155 37.3155 7.17864 37.831 9.44147C38.5448 12.5626 41.4793 11.8213 43.0259 13.7721L41.3207 4.29157L39.6948 10.924C37.5138 10.6119 38.3069 7.56878 38.3466 4.83777C38.4655 -0.351137 29.4241 1.13141 30.6535 4.05749C31.1293 5.14989 34.1828 2.69198 34.1828 5.30595C34.1828 7.10061 33.0724 8.66118 32.9535 10.3778L30.3759 9.87063ZM31.2483 3.62833C30.6138 2.88706 33.6673 2.06775 34.2224 3.90143C32.7155 2.96509 31.5259 3.97946 31.2483 3.62833Z" fill="#BA9765"/>
<path d="M36.6414 9.05133C33.6276 14.6304 44.0172 12.0945 42.669 16.8542C44.85 11.7043 35.531 14.5914 36.6414 9.05133Z" fill="#BA9765"/>
<path d="M63.5276 34.6447C65.2328 34.6057 66.6207 32.9281 67.5724 32.3039C66.1845 32.616 65.431 33.8644 63.5276 33.9035C60.3552 33.9815 58.7293 25.1642 53.3362 26.9589C58.8879 27.3881 58.769 34.7618 63.5276 34.6447Z" fill="#BA9765"/>
<path d="M40.369 16.269C40.2104 16.269 40.0914 16.23 39.9328 16.152C39.219 15.7228 38.8224 14.5134 38.1086 14.6304C38.5448 14.9425 38.3466 16.0739 38.9414 16.7372C39.219 17.0493 39.6155 17.2444 40.0914 17.2444C40.9638 17.2444 41.6379 16.5811 41.6379 15.7228C41.6379 15.2156 41.4 14.7865 41.0431 14.5134C40.4879 14.0842 39.7345 13.8111 37.4741 13.0698C32.1207 11.2752 40.131 5.93019 36.4431 2.92609C38.4655 7.25668 32.5569 9.79262 35.6104 12.8357C36.9586 14.2012 39.8931 14.0062 40.8845 14.9815C41.0431 15.1376 41.1224 15.3327 41.1224 15.5277C41.1621 15.9179 40.8052 16.269 40.369 16.269Z" fill="#BA9765"/>
<path d="M35.7293 19.4682C34.7776 19.4292 33.1914 19 32.6759 17.7125C32.2 18.883 33.7069 22.0041 35.7293 19.4682Z" fill="#BA9765"/>
<path d="M48.419 31.8747C48.3397 32.0308 47.9431 32.1868 47.031 32.5379C46.9121 32.733 46.6345 33.0451 46.3569 33.2012C47.4276 33.5133 48.6172 32.4599 48.419 31.8747Z" fill="#BA9765"/>
<path d="M52.9 22.5893C53.1379 22.9404 53.4552 22.2772 54.05 21.926C53.2569 21.848 52.781 22.3942 52.9 22.5893Z" fill="#BA9765"/>
<path d="M52.2259 23.0965C51.1552 22.6283 50.0448 21.692 49.1328 21.8871C47.031 22.3162 47.7448 24.8522 47.9431 25.1643C48.8948 24.6181 51.2345 24.501 52.2259 23.0965ZM50.2034 24.1499C50.2034 24.1499 49.569 22.3943 49.4897 22.2382C50.7983 21.9651 51.1948 23.7988 50.2034 24.1499ZM48.6966 22.6674C48.7759 22.8234 49.0534 23.9158 49.4897 24.345C48.6966 24.6571 47.7845 23.3696 48.6966 22.6674Z" fill="#BA9765"/>
<path d="M56.9052 16.9322C55.9535 17.9466 56.0328 18.8049 54.6052 19.7023C56.469 20.4825 56.5086 18.0637 58.3328 17.5565C59.6017 17.2053 60.5535 18.6879 62.3379 17.8686C64.1621 17.0493 63.4879 13.7721 64.3604 12.3285C65.2328 10.885 67.6517 9.51951 69.3569 12.4456C69.3569 12.4456 66.4621 9.63655 65.1138 12.9918C66.0655 12.2115 67.4535 11.9774 67.4535 12.7187C66.7 12.9528 65.5104 13.3819 65.4707 15.9959C65.431 19.039 64.1621 19.7023 63.2104 20.3265C61.8224 21.2238 58.5707 21.1848 57.8173 23.2526L69.119 18.2977H65.669C66.1052 15.8008 65.1535 12.0945 69.8724 12.9528C70.4672 11.7043 66.5414 7.76386 63.0914 12.2895L62.7741 11.1581C62.1 17.1273 58.8483 14.7865 56.9052 16.9322ZM62.8535 13.9281C63.4483 14.9035 61.7035 16.6982 61.7035 16.6982C62.1397 16.8542 62.1397 17.5175 61.5845 17.6735C60.5535 17.9856 59.7604 16.8542 58.4517 17.1663C58.6897 16.6591 61.4259 16.7762 62.8535 13.9281Z" fill="#BA9765"/>
<path d="M34.9362 20.9897C30.1776 21.0677 33.6672 15.9178 30.1379 15.1766C31.9621 16.386 30.9707 17.4784 30.9707 19.4291C30.9707 21.809 33.8655 22.5503 34.9362 20.9897Z" fill="#BA9765"/>
<path d="M51.5914 14.0842C51.0362 15.5667 49.5293 15.9569 48.7759 17.2444C49.2121 17.2444 51.3931 16.7762 52.2259 15.4107C53.019 14.0842 52.2259 10.2608 54.7638 9.32444C57.4207 8.34908 60.1966 6.90554 57.0638 3.74538C61.8621 4.95483 59.1655 9.98768 58.6104 10.729C58.0552 11.4312 56.3104 12.7967 56.3104 15.0205C56.3104 16.6591 54.8035 18.5318 53.6535 18.7659C54.8828 19.2731 56.7466 16.4641 56.7466 16.4641L62.7345 8.81725L59.2845 10.5729C59.2845 10.5729 60.2362 9.75359 60.2362 7.10062C60.2362 3.35524 56.1121 2.65298 56.1517 3.82341C56.1914 4.6037 57.5397 5.1499 57.5793 6.43737C57.619 7.72485 55.7948 8.4271 54.3672 8.85626L53.7328 6.74949V9.12936C51.3931 10.2998 52.1862 12.5236 51.5914 14.0842Z" fill="#BA9765"/>
</svg>
